<svg width="25" height="24" viewBox="0 0 25 24" fill="none" xmlns="http://www.w3.org/2000/svg">
<g clip-path="url(#clip0_2820_46643)">
<path d="M24.5596 12C24.5596 5.37258 19.187 0 12.5596 0C5.93215 0 0.55957 5.37258 0.55957 12C0.55957 17.9895 4.94777 22.954 10.6846 23.8542V15.4688H7.6377V12H10.6846V9.35625C10.6846 6.34875 12.4761 4.6875 15.2171 4.6875C16.5296 4.6875 17.9033 4.92188 17.9033 4.92188V7.875H16.3902C14.8996 7.875 14.4346 8.80008 14.4346 9.75V12H17.7627L17.2307 15.4688H14.4346V23.8542C20.1714 22.954 24.5596 17.9895 24.5596 12Z" fill="#A2AAB5"/>
</g>
<defs>
<clipPath id="clip0_2820_46643">
<rect width="24" height="24" fill="white" transform="translate(0.55957)"/>
</clipPath>
</defs>
</svg>
