<svg width="25" height="24" viewBox="0 0 25 24" fill="none" xmlns="http://www.w3.org/2000/svg">
<g clip-path="url(#clip0_2820_46649)">
<path d="M10.6956 19.4745C10.6952 18.9059 10.6949 18.3372 10.6942 17.7686C10.6941 17.6052 10.6935 17.6046 10.5335 17.6045C9.51001 17.6043 8.4865 17.6045 7.46298 17.6043C7.28791 17.6043 7.28556 17.6022 7.28539 17.4286C7.28498 17.0021 7.28468 16.5757 7.2856 16.1492C7.28594 15.9925 7.29567 15.9841 7.45148 15.9833C7.67471 15.982 7.89766 15.9836 8.12076 15.9638C8.43796 15.9355 8.59724 15.7803 8.62602 15.4622C8.64325 15.2716 8.6447 15.081 8.64471 14.8902C8.64481 12.8472 8.64523 10.8042 8.64383 8.76126C8.64371 8.5828 8.63485 8.40414 8.62383 8.22596C8.60645 7.94514 8.41595 7.76099 8.1326 7.73216C7.89753 7.70825 7.66221 7.70676 7.42692 7.71202C7.32074 7.71439 7.28323 7.67589 7.284 7.57104C7.2873 7.12429 7.28796 6.67748 7.28362 6.23075C7.28251 6.11572 7.32936 6.08721 7.43678 6.08752C8.46435 6.09053 9.49193 6.08933 10.5195 6.08919C10.6357 6.08918 10.694 6.03096 10.6943 5.91455C10.6945 5.39872 10.6974 4.88288 10.6923 4.36711C10.6911 4.24471 10.7304 4.20597 10.8535 4.20779C11.2962 4.21433 11.739 4.21476 12.1816 4.2076C12.3089 4.20554 12.3391 4.25111 12.3379 4.36971C12.3328 4.89361 12.339 5.41762 12.3332 5.94149C12.3319 6.06103 12.3713 6.09535 12.4867 6.09153C12.718 6.08389 12.9497 6.08945 13.1812 6.08919C13.3446 6.089 13.345 6.08873 13.3451 5.93021C13.3453 5.42251 13.3451 4.91481 13.3451 4.40712C13.3451 4.27603 13.4125 4.21045 13.5473 4.21036C13.9657 4.21029 14.384 4.21023 14.8024 4.21039C14.9861 4.21046 14.9867 4.2107 14.9868 4.39013C14.9871 4.93032 14.9903 5.47054 14.9844 6.01067C14.9831 6.13163 15.0278 6.17361 15.1418 6.1867C15.8939 6.27308 16.5749 6.53042 17.1476 7.03973C17.4223 7.28406 17.6262 7.58196 17.7652 7.91907C18.0787 8.67965 18.0357 9.42725 17.6372 10.1463C17.3487 10.6669 16.9126 11.0348 16.3836 11.2986C16.2294 11.3756 16.0674 11.4355 15.9116 11.5271C16.106 11.5899 16.3014 11.6498 16.4947 11.716C16.9234 11.8628 17.3112 12.0829 17.6263 12.41C18.0284 12.8275 18.2784 13.3243 18.355 13.9045C18.5052 15.0423 18.0895 15.9513 17.2171 16.6596C16.6179 17.1461 15.9065 17.3801 15.149 17.4786C15.0271 17.4944 14.9829 17.5329 14.9839 17.6591C14.989 18.2642 14.9853 18.8693 14.9847 19.4745H13.3519C13.3495 19.4218 13.3451 19.3692 13.3451 19.3166C13.3446 18.7969 13.3408 18.2771 13.3476 17.7575C13.3493 17.6308 13.308 17.5968 13.1873 17.602C12.9806 17.6108 12.7733 17.6036 12.5662 17.6046C12.3106 17.6059 12.3368 17.5776 12.3356 17.8306C12.3329 18.3786 12.3307 18.9265 12.3284 19.4745H10.6956ZM11.518 13.9438C11.5194 13.9438 11.5208 13.9438 11.5222 13.9438C11.5222 14.2646 11.5184 14.5854 11.5237 14.9061C11.5268 15.0923 11.5101 15.2802 11.5495 15.4645C11.5872 15.6409 11.6643 15.7026 11.8414 15.7178C12.2711 15.7546 12.7017 15.7451 13.1316 15.7354C13.4879 15.7273 13.8439 15.7046 14.1923 15.6091C15.3065 15.3037 15.6748 14.0114 15.1355 13.1711C14.8838 12.7788 14.4792 12.619 14.0398 12.5378C13.7799 12.4898 13.5157 12.4864 13.2522 12.4737C12.7042 12.4473 12.1562 12.469 11.6084 12.4611C11.5431 12.4601 11.5161 12.4843 11.5165 12.5553C11.5194 13.0181 11.518 13.4809 11.518 13.9438ZM11.5229 9.35873C11.5229 9.76872 11.527 10.1788 11.5203 10.5887C11.5183 10.7139 11.5613 10.7496 11.6822 10.7465C11.9702 10.7392 12.2586 10.7403 12.5468 10.7451C13.0144 10.7527 13.4794 10.7277 13.9403 10.6465C14.6143 10.5278 15.0409 10.136 15.1357 9.52296C15.2273 8.9312 14.974 8.37539 14.3935 8.1531C14.0321 8.01475 13.6487 7.99273 13.2685 7.98272C12.7371 7.96874 12.205 7.98057 11.6733 7.97456C11.5551 7.97323 11.5193 8.01334 11.5208 8.12879C11.5261 8.5387 11.5229 8.94874 11.5229 9.35873Z" fill="#A2AAB5"/>
<path fill-rule="evenodd" clip-rule="evenodd" d="M12.5596 21.1686C17.6233 21.1686 21.7282 17.0637 21.7282 12C21.7282 6.93632 17.6233 2.83139 12.5596 2.83139C7.49589 2.83139 3.39096 6.93632 3.39096 12C3.39096 17.0637 7.49589 21.1686 12.5596 21.1686ZM24.5596 12C24.5596 18.6274 19.187 24 12.5596 24C5.93215 24 0.55957 18.6274 0.55957 12C0.55957 5.37258 5.93215 0 12.5596 0C19.187 0 24.5596 5.37258 24.5596 12Z" fill="#A2AAB5"/>
</g>
<defs>
<clipPath id="clip0_2820_46649">
<rect width="24" height="24" fill="white" transform="translate(0.55957)"/>
</clipPath>
</defs>
</svg>
