<svg width="25" height="24" viewBox="0 0 25 24" fill="none" xmlns="http://www.w3.org/2000/svg">
<g clip-path="url(#clip0_2820_46652)">
<path d="M24.3205 7.20078C24.3205 7.20078 24.0861 5.54609 23.3643 4.81953C22.4502 3.86328 21.4283 3.85859 20.9596 3.80234C17.6033 3.55859 12.5643 3.55859 12.5643 3.55859H12.5549C12.5549 3.55859 7.51582 3.55859 4.15957 3.80234C3.69082 3.85859 2.66895 3.86328 1.75488 4.81953C1.03301 5.54609 0.80332 7.20078 0.80332 7.20078C0.80332 7.20078 0.55957 9.14609 0.55957 11.0867V12.9055C0.55957 14.8461 0.798633 16.7914 0.798633 16.7914C0.798633 16.7914 1.03301 18.4461 1.7502 19.1727C2.66426 20.1289 3.86426 20.0961 4.39863 20.1992C6.32051 20.382 12.5596 20.4383 12.5596 20.4383C12.5596 20.4383 17.6033 20.4289 20.9596 20.1898C21.4283 20.1336 22.4502 20.1289 23.3643 19.1727C24.0861 18.4461 24.3205 16.7914 24.3205 16.7914C24.3205 16.7914 24.5596 14.8508 24.5596 12.9055V11.0867C24.5596 9.14609 24.3205 7.20078 24.3205 7.20078ZM10.0799 15.1133V8.36797L16.5627 11.7523L10.0799 15.1133Z" fill="#A2AAB5"/>
</g>
<defs>
<clipPath id="clip0_2820_46652">
<rect width="24" height="24" fill="white" transform="translate(0.55957)"/>
</clipPath>
</defs>
</svg>
