<?xml version="1.0" encoding="utf-8"?>
<!-- Generator: Adobe Illustrator 28.5.0, SVG Export Plug-In . SVG Version: 9.03 Build 54727)  -->
<svg version="1.0" id="katman_1" xmlns="http://www.w3.org/2000/svg" xmlns:xlink="http://www.w3.org/1999/xlink" x="0px" y="0px"
	 viewBox="0 0 64 64" style="enable-background:new 0 0 64 64;" xml:space="preserve">
<style type="text/css">
	.st0{fill:#A2AAB5;}
</style>
<g>
	<path class="st0" d="M35.9,32c0,9.6-7.7,17.4-17.3,17.4S1.3,41.6,1.3,32s7.7-17.4,17.3-17.4S35.9,22.4,35.9,32"/>
	<path class="st0" d="M54.9,32c0,9.1-3.9,16.4-8.6,16.4S37.6,41,37.6,32s3.9-16.4,8.6-16.4S54.9,23,54.9,32"/>
	<path class="st0" d="M62.7,32c0,8.1-1.4,14.7-3,14.7s-3-6.6-3-14.7s1.4-14.7,3-14.7C61.3,17.3,62.7,23.9,62.7,32"/>
</g>
</svg>
