<svg width="25" height="24" viewBox="0 0 25 24" fill="none" xmlns="http://www.w3.org/2000/svg">
<g clip-path="url(#clip0_2820_46637)">
<path d="M12.5596 2.16094C15.7658 2.16094 16.1455 2.175 17.4064 2.23125C18.5783 2.28281 19.2111 2.47969 19.633 2.64375C20.1908 2.85938 20.5939 3.12188 21.0111 3.53906C21.433 3.96094 21.6908 4.35938 21.9064 4.91719C22.0705 5.33906 22.2674 5.97656 22.3189 7.14375C22.3752 8.40937 22.3893 8.78906 22.3893 11.9906C22.3893 15.1969 22.3752 15.5766 22.3189 16.8375C22.2674 18.0094 22.0705 18.6422 21.9064 19.0641C21.6908 19.6219 21.4283 20.025 21.0111 20.4422C20.5893 20.8641 20.1908 21.1219 19.633 21.3375C19.2111 21.5016 18.5736 21.6984 17.4064 21.75C16.1408 21.8063 15.7611 21.8203 12.5596 21.8203C9.35332 21.8203 8.97363 21.8063 7.7127 21.75C6.54082 21.6984 5.90801 21.5016 5.48613 21.3375C4.92832 21.1219 4.5252 20.8594 4.10801 20.4422C3.68613 20.0203 3.42832 19.6219 3.2127 19.0641C3.04863 18.6422 2.85176 18.0047 2.8002 16.8375C2.74395 15.5719 2.72988 15.1922 2.72988 11.9906C2.72988 8.78438 2.74395 8.40469 2.8002 7.14375C2.85176 5.97187 3.04863 5.33906 3.2127 4.91719C3.42832 4.35938 3.69082 3.95625 4.10801 3.53906C4.52988 3.11719 4.92832 2.85938 5.48613 2.64375C5.90801 2.47969 6.54551 2.28281 7.7127 2.23125C8.97363 2.175 9.35332 2.16094 12.5596 2.16094ZM12.5596 0C9.30176 0 8.89395 0.0140625 7.61426 0.0703125C6.33926 0.126563 5.4627 0.332812 4.70332 0.628125C3.91113 0.9375 3.24082 1.34531 2.5752 2.01562C1.90488 2.68125 1.49707 3.35156 1.1877 4.13906C0.892383 4.90313 0.686133 5.775 0.629883 7.05C0.573633 8.33437 0.55957 8.74219 0.55957 12C0.55957 15.2578 0.573633 15.6656 0.629883 16.9453C0.686133 18.2203 0.892383 19.0969 1.1877 19.8563C1.49707 20.6484 1.90488 21.3188 2.5752 21.9844C3.24082 22.65 3.91113 23.0625 4.69863 23.3672C5.4627 23.6625 6.33457 23.8687 7.60957 23.925C8.88926 23.9812 9.29707 23.9953 12.5549 23.9953C15.8127 23.9953 16.2205 23.9812 17.5002 23.925C18.7752 23.8687 19.6518 23.6625 20.4111 23.3672C21.1986 23.0625 21.8689 22.65 22.5346 21.9844C23.2002 21.3188 23.6127 20.6484 23.9174 19.8609C24.2127 19.0969 24.4189 18.225 24.4752 16.95C24.5314 15.6703 24.5455 15.2625 24.5455 12.0047C24.5455 8.74688 24.5314 8.33906 24.4752 7.05938C24.4189 5.78438 24.2127 4.90781 23.9174 4.14844C23.6221 3.35156 23.2143 2.68125 22.5439 2.01562C21.8783 1.35 21.208 0.9375 20.4205 0.632812C19.6564 0.3375 18.7846 0.13125 17.5096 0.075C16.2252 0.0140625 15.8174 0 12.5596 0Z" fill="#A2AAB5"/>
<path d="M12.5596 5.83594C9.15645 5.83594 6.39551 8.59688 6.39551 12C6.39551 15.4031 9.15645 18.1641 12.5596 18.1641C15.9627 18.1641 18.7236 15.4031 18.7236 12C18.7236 8.59688 15.9627 5.83594 12.5596 5.83594ZM12.5596 15.9984C10.3518 15.9984 8.56113 14.2078 8.56113 12C8.56113 9.79219 10.3518 8.00156 12.5596 8.00156C14.7674 8.00156 16.558 9.79219 16.558 12C16.558 14.2078 14.7674 15.9984 12.5596 15.9984Z" fill="#A2AAB5"/>
<path d="M20.4064 5.59141C20.4064 6.38828 19.7596 7.03047 18.9674 7.03047C18.1705 7.03047 17.5283 6.3836 17.5283 5.59141C17.5283 4.79453 18.1752 4.15234 18.9674 4.15234C19.7596 4.15234 20.4064 4.79922 20.4064 5.59141Z" fill="#A2AAB5"/>
</g>
<defs>
<clipPath id="clip0_2820_46637">
<rect width="24" height="24" fill="white" transform="translate(0.55957)"/>
</clipPath>
</defs>
</svg>
