<svg width="25" height="24" viewBox="0 0 25 24" fill="none" xmlns="http://www.w3.org/2000/svg">
<g clip-path="url(#clip0_3380_158003)">
<path fill-rule="evenodd" clip-rule="evenodd" d="M24.5601 12C24.5601 18.6274 19.1875 24 12.5601 24C5.93264 24 0.560059 18.6274 0.560059 12C0.560059 5.37258 5.93264 0 12.5601 0C19.1875 0 24.5601 5.37258 24.5601 12ZM12.9901 8.85893C11.8229 9.3444 9.4902 10.3492 5.99195 11.8733C5.42389 12.0992 5.12632 12.3202 5.09923 12.5363C5.05344 12.9015 5.51077 13.0453 6.13353 13.2411C6.21824 13.2678 6.30601 13.2954 6.396 13.3246C7.0087 13.5238 7.83288 13.7568 8.26135 13.766C8.65 13.7744 9.08379 13.6142 9.5627 13.2853C12.8312 11.079 14.5184 9.96381 14.6244 9.93977C14.6991 9.92281 14.8027 9.90148 14.8728 9.96385C14.943 10.0262 14.9361 10.1443 14.9287 10.176C14.8834 10.3691 13.0882 12.0381 12.1592 12.9018C11.8696 13.171 11.6641 13.362 11.6221 13.4056C11.5281 13.5033 11.4322 13.5958 11.34 13.6846C10.7708 14.2333 10.344 14.6448 11.3637 15.3168C11.8537 15.6397 12.2458 15.9067 12.637 16.1731C13.0642 16.4641 13.4903 16.7543 14.0417 17.1157C14.1821 17.2077 14.3163 17.3034 14.4469 17.3965C14.9441 17.751 15.3908 18.0694 15.9426 18.0186C16.2633 17.9891 16.5945 17.6876 16.7627 16.7884C17.1603 14.6631 17.9417 10.0585 18.1223 8.16097C18.1381 7.99473 18.1182 7.78197 18.1022 7.68857C18.0862 7.59518 18.0528 7.46211 17.9314 7.3636C17.7877 7.24694 17.5657 7.22234 17.4664 7.22408C17.0151 7.23203 16.3226 7.47282 12.9901 8.85893Z" fill="#A2AAB5"/>
</g>
<defs>
<clipPath id="clip0_3380_158003">
<rect width="24" height="24" fill="white" transform="translate(0.560059)"/>
</clipPath>
</defs>
</svg>
