<svg width="24" height="24" viewBox="0 0 24 24" fill="none" xmlns="http://www.w3.org/2000/svg">
<path d="M9.07308 7.12212L8 9H11M14.5 9H16L12 2L10.424 4.75793M15 13H13V20H19.5V17.5M18.5 13H19.5V14M10 16.5C10 18.433 8.433 20 6.5 20C4.567 20 3 18.433 3 16.5C3 14.567 4.567 13 6.5 13C8.433 13 10 14.567 10 16.5Z" stroke="#A2AAB5" stroke-width="1.5" stroke-linecap="round" stroke-linejoin="round"/>
<path d="M6.53033 3.46967C6.23744 3.17678 5.76256 3.17678 5.46967 3.46967C5.17678 3.76256 5.17678 4.23744 5.46967 4.53033L6.53033 3.46967ZM21.4697 20.5303C21.7626 20.8232 22.2374 20.8232 22.5303 20.5303C22.8232 20.2374 22.8232 19.7626 22.5303 19.4697L21.4697 20.5303ZM5.46967 4.53033L21.4697 20.5303L22.5303 19.4697L6.53033 3.46967L5.46967 4.53033Z" fill="#A2AAB5"/>
</svg>
