<svg width="16" height="21" viewBox="0 0 16 21" fill="none" xmlns="http://www.w3.org/2000/svg">
<path d="M6.66672 5.83317C6.94286 5.83317 7.16672 5.60931 7.16672 5.33317C7.16672 5.05703 6.94286 4.83317 6.66672 4.83317V5.83317ZM13.1666 11.3332C13.1666 11.057 12.9427 10.8332 12.6666 10.8332C12.3904 10.8332 12.1666 11.057 12.1666 11.3332H13.1666ZM11.9384 14.5212L11.7114 14.0757L11.9384 14.5212ZM12.5214 13.9385L12.0759 13.7115L12.5214 13.9385ZM3.47858 13.9385L3.03307 14.1655L3.03307 14.1655L3.47858 13.9385ZM4.06112 14.5212L4.28811 14.0757L4.28811 14.0757L4.06112 14.5212ZM4.06112 5.4785L4.28811 5.924L4.06112 5.4785ZM3.47858 6.0612L3.92408 6.28819L3.47858 6.0612ZM12.8333 7.99984C12.8333 8.27598 13.0571 8.49984 13.3333 8.49984C13.6094 8.49984 13.8333 8.27598 13.8333 7.99984H12.8333ZM13.3333 4.6665H13.8333C13.8333 4.39036 13.6094 4.1665 13.3333 4.1665V4.6665ZM9.99992 4.1665C9.72378 4.1665 9.49992 4.39036 9.49992 4.6665C9.49992 4.94265 9.72378 5.1665 9.99992 5.1665V4.1665ZM8.31303 8.97962C8.11777 9.17488 8.11777 9.49146 8.31303 9.68672C8.50829 9.88199 8.82488 9.88199 9.02014 9.68672L8.31303 8.97962ZM6.66672 4.83317H5.46672V5.83317H6.66672V4.83317ZM2.83325 7.46647V12.5331H3.83325V7.46647H2.83325ZM5.46672 15.1665H10.5334V14.1665H5.46672V15.1665ZM13.1666 12.5332V11.3332H12.1666V12.5332H13.1666ZM10.5334 15.1665C10.8985 15.1665 11.2024 15.1669 11.4497 15.1467C11.703 15.126 11.9406 15.0812 12.1654 14.9667L11.7114 14.0757C11.651 14.1064 11.5596 14.1344 11.3682 14.15C11.1711 14.1661 10.915 14.1665 10.5334 14.1665V15.1665ZM12.1666 12.5332C12.1666 12.9148 12.1662 13.171 12.1501 13.3683C12.1345 13.5597 12.1066 13.6512 12.0759 13.7115L12.9669 14.1655C13.0815 13.9406 13.1262 13.7028 13.1468 13.4496C13.167 13.2022 13.1666 12.8982 13.1666 12.5332H12.1666ZM12.1654 14.9667C12.5101 14.791 12.791 14.5107 12.9669 14.1655L12.0759 13.7115C11.9961 13.8681 11.8685 13.9956 11.7114 14.0757L12.1654 14.9667ZM2.83325 12.5331C2.83325 12.8983 2.83286 13.2022 2.85308 13.4496C2.87377 13.7029 2.91851 13.9407 3.03307 14.1655L3.92408 13.7115C3.89332 13.6512 3.8654 13.5596 3.84976 13.3682C3.83364 13.1709 3.83325 12.9148 3.83325 12.5331H2.83325ZM5.46672 14.1665C5.08511 14.1665 4.82889 14.1661 4.63156 14.15C4.44004 14.1343 4.34846 14.1064 4.28811 14.0757L3.83412 14.9667C4.05898 15.0812 4.29684 15.126 4.55013 15.1467C4.79762 15.1669 5.10159 15.1665 5.46672 15.1665V14.1665ZM3.03307 14.1655C3.2088 14.5104 3.48908 14.7909 3.83412 14.9667L4.28811 14.0757C4.13139 13.9958 4.00401 13.8684 3.92408 13.7115L3.03307 14.1655ZM5.46672 4.83317C5.10159 4.83317 4.79762 4.83278 4.55014 4.853C4.29686 4.87368 4.05899 4.91841 3.83412 5.03299L4.28811 5.924C4.34846 5.89325 4.44002 5.86532 4.63155 5.84968C4.82888 5.83356 5.0851 5.83317 5.46672 5.83317V4.83317ZM3.83325 7.46647C3.83325 7.08485 3.83364 6.82872 3.84976 6.63148C3.8654 6.44009 3.89332 6.34857 3.92408 6.28819L3.03307 5.8342C2.91851 6.05904 2.87377 6.29679 2.85308 6.55005C2.83286 6.79746 2.83325 7.10135 2.83325 7.46647H3.83325ZM3.83412 5.03299C3.48903 5.20883 3.20878 5.48937 3.03307 5.8342L3.92408 6.28819C4.00404 6.13126 4.13144 6.00383 4.28811 5.924L3.83412 5.03299ZM13.8333 7.99984V4.6665H12.8333V7.99984H13.8333ZM13.3333 4.1665H9.99992V5.1665H13.3333V4.1665ZM9.02014 9.68672L13.6868 5.02006L12.9797 4.31295L8.31303 8.97962L9.02014 9.68672Z" fill="#E3E3E5"/>
</svg>
