<svg width="24" height="24" viewBox="0 0 24 24" fill="none" xmlns="http://www.w3.org/2000/svg">
<path d="M12 3L12.0008 2.25C11.7657 2.24974 11.544 2.35978 11.4021 2.54725C11.2601 2.73471 11.2143 2.9779 11.2783 3.20417L12 3ZM12.1521 4.08723L11.4021 4.08893V4.09273L12.1521 4.08723ZM10.5708 7.1423L10.9973 7.75923L10.9997 7.75757L10.5708 7.1423ZM7.5 7.49264L7.77643 6.79544C7.52353 6.69517 7.23615 6.73971 7.02547 6.91185C6.81479 7.08398 6.71384 7.35671 6.76169 7.62453L7.5 7.49264ZM7.5702 8.2744L6.82019 8.27616L6.82022 8.28L7.5702 8.2744ZM6.1499 11.28L5.67774 10.6973L5.67537 10.6992L6.1499 11.28ZM3 12L3.15562 11.2664C2.93391 11.2193 2.70282 11.2751 2.52694 11.418C2.35106 11.561 2.24927 11.7758 2.25 12.0025L3 12ZM21 12L20.25 12.0008V12.0024L21 12ZM3.00195 7H3.75195C3.75195 6.58579 3.41617 6.25 3.00195 6.25V7ZM3.00195 7.002L2.98401 7.75179C3.18598 7.75662 3.38135 7.67977 3.5259 7.53863C3.67045 7.3975 3.75195 7.20402 3.75195 7.002H3.00195ZM3 7.00195H2.25C2.25 7.40918 2.57495 7.742 2.98206 7.75174L3 7.00195ZM3 7V6.25C2.58579 6.25 2.25 6.58579 2.25 7H3ZM8.00195 3H8.75195C8.75195 2.58579 8.41617 2.25 8.00195 2.25V3ZM8.00195 3.002L7.98396 3.75178C8.18593 3.75663 8.38132 3.67979 8.52588 3.53865C8.67044 3.39752 8.75195 3.20403 8.75195 3.002H8.00195ZM8 3.00195H7.25C7.25 3.40916 7.57492 3.74197 7.98201 3.75174L8 3.00195ZM8 3V2.25C7.58579 2.25 7.25 2.58579 7.25 3H8ZM4.00195 3H4.75195C4.75195 2.58579 4.41617 2.25 4.00195 2.25V3ZM4.00195 3.002L3.98396 3.75178C4.18593 3.75663 4.38132 3.67979 4.52588 3.53865C4.67044 3.39752 4.75195 3.20403 4.75195 3.002H4.00195ZM4 3.00195H3.25C3.25 3.40916 3.57492 3.74197 3.98201 3.75174L4 3.00195ZM4 3V2.25C3.58579 2.25 3.25 2.58579 3.25 3H4ZM11.0996 12H11.8496C11.8496 11.5858 11.5138 11.25 11.0996 11.25V12ZM11.0996 12.1L11.0994 12.85C11.2984 12.85 11.4892 12.7711 11.6299 12.6304C11.7706 12.4897 11.8496 12.2989 11.8496 12.1H11.0996ZM11 12.1H10.25C10.25 12.5141 10.5857 12.8499 10.9998 12.85L11 12.1ZM11 12V11.25C10.5858 11.25 10.25 11.5858 10.25 12H11ZM16.0996 10H16.8496C16.8496 9.58579 16.5138 9.25 16.0996 9.25V10ZM16.0996 10.1L16.0994 10.85C16.2984 10.85 16.4892 10.7711 16.6299 10.6304C16.7706 10.4897 16.8496 10.2989 16.8496 10.1H16.0996ZM16 10.1H15.25C15.25 10.5141 15.5857 10.8499 15.9998 10.85L16 10.1ZM16 10V9.25C15.5858 9.25 15.25 9.58579 15.25 10H16ZM15.0996 15H15.8496C15.8496 14.5858 15.5138 14.25 15.0996 14.25V15ZM15.0996 15.1L15.0994 15.85C15.2984 15.85 15.4892 15.7711 15.6299 15.6304C15.7706 15.4897 15.8496 15.2989 15.8496 15.1H15.0996ZM15 15.1H14.25C14.25 15.5141 14.5857 15.8499 14.9998 15.85L15 15.1ZM15 15V14.25C14.5858 14.25 14.25 14.5858 14.25 15H15ZM10.0996 17H10.8496C10.8496 16.5858 10.5138 16.25 10.0996 16.25V17ZM10.0996 17.1L10.0994 17.85C10.2984 17.85 10.4892 17.7711 10.6299 17.6304C10.7706 17.4897 10.8496 17.2989 10.8496 17.1H10.0996ZM10 17.1H9.25C9.25 17.5141 9.58567 17.8499 9.99981 17.85L10 17.1ZM10 17V16.25C9.58579 16.25 9.25 16.5858 9.25 17H10ZM11.2783 3.20417C11.3598 3.49209 11.4014 3.78977 11.4021 4.08893L12.9021 4.08552C12.9011 3.64941 12.8404 3.2155 12.7217 2.79583L11.2783 3.20417ZM11.4021 4.09273C11.4092 5.0614 10.9382 5.97196 10.1419 6.52703L10.9997 7.75757C12.201 6.92013 12.9128 5.54541 12.9021 4.08172L11.4021 4.09273ZM10.1443 6.52538C9.45022 7.00522 8.5614 7.10668 7.77643 6.79544L7.22357 8.18984C8.47428 8.68574 9.89064 8.52432 10.9973 7.75923L10.1443 6.52538ZM6.76169 7.62453C6.80011 7.83962 6.81968 8.05767 6.82019 8.27616L8.3202 8.27264C8.31948 7.9669 8.29208 7.66175 8.23831 7.36075L6.76169 7.62453ZM6.82022 8.28C6.82722 9.21682 6.407 10.1064 5.67774 10.6973L6.62206 11.8627C7.7054 10.985 8.33059 9.66255 8.32018 8.2688L6.82022 8.28ZM5.67537 10.6992C4.9882 11.2607 4.0664 11.4595 3.15562 11.2664L2.84438 12.7337C4.15696 13.0121 5.55257 12.7366 6.62443 11.8608L5.67537 10.6992ZM2.25 12.0025C2.26748 17.3724 6.61093 21.7674 12.0024 21.7499L11.9976 20.25C7.44799 20.2647 3.76482 16.5526 3.75 11.9976L2.25 12.0025ZM12.0024 21.7499C17.3813 21.7324 21.7674 17.3801 21.7499 11.9976L20.25 12.0024C20.2647 16.5448 16.5598 20.2351 11.9976 20.25L12.0024 21.7499ZM21.75 11.9992C21.744 6.62584 17.3831 2.2559 12.0008 2.25L11.9992 3.75C16.5534 3.75499 20.2449 7.45373 20.25 12.0008L21.75 11.9992ZM2.25195 7V7.002H3.75195V7H2.25195ZM3.01989 6.25221L3.01794 6.25217L2.98206 7.75174L2.98401 7.75179L3.01989 6.25221ZM3.75 7.00195V7H2.25V7.00195H3.75ZM3 7.75H3.00195V6.25H3V7.75ZM7.25195 3V3.002H8.75195V3H7.25195ZM8.01995 2.25222L8.01799 2.25217L7.98201 3.75174L7.98396 3.75178L8.01995 2.25222ZM8.75 3.00195V3H7.25V3.00195H8.75ZM8 3.75H8.00195V2.25H8V3.75ZM3.25195 3V3.002H4.75195V3H3.25195ZM4.01995 2.25222L4.01799 2.25217L3.98201 3.75174L3.98396 3.75178L4.01995 2.25222ZM4.75 3.00195V3H3.25V3.00195H4.75ZM4 3.75H4.00195V2.25H4V3.75ZM10.3496 12V12.1H11.8496V12H10.3496ZM11.0998 11.35H11.0002L10.9998 12.85H11.0994L11.0998 11.35ZM11.75 12.1V12H10.25V12.1H11.75ZM11 12.75H11.0996V11.25H11V12.75ZM15.3496 10V10.1H16.8496V10H15.3496ZM16.0998 9.35L16.0002 9.34998L15.9998 10.85H16.0994L16.0998 9.35ZM16.75 10.1V10H15.25V10.1H16.75ZM16 10.75H16.0996V9.25H16V10.75ZM14.3496 15V15.1H15.8496V15H14.3496ZM15.0998 14.35H15.0002L14.9998 15.85H15.0994L15.0998 14.35ZM15.75 15.1V15H14.25V15.1H15.75ZM15 15.75H15.0996V14.25H15V15.75ZM9.34961 17V17.1H10.8496V17H9.34961ZM10.0998 16.35H10.0002L9.99981 17.85H10.0994L10.0998 16.35ZM10.75 17.1V17H9.25V17.1H10.75ZM10 17.75H10.0996V16.25H10V17.75Z" fill="#EDD34A"/>
</svg>
