<?xml version="1.0" encoding="UTF-8"?>
<svg id="Layer_1" xmlns="http://www.w3.org/2000/svg" version="1.1" viewBox="0 0 24 24">
  <!-- Generator: Adobe Illustrator 29.1.0, SVG Export Plug-In . SVG Version: 2.1.0 Build 142)  -->
  <defs>
    <style>
      .st0 {
        fill: none;
        stroke: #a2aab5;
        stroke-linecap: round;
        stroke-linejoin: round;
        stroke-width: 1.5px;
      }
    </style>
  </defs>
  <path class="st0" d="M3.6,13.8c1.8,1.8,4.9,4.2,8.4,4.2s6.6-2.5,8.4-4.2h0c.5-.5.7-.7.9-1.2.1-.3.1-.9,0-1.2-.1-.5-.4-.7-.9-1.2h0c-1.8-1.8-4.9-4.2-8.4-4.2s-6.6,2.5-8.4,4.2c-.5.5-.7.7-.9,1.2-.1.3-.1.9,0,1.2.1.5.4.7.9,1.2h0Z"/>
  <circle class="st0" cx="12" cy="12" r="2.2"/>
</svg>