<svg width="20" height="20" viewBox="0 0 20 20" fill="none" xmlns="http://www.w3.org/2000/svg">
<path d="M6.66646 10.0009C6.66646 11.8418 8.15885 13.3342 9.9998 13.3342C11.8407 13.3342 13.3331 11.8418 13.3331 10.0009C13.3331 8.15995 11.8407 6.66757 9.9998 6.66757C8.15885 6.66757 6.66646 8.15995 6.66646 10.0009Z" stroke="#A2AAB5" stroke-width="1.5" stroke-linecap="round" stroke-linejoin="round"/>
<path d="M16.9583 7.43681L16.6531 7.26704C16.6057 7.24067 16.582 7.22744 16.5591 7.21373C16.3316 7.07741 16.1399 6.88872 15.9999 6.66338C15.9858 6.64071 15.972 6.61728 15.9449 6.57028C15.9178 6.52335 15.904 6.49956 15.8914 6.47602C15.7659 6.24159 15.6983 5.98054 15.6942 5.71463C15.6938 5.69064 15.6943 5.66609 15.695 5.62205L15.7011 5.25867C15.7108 4.68698 15.7155 4.40118 15.6355 4.14488C15.5647 3.91815 15.4464 3.70911 15.2882 3.53189C15.1098 3.3319 14.8623 3.18931 14.3686 2.90482L13.9546 2.66621C13.4605 2.38151 13.2134 2.23923 12.9511 2.18494C12.7191 2.13692 12.4795 2.13884 12.2483 2.19074C11.9876 2.24926 11.7439 2.39522 11.2571 2.68666L10.9586 2.86544C10.9119 2.89336 10.8883 2.90728 10.865 2.92027C10.6331 3.04921 10.3738 3.12095 10.1086 3.12946C10.0819 3.13032 10.0547 3.13032 10.0003 3.13032C9.94628 3.13032 9.91873 3.13032 9.89206 3.12946C9.6263 3.12091 9.36616 3.04885 9.1339 2.91938C9.11135 2.90681 9.08893 2.89335 9.04553 2.86729L8.74156 2.6848C8.25191 2.39085 8.00686 2.24373 7.74485 2.18494C7.5127 2.13286 7.27191 2.13111 7.03902 2.17976C6.77577 2.23474 6.52794 2.37855 6.0325 2.6661L5.62611 2.90197C5.13325 3.18802 4.88717 3.33098 4.70937 3.53111C4.55207 3.70816 4.43424 3.91671 4.36387 4.14285C4.28432 4.39846 4.28881 4.6834 4.2984 5.25318L4.30435 5.60706C4.30525 5.66065 4.30585 5.68747 4.30546 5.71382C4.30152 5.98028 4.23367 6.24188 4.10774 6.47673C4.09528 6.49996 4.08187 6.52319 4.05507 6.56958C4.02825 6.616 4.01486 6.63916 4.00095 6.66157C3.86035 6.88811 3.66745 7.07769 3.43844 7.21424C3.41579 7.22775 3.39254 7.24074 3.34563 7.26673L3.04433 7.4337C2.54309 7.71147 2.29241 7.85039 2.11008 8.04822C1.94877 8.22324 1.82663 8.43081 1.75224 8.65691C1.66827 8.91216 1.66892 9.19833 1.67022 9.76997L1.6713 10.2457C1.67258 10.8117 1.67323 11.0954 1.75725 11.3485C1.8318 11.5731 1.95334 11.7791 2.11374 11.9531C2.29486 12.1495 2.54343 12.2878 3.03985 12.564L3.34424 12.7333C3.39232 12.7601 3.41712 12.7739 3.44095 12.7882C3.66788 12.9249 3.8587 13.1137 3.9981 13.3389C4.01316 13.3632 4.02764 13.3885 4.05653 13.439C4.08509 13.4889 4.09953 13.5138 4.11273 13.5388C4.23496 13.7702 4.30101 14.0272 4.30547 14.2888C4.30595 14.3171 4.30551 14.3459 4.30454 14.4034L4.29878 14.7442C4.28914 15.3151 4.28432 15.6007 4.36428 15.8568C4.43507 16.0836 4.55365 16.2926 4.71181 16.4698C4.89058 16.6702 5.138 16.813 5.63344 17.0985L6.04486 17.3356C6.5389 17.6203 6.78629 17.7625 7.04857 17.8168C7.28061 17.8648 7.52016 17.8629 7.75136 17.811C8.01214 17.7524 8.25599 17.6064 8.74312 17.3147L9.04108 17.1363C9.08773 17.1084 9.1112 17.0945 9.13457 17.0815C9.36647 16.9526 9.62565 16.8808 9.89084 16.8723C9.91757 16.8714 9.94475 16.8714 9.99912 16.8714C10.0536 16.8714 10.0812 16.8714 10.108 16.8723C10.3738 16.8808 10.6335 16.9528 10.8658 17.0823C10.8892 17.0953 10.9126 17.1094 10.9594 17.1374L11.2561 17.3156C11.7469 17.6102 11.9928 17.7579 12.2551 17.8167C12.4872 17.8688 12.7276 17.8707 12.9605 17.822C13.2238 17.767 13.4717 17.6232 13.9672 17.3357L14.3736 17.0998C14.8664 16.8137 15.1126 16.6708 15.2904 16.4706C15.4477 16.2936 15.5655 16.085 15.6359 15.8589C15.7154 15.6033 15.7108 15.3184 15.7012 14.7486L15.695 14.3768C15.6943 14.3348 15.6939 14.3112 15.6942 14.288C15.6982 14.0216 15.7659 13.7599 15.8918 13.525C15.9043 13.5019 15.9178 13.4784 15.9445 13.4322C15.9713 13.3858 15.985 13.3625 15.9989 13.3401C16.1395 13.1136 16.3322 12.9241 16.5612 12.7876C16.5831 12.7745 16.6059 12.7619 16.6498 12.7376L16.9557 12.568C17.457 12.2902 17.7074 12.1514 17.8898 11.9535C18.0511 11.7785 18.173 11.571 18.2474 11.3449C18.3315 11.0893 18.3311 10.8027 18.3298 10.2296L18.3288 9.76114C18.3275 9.19183 18.3268 8.9071 18.2425 8.65325C18.1679 8.42866 18.0463 8.22257 17.8859 8.04861C17.7046 7.85197 17.4558 7.71358 16.9583 7.43681Z" stroke="#A2AAB5" stroke-width="1.5" stroke-linecap="round" stroke-linejoin="round"/>
</svg>
