<svg width="24" height="24" viewBox="0 0 24 24" fill="none" xmlns="http://www.w3.org/2000/svg">
<path d="M19 4H19.75C19.75 3.77954 19.653 3.57024 19.4848 3.42774C19.3166 3.28523 19.0942 3.22396 18.8767 3.2602L19 4ZM18.25 15.5556C18.25 15.9698 18.5858 16.3056 19 16.3056C19.4142 16.3056 19.75 15.9698 19.75 15.5556H18.25ZM9.08333 8.35938C9.08333 7.94516 8.74755 7.60938 8.33333 7.60938C7.91912 7.60938 7.58333 7.94516 7.58333 8.35938H9.08333ZM9.37678 4.84352C8.9682 4.91162 8.69219 5.29804 8.76029 5.70662C8.82838 6.1152 9.2148 6.39121 9.62338 6.32312L9.37678 4.84352ZM16.3333 12.1389C15.9191 12.1389 15.5833 12.4747 15.5833 12.8889C15.5833 13.3031 15.9191 13.6389 16.3333 13.6389V12.1389ZM14.7072 14.5404C14.927 14.1893 14.8206 13.7265 14.4695 13.5067C14.1184 13.2869 13.6557 13.3933 13.4358 13.7443L14.7072 14.5404ZM18.1727 18.4352C18.5216 18.212 18.6235 17.7482 18.4003 17.3993C18.1771 17.0504 17.7132 16.9485 17.3643 17.1717L18.1727 18.4352ZM4.53033 3.46967C4.23744 3.17678 3.76256 3.17678 3.46967 3.46967C3.17678 3.76256 3.17678 4.23744 3.46967 4.53033L4.53033 3.46967ZM19.4697 20.5303C19.7626 20.8232 20.2374 20.8232 20.5303 20.5303C20.8232 20.2374 20.8232 19.7626 20.5303 19.4697L19.4697 20.5303ZM18.25 4V15.5556H19.75V4H18.25ZM9.08333 17.3333V8.35938H7.58333V17.3333H9.08333ZM9.62338 6.32312L19.1233 4.7398L18.8767 3.2602L9.37678 4.84352L9.62338 6.32312ZM7.58333 17.3333C7.58333 18.3919 6.72521 19.25 5.66667 19.25V20.75C7.55364 20.75 9.08333 19.2203 9.08333 17.3333H7.58333ZM5.66667 19.25C4.60812 19.25 3.75 18.3919 3.75 17.3333H2.25C2.25 19.2203 3.77969 20.75 5.66667 20.75V19.25ZM3.75 17.3333C3.75 16.2748 4.60812 15.4167 5.66667 15.4167V13.9167C3.77969 13.9167 2.25 15.4464 2.25 17.3333H3.75ZM5.66667 15.4167C6.72521 15.4167 7.58333 16.2748 7.58333 17.3333H9.08333C9.08333 15.4464 7.55364 13.9167 5.66667 13.9167V15.4167ZM16.3333 17.4722C15.2748 17.4722 14.4167 16.6141 14.4167 15.5556H12.9167C12.9167 17.4425 14.4464 18.9722 16.3333 18.9722V17.4722ZM16.3333 13.6389C17.3919 13.6389 18.25 14.497 18.25 15.5556H19.75C19.75 13.6686 18.2203 12.1389 16.3333 12.1389V13.6389ZM14.4167 15.5556C14.4167 15.1813 14.5232 14.8343 14.7072 14.5404L13.4358 13.7443C13.1068 14.2699 12.9167 14.8917 12.9167 15.5556H14.4167ZM17.3643 17.1717C17.0671 17.3619 16.7142 17.4722 16.3333 17.4722V18.9722C17.0092 18.9722 17.6413 18.7752 18.1727 18.4352L17.3643 17.1717ZM3.46967 4.53033L19.4697 20.5303L20.5303 19.4697L4.53033 3.46967L3.46967 4.53033Z" fill="#E3E3E5"/>
</svg>
