<svg width="24" height="24" viewBox="0 0 24 24" fill="none" xmlns="http://www.w3.org/2000/svg">
<path d="M4.26274 14.2628C3.47071 13.4707 3.07469 13.0747 2.92632 12.618C2.7958 12.2164 2.7958 11.7837 2.92632 11.382C3.07469 10.9253 3.47071 10.5293 4.26274 9.73727L9.73733 4.26268C10.5294 3.47065 10.9254 3.07463 11.382 2.92626C11.7837 2.79574 12.2164 2.79574 12.6181 2.92626C13.0748 3.07463 13.4708 3.47065 14.2628 4.26268L19.7374 9.73727C20.5294 10.5293 20.9255 10.9253 21.0738 11.382C21.2043 11.7837 21.2043 12.2164 21.0738 12.618C20.9255 13.0747 20.5294 13.4707 19.7374 14.2628L14.2628 19.7373C13.4708 20.5294 13.0748 20.9254 12.6181 21.0738C12.2164 21.2043 11.7837 21.2043 11.382 21.0738C10.9254 20.9254 10.5294 20.5294 9.73733 19.7373L4.26274 14.2628Z" stroke="#E3E3E5" stroke-width="1.5" stroke-linecap="round" stroke-linejoin="round"/>
</svg>
