<svg width="24" height="24" viewBox="0 0 24 24" fill="none" xmlns="http://www.w3.org/2000/svg">
<path d="M3 6H10M10 6C10 7.10457 10.8954 8 12 8M10 6C10 4.89543 10.8954 4 12 4C13.1046 4 14 4.89543 14 6M14 6H21M14 6C14 7.10457 13.1046 8 12 8M3 14.5L5.5 8L8 14.5M16 14.5L18.5 8L21 14.5M3 21H12M21 21H12M12 8V21" stroke="#E3E3E5" stroke-width="1.5" stroke-linecap="round" stroke-linejoin="round"/>
<path d="M9 14.5H2C2 15.3333 2.7 17 5.5 17C8.3 17 9 15.3333 9 14.5Z" fill="#E3E3E5"/>
<path d="M22 14.5H15C15 15.3333 15.7 17 18.5 17C21.3 17 22 15.3333 22 14.5Z" fill="#E3E3E5"/>
</svg>
