<svg width="24" height="24" viewBox="0 0 24 24" fill="none" xmlns="http://www.w3.org/2000/svg">
<path d="M4 16.25C3.58579 16.25 3.25 16.5858 3.25 17C3.25 17.4142 3.58579 17.75 4 17.75V16.25ZM10 17.75C10.4142 17.75 10.75 17.4142 10.75 17C10.75 16.5858 10.4142 16.25 10 16.25V17.75ZM4 11.25C3.58579 11.25 3.25 11.5858 3.25 12C3.25 12.4142 3.58579 12.75 4 12.75V11.25ZM13 12.75C13.4142 12.75 13.75 12.4142 13.75 12C13.75 11.5858 13.4142 11.25 13 11.25V12.75ZM18.75 11C18.75 10.5858 18.4142 10.25 18 10.25C17.5858 10.25 17.25 10.5858 17.25 11H18.75ZM18 19L17.4697 19.5303C17.7626 19.8232 18.2374 19.8232 18.5303 19.5303L18 19ZM21.5303 16.5303C21.8232 16.2374 21.8232 15.7626 21.5303 15.4697C21.2374 15.1768 20.7626 15.1768 20.4697 15.4697L21.5303 16.5303ZM15.5303 15.4697C15.2374 15.1768 14.7626 15.1768 14.4697 15.4697C14.1768 15.7626 14.1768 16.2374 14.4697 16.5303L15.5303 15.4697ZM4 6.25C3.58579 6.25 3.25 6.58579 3.25 7C3.25 7.41421 3.58579 7.75 4 7.75V6.25ZM16 7.75C16.4142 7.75 16.75 7.41421 16.75 7C16.75 6.58579 16.4142 6.25 16 6.25V7.75ZM4 17.75H10V16.25H4V17.75ZM4 12.75H13V11.25H4V12.75ZM17.25 11V19H18.75V11H17.25ZM20.4697 15.4697L17.4697 18.4697L18.5303 19.5303L21.5303 16.5303L20.4697 15.4697ZM18.5303 18.4697L15.5303 15.4697L14.4697 16.5303L17.4697 19.5303L18.5303 18.4697ZM4 7.75H16V6.25H4V7.75Z" fill="#A2AAB5"/>
</svg>
