<svg width="16" height="16" viewBox="0 0 16 16" fill="none" xmlns="http://www.w3.org/2000/svg">
<path d="M6.66681 3.83366C6.94295 3.83366 7.16681 3.6098 7.16681 3.33366C7.16681 3.05752 6.94295 2.83366 6.66681 2.83366V3.83366ZM13.1667 9.33366C13.1667 9.05752 12.9428 8.83366 12.6667 8.83366C12.3905 8.83366 12.1667 9.05752 12.1667 9.33366H13.1667ZM11.9385 12.5216L11.7115 12.0761L11.9385 12.5216ZM12.5215 11.939L12.076 11.712L12.5215 11.939ZM3.47867 11.939L3.03316 12.166L3.03316 12.166L3.47867 11.939ZM4.06121 12.5216L4.2882 12.0761L4.2882 12.0761L4.06121 12.5216ZM4.06121 3.47898L4.2882 3.92449L4.06121 3.47898ZM3.47867 4.06169L3.92417 4.28868L3.47867 4.06169ZM12.8333 6.00033C12.8333 6.27647 13.0572 6.50033 13.3333 6.50033C13.6095 6.50033 13.8333 6.27647 13.8333 6.00033H12.8333ZM13.3333 2.66699H13.8333C13.8333 2.39085 13.6095 2.16699 13.3333 2.16699V2.66699ZM10 2.16699C9.72387 2.16699 9.50001 2.39085 9.50001 2.66699C9.50001 2.94313 9.72387 3.16699 10 3.16699V2.16699ZM8.31312 6.98011C8.11786 7.17537 8.11786 7.49195 8.31312 7.68721C8.50839 7.88247 8.82497 7.88247 9.02023 7.68721L8.31312 6.98011ZM6.66681 2.83366H5.46681V3.83366H6.66681V2.83366ZM2.83334 5.46696V10.5336H3.83334V5.46696H2.83334ZM5.46681 13.167H10.5335V12.167H5.46681V13.167ZM13.1667 10.5337V9.33366H12.1667V10.5337H13.1667ZM10.5335 13.167C10.8986 13.167 11.2024 13.1674 11.4498 13.1472C11.703 13.1265 11.9407 13.0817 12.1655 12.9672L11.7115 12.0761C11.6511 12.1069 11.5596 12.1348 11.3683 12.1505C11.1712 12.1666 10.9151 12.167 10.5335 12.167V13.167ZM12.1667 10.5337C12.1667 10.9153 12.1663 11.1715 12.1502 11.3688C12.1346 11.5602 12.1067 11.6517 12.076 11.712L12.967 12.166C13.0816 11.9411 13.1263 11.7033 13.1469 11.45C13.1671 11.2026 13.1667 10.8987 13.1667 10.5337H12.1667ZM12.1655 12.9672C12.5102 12.7915 12.7911 12.5112 12.967 12.166L12.076 11.712C11.9962 11.8686 11.8686 11.9961 11.7115 12.0761L12.1655 12.9672ZM2.83334 10.5336C2.83334 10.8987 2.83295 11.2027 2.85317 11.4501C2.87386 11.7034 2.9186 11.9412 3.03316 12.166L3.92417 11.712C3.89341 11.6516 3.86549 11.5601 3.84985 11.3687C3.83373 11.1714 3.83334 10.9152 3.83334 10.5336H2.83334ZM5.46681 12.167C5.0852 12.167 4.82898 12.1666 4.63165 12.1505C4.44013 12.1348 4.34856 12.1069 4.2882 12.0761L3.83421 12.9672C4.05908 13.0817 4.29693 13.1265 4.55022 13.1472C4.79771 13.1674 5.10168 13.167 5.46681 13.167V12.167ZM3.03316 12.166C3.20889 12.5109 3.48917 12.7913 3.83421 12.9672L4.2882 12.0761C4.13148 11.9963 4.0041 11.8689 3.92417 11.712L3.03316 12.166ZM5.46681 2.83366C5.10168 2.83366 4.79771 2.83327 4.55023 2.85348C4.29695 2.87417 4.05908 2.9189 3.83421 3.03348L4.2882 3.92449C4.34855 3.89374 4.44011 3.86581 4.63164 3.85016C4.82897 3.83405 5.08519 3.83366 5.46681 3.83366V2.83366ZM3.83334 5.46696C3.83334 5.08534 3.83373 4.82921 3.84985 4.63197C3.86549 4.44057 3.89341 4.34906 3.92417 4.28868L3.03316 3.83469C2.9186 4.05953 2.87386 4.29728 2.85317 4.55053C2.83295 4.79794 2.83334 5.10184 2.83334 5.46696H3.83334ZM3.83421 3.03348C3.48912 3.20931 3.20887 3.48986 3.03316 3.83469L3.92417 4.28868C4.00413 4.13175 4.13153 4.00432 4.2882 3.92449L3.83421 3.03348ZM13.8333 6.00033V2.66699H12.8333V6.00033H13.8333ZM13.3333 2.16699H10V3.16699H13.3333V2.16699ZM9.02023 7.68721L13.6869 3.02055L12.9798 2.31344L8.31312 6.98011L9.02023 7.68721Z" fill="#E3E3E5"/>
</svg>
