<svg width="24" height="24" viewBox="0 0 24 24" fill="none" xmlns="http://www.w3.org/2000/svg">
<path d="M9 8.14326H7C6.46957 8.14326 5.96086 8.35397 5.58579 8.72904C5.21071 9.10412 5 9.61282 5 10.1433V13.8573C5 14.3877 5.21071 14.8964 5.58579 15.2715C5.96086 15.6465 6.46957 15.8573 7 15.8573H9.9C10.0955 15.8573 10.2867 15.9147 10.45 16.0223L16.45 19.9783C16.6008 20.0775 16.7756 20.1342 16.9559 20.1421C17.1362 20.1501 17.3154 20.1091 17.4743 20.0235C17.6332 19.9379 17.766 19.8108 17.8585 19.6559C17.9511 19.5009 18 19.3238 18 19.1433V17.0002M12.2036 6.82205L16.45 4.02226C16.6008 3.92298 16.7756 3.86636 16.9559 3.85839C17.1362 3.85043 17.3154 3.89143 17.4743 3.97704C17.6332 4.06265 17.766 4.18968 17.8585 4.34465C17.9511 4.49962 18 4.67675 18 4.85726V13.0002" stroke="#A2AAB5" stroke-width="1.5" stroke-linecap="round"/>
<path d="M5.53033 3.46967C5.23744 3.17678 4.76256 3.17678 4.46967 3.46967C4.17678 3.76256 4.17678 4.23744 4.46967 4.53033L5.53033 3.46967ZM20.4697 20.5303C20.7626 20.8232 21.2374 20.8232 21.5303 20.5303C21.8232 20.2374 21.8232 19.7626 21.5303 19.4697L20.4697 20.5303ZM4.46967 4.53033L20.4697 20.5303L21.5303 19.4697L5.53033 3.46967L4.46967 4.53033Z" fill="#A2AAB5"/>
</svg>
