<svg width="16" height="16" viewBox="0 0 16 16" fill="none" xmlns="http://www.w3.org/2000/svg">
<path fill-rule="evenodd" clip-rule="evenodd" d="M5.99992 11.3333H9.99992Z" fill="#A2AAB5"/>
<path fill-rule="evenodd" clip-rule="evenodd" d="M5.99992 9.33333H9.99992Z" fill="#A2AAB5"/>
<path d="M5.99992 11.3333H9.99992M5.99992 9.33333H9.99992M12.6663 6H9.73299C9.35962 6 9.17313 5.99999 9.03052 5.92733C8.90508 5.86341 8.80316 5.76145 8.73925 5.63601C8.66659 5.4934 8.66659 5.3067 8.66659 4.93333V2M12.6666 11.8667V6.43599C12.6666 6.12699 12.6667 5.97248 12.6334 5.82621C12.6038 5.6965 12.5551 5.57192 12.4887 5.45666C12.4138 5.32668 12.3087 5.21331 12.0988 4.98657L9.96672 2.68392C9.73339 2.43192 9.61661 2.30592 9.47778 2.21562C9.35473 2.13558 9.21902 2.07643 9.07669 2.04052C8.91611 2 8.74473 2 8.4013 2H5.46672C4.71998 2 4.34633 2 4.06112 2.14532C3.81023 2.27316 3.60641 2.47714 3.47858 2.72803C3.33325 3.01324 3.33325 3.3866 3.33325 4.13334V11.8667C3.33325 12.6134 3.33325 12.9868 3.47858 13.272C3.60641 13.5229 3.81023 13.7268 4.06112 13.8547C4.34633 14 4.71998 14 5.46672 14H10.5334C11.2801 14 11.6532 14 11.9384 13.8547C12.1893 13.7268 12.3936 13.5229 12.5214 13.272C12.6667 12.9868 12.6666 12.6134 12.6666 11.8667Z" stroke="#A2AAB5" stroke-linecap="round" stroke-linejoin="round"/>
</svg>
