<svg width="16" height="17" viewBox="0 0 16 17" fill="none" xmlns="http://www.w3.org/2000/svg">
<path d="M2.66663 10.3667C2.66663 9.24656 2.66663 8.68651 2.88461 8.25869C3.07636 7.88236 3.38232 7.5764 3.75864 7.38465C3.99615 7.26364 4.27441 7.2098 4.66663 7.18586C4.98091 7.16667 5.36835 7.16667 5.86663 7.16667H10.1333C10.6316 7.16667 11.019 7.16667 11.3333 7.18586C11.7255 7.2098 12.0038 7.26364 12.2413 7.38465C12.6176 7.5764 12.9236 7.88236 13.1153 8.25869C13.3333 8.68651 13.3333 9.24656 13.3333 10.3667V11.3C13.3333 12.4201 13.3333 12.9802 13.1153 13.408C12.9236 13.7843 12.6176 14.0903 12.2413 14.282C11.8134 14.5 11.2534 14.5 10.1333 14.5H5.86663C4.74652 14.5 4.18647 14.5 3.75864 14.282C3.38232 14.0903 3.07636 13.7843 2.88461 13.408C2.66663 12.9802 2.66663 12.4201 2.66663 11.3V10.3667Z" fill="#39C3FF"/>
<path d="M4.66663 7.18586C4.98091 7.16667 5.36835 7.16667 5.86663 7.16667H10.1333C10.6316 7.16667 11.019 7.16667 11.3333 7.18586M4.66663 7.18586C4.27441 7.2098 3.99615 7.26364 3.75864 7.38465C3.38232 7.5764 3.07636 7.88236 2.88461 8.25869C2.66663 8.68651 2.66663 9.24656 2.66663 10.3667V11.3C2.66663 12.4201 2.66663 12.9802 2.88461 13.408C3.07636 13.7843 3.38232 14.0903 3.75864 14.282C4.18647 14.5 4.74652 14.5 5.86663 14.5H10.1333C11.2534 14.5 11.8134 14.5 12.2413 14.282C12.6176 14.0903 12.9236 13.7843 13.1153 13.408C13.3333 12.9802 13.3333 12.4201 13.3333 11.3V10.3667C13.3333 9.24656 13.3333 8.68651 13.1153 8.25869C12.9236 7.88236 12.6176 7.5764 12.2413 7.38465C12.0038 7.26364 11.7255 7.2098 11.3333 7.18586M4.66663 7.18586V5.83333C4.66663 3.99238 6.15901 2.5 7.99996 2.5C9.84091 2.5 11.3333 3.99238 11.3333 5.83333V7.18586" stroke="#39C3FF" stroke-linecap="round" stroke-linejoin="round"/>
</svg>
