<svg width="24" height="24" viewBox="0 0 24 24" fill="none" xmlns="http://www.w3.org/2000/svg">
<path d="M8.33333 17.3333V5.77778L19 4V15.5556M8.33333 17.3333C8.33333 18.8061 7.13943 20 5.66667 20C4.19391 20 3 18.8061 3 17.3333C3 15.8606 4.19391 14.6667 5.66667 14.6667C7.13943 14.6667 8.33333 15.8606 8.33333 17.3333ZM19 15.5556C19 17.0283 17.8061 18.2222 16.3333 18.2222C14.8606 18.2222 13.6667 17.0283 13.6667 15.5556C13.6667 14.0828 14.8606 12.8889 16.3333 12.8889C17.8061 12.8889 19 14.0828 19 15.5556Z" stroke="#E3E3E5" stroke-width="1.5" stroke-linecap="round" stroke-linejoin="round"/>
</svg>
