<svg width="24" height="24" viewBox="0 0 24 24" fill="none" xmlns="http://www.w3.org/2000/svg">
<path d="M3.99989 4L19.9999 20M16.4999 16.756C15.1473 17.4846 13.6185 18 11.9999 18C8.46924 18 5.36624 15.5479 3.5868 13.7789C3.1171 13.3119 2.88229 13.0785 2.7328 12.6202C2.62619 12.2933 2.62616 11.7064 2.7328 11.3796C2.88233 10.9213 3.11764 10.6874 3.58827 10.2196C4.48515 9.32815 5.71801 8.26353 7.17219 7.4267M19.4999 14.6336C19.8329 14.3407 20.138 14.0525 20.4117 13.7805C20.8824 13.3126 21.1175 13.0787 21.2671 12.6204C21.3737 12.2936 21.3741 11.7067 21.2675 11.3799C21.118 10.9216 20.883 10.6881 20.4133 10.2211C18.6338 8.45208 15.5305 6 11.9999 6C11.6624 6 11.3288 6.02241 10.9999 6.06448M13.3228 13.4999C12.9702 13.8111 12.5071 13.9999 11.9999 13.9999C10.8953 13.9999 9.99989 13.1045 9.99989 11.9999C9.99989 11.4604 10.2135 10.9708 10.5608 10.6111" stroke="#A2AAB5" stroke-width="1.5" stroke-linecap="round" stroke-linejoin="round"/>
</svg>
