<svg width="24" height="24" viewBox="0 0 24 24" fill="none" xmlns="http://www.w3.org/2000/svg">
<path d="M10 16H5V21M14 8H19V3M4.58301 9.00316C5.14369 7.61542 6.08244 6.41279 7.29255 5.53198C8.50266 4.65117 9.93602 4.12752 11.4289 4.02051C12.9218 3.9135 14.4146 4.2274 15.738 4.92661C17.0613 5.62582 18.1614 6.68228 18.9142 7.97587M19.4176 14.9968C18.8569 16.3846 17.9181 17.5872 16.708 18.468C15.4979 19.3488 14.0652 19.8725 12.5723 19.9795C11.0794 20.0865 9.58606 19.7726 8.2627 19.0734C6.93933 18.3742 5.83882 17.3178 5.08594 16.0242" stroke="#A2AAB5" stroke-width="1.5" stroke-linecap="round" stroke-linejoin="round"/>
</svg>
