<svg width="16" height="16" viewBox="0 0 16 16" fill="none" xmlns="http://www.w3.org/2000/svg">
<path d="M2 3.99984H6.66667M6.66667 3.99984C6.66667 4.73622 7.26362 5.33317 8 5.33317M6.66667 3.99984C6.66667 3.26346 7.26362 2.6665 8 2.6665C8.73638 2.6665 9.33333 3.26346 9.33333 3.99984M9.33333 3.99984H14M9.33333 3.99984C9.33333 4.73622 8.73638 5.33317 8 5.33317M2 9.6665L3.66667 5.33317L5.33333 9.6665M10.6667 9.6665L12.3333 5.33317L14 9.6665M2 13.9998H8M14 13.9998H8M8 5.33317V13.9998" stroke="#E3E3E5" stroke-linecap="round" stroke-linejoin="round"/>
<path d="M5.99992 9.6665H1.33325C1.33325 10.2221 1.79992 11.3332 3.66659 11.3332C5.53325 11.3332 5.99992 10.2221 5.99992 9.6665Z" fill="#E3E3E5"/>
<path d="M14.6666 9.6665H9.99992C9.99992 10.2221 10.4666 11.3332 12.3333 11.3332C14.1999 11.3332 14.6666 10.2221 14.6666 9.6665Z" fill="#E3E3E5"/>
</svg>
