<svg width="16" height="17" viewBox="0 0 16 17" fill="none" xmlns="http://www.w3.org/2000/svg">
<path d="M3.73307 13.7806L3.42073 13.3901H3.42072L3.73307 13.7806ZM2.14532 3.89502L2.59083 4.12201L2.14532 3.89502ZM2.72786 3.31232L2.95486 3.75782L2.72786 3.31232ZM2.66732 14.4466L2.66678 13.9466L2.66732 14.4466ZM2.14564 14.1958L2.53641 13.8839L2.14564 14.1958ZM5.53288 12.5275L5.6334 13.0173H5.6334L5.53288 12.5275ZM5.19448 12.6463L4.967 12.2011L5.19448 12.6463ZM13.8548 11.7723L13.4093 11.5453L13.8548 11.7723ZM13.2719 12.355L13.0449 11.9095L13.2719 12.355ZM7.66667 3.66699C7.94281 3.66699 8.16667 3.44313 8.16667 3.16699C8.16667 2.89085 7.94281 2.66699 7.66667 2.66699V3.66699ZM14.5 9.50033C14.5 9.22418 14.2761 9.00033 14 9.00033C13.7239 9.00033 13.5 9.22418 13.5 9.50033H14.5ZM13.5 6.50033C13.5 6.77647 13.7239 7.00033 14 7.00033C14.2761 7.00033 14.5 6.77647 14.5 6.50033H13.5ZM14 3.16699H14.5C14.5 2.89085 14.2761 2.66699 14 2.66699V3.16699ZM10.6667 2.66699C10.3905 2.66699 10.1667 2.89085 10.1667 3.16699C10.1667 3.44313 10.3905 3.66699 10.6667 3.66699V2.66699ZM8.97978 7.48011C8.78452 7.67537 8.78452 7.99195 8.97978 8.18721C9.17504 8.38247 9.49162 8.38247 9.68689 8.18721L8.97978 7.48011ZM11.8667 12.0003H6.08171V13.0003H11.8667V12.0003ZM4.4367 12.5773L3.42073 13.3901L4.04542 14.171L5.0614 13.3582L4.4367 12.5773ZM2.5 12.9476V5.30029H1.5V12.9476H2.5ZM2.5 5.30029C2.5 4.91867 2.50039 4.66254 2.5165 4.4653C2.53214 4.27391 2.56006 4.18239 2.59083 4.12201L1.69982 3.66802C1.58526 3.89286 1.54052 4.13062 1.51983 4.38387C1.49961 4.63128 1.5 4.93518 1.5 5.30029H2.5ZM4.13346 2.66699C3.76834 2.66699 3.46437 2.6666 3.21689 2.68682C2.9636 2.70751 2.72574 2.75224 2.50087 2.86681L2.95486 3.75782C3.0152 3.72707 3.10677 3.69914 3.2983 3.6835C3.49563 3.66738 3.75185 3.66699 4.13346 3.66699V2.66699ZM2.59083 4.12201C2.67079 3.96508 2.79819 3.83765 2.95486 3.75782L2.50087 2.86681C2.15578 3.04265 1.87552 3.32319 1.69982 3.66802L2.59083 4.12201ZM3.42072 13.3901C3.13556 13.6182 2.94838 13.7673 2.80397 13.8628C2.6518 13.9634 2.62879 13.9466 2.66678 13.9466L2.66786 14.9466C2.9393 14.9463 3.17177 14.8184 3.35543 14.697C3.54683 14.5705 3.7758 14.3867 4.04542 14.171L3.42072 13.3901ZM1.5 12.9476C1.5 13.2929 1.4995 13.5865 1.52025 13.815C1.54017 14.0342 1.58552 14.2956 1.75487 14.5077L2.53641 13.8839C2.56012 13.9136 2.53265 13.9061 2.51616 13.7245C2.5005 13.5521 2.5 13.3128 2.5 12.9476H1.5ZM2.66678 13.9466C2.61608 13.9466 2.56811 13.9236 2.53641 13.8839L1.75487 14.5077C1.97648 14.7854 2.3125 14.947 2.66786 14.9466L2.66678 13.9466ZM6.08171 12.0003C5.8244 12.0003 5.62624 11.998 5.43236 12.0378L5.6334 13.0173C5.70481 13.0027 5.7843 13.0003 6.08171 13.0003V12.0003ZM5.0614 13.3582C5.29355 13.1725 5.35702 13.1248 5.42195 13.0916L4.967 12.2011C4.79077 12.2911 4.6377 12.4165 4.4367 12.5773L5.0614 13.3582ZM5.43236 12.0378C5.27036 12.071 5.11394 12.126 4.967 12.2011L5.42195 13.0916C5.48898 13.0573 5.56002 13.0324 5.6334 13.0173L5.43236 12.0378ZM13.5 10.367C13.5 10.7486 13.4996 11.0048 13.4836 11.2021C13.4679 11.3936 13.44 11.485 13.4093 11.5453L14.3003 11.9993C14.4149 11.7744 14.4596 11.5366 14.4803 11.2834C14.5004 11.036 14.5 10.732 14.5 10.367H13.5ZM11.8667 13.0003C12.2318 13.0003 12.5357 13.0007 12.7831 12.9805C13.0363 12.9598 13.274 12.915 13.4989 12.8005L13.0449 11.9095C12.9845 11.9403 12.893 11.9682 12.7016 11.9838C12.5044 11.9999 12.2483 12.0003 11.8667 12.0003V13.0003ZM13.4093 11.5453C13.3296 11.7019 13.2019 11.8295 13.0449 11.9095L13.4989 12.8005C13.8436 12.6248 14.1244 12.3446 14.3003 11.9993L13.4093 11.5453ZM4.13346 3.66699H7.66667V2.66699H4.13346V3.66699ZM13.5 9.50033V10.367H14.5V9.50033H13.5ZM14.5 6.50033V3.16699H13.5V6.50033H14.5ZM14 2.66699H10.6667V3.66699H14V2.66699ZM9.68689 8.18721L14.3536 3.52055L13.6464 2.81344L8.97978 7.48011L9.68689 8.18721Z" fill="#E3E3E5"/>
</svg>
