<svg width="24" height="24" viewBox="0 0 24 24" fill="none" xmlns="http://www.w3.org/2000/svg">
<g opacity="0.6">
<path d="M10.3075 13.6922L15.1537 8.84607M20.1111 5.88855L16.0204 19.1831C15.6537 20.3749 15.4704 20.9708 15.1542 21.1684C14.8799 21.3398 14.54 21.3679 14.2413 21.244C13.8969 21.1011 13.6177 20.5434 13.0601 19.4281L10.4691 14.2462C10.3806 14.0692 10.3364 13.9807 10.2772 13.904C10.2248 13.836 10.164 13.7749 10.096 13.7225C10.0193 13.6634 9.93058 13.6191 9.75359 13.5306L4.57168 10.9397C3.45637 10.382 2.89867 10.1033 2.75576 9.75891C2.63182 9.46022 2.66009 9.11992 2.83145 8.84567C3.02903 8.52943 3.62499 8.34614 4.8168 7.97943L18.1114 3.88879C19.0483 3.6005 19.5167 3.45633 19.8332 3.57251C20.1088 3.67371 20.3263 3.89096 20.4275 4.16662C20.5437 4.48311 20.3993 4.95159 20.1111 5.88855Z" stroke="#A2AAB5" stroke-width="1.5" stroke-linecap="round" stroke-linejoin="round"/>
</g>
</svg>
