<svg width="16" height="16" viewBox="0 0 16 16" fill="none" xmlns="http://www.w3.org/2000/svg">
<path d="M8 0C3.58205 0 0 3.58205 0 8C0 12.4179 3.58205 16 8 16C12.4179 16 16 12.4179 16 8C16 3.58205 12.4179 0 8 0ZM11.5632 4.01966L12.1239 3.04957L12.5137 2.37521L13.065 2.92564C13.9607 3.81966 14.6051 4.93504 14.9291 6.15299L15.1291 6.90513H12.794L12.6598 6.49145C12.4462 5.83248 12.1026 5.23675 11.6368 4.72137L11.3453 4.39829L11.5632 4.02137V4.01966ZM6.13675 1.07521C6.74274 0.912821 7.36923 0.829915 8 0.829915C8.63077 0.829915 9.25727 0.911966 9.86325 1.07521L10.6162 1.27692L10.2265 1.95214L9.66581 2.92308L9.44872 3.29915L9.02393 3.20855C8.68718 3.13675 8.34274 3.10085 8.00086 3.10085C7.65897 3.10085 7.31453 3.13675 6.97778 3.20855L6.55299 3.29915L6.3359 2.92308L5.77521 1.95214L5.38547 1.27692L6.13846 1.07521H6.13675ZM4.4359 11.9803L3.87521 12.9504L3.48547 13.6248L2.93419 13.0744C2.03846 12.1803 1.39402 11.065 1.07009 9.84701L0.870086 9.09487H3.20513L3.33932 9.50855C3.55299 10.1675 3.89658 10.7632 4.36239 11.2786L4.65385 11.6017L4.4359 11.9786V11.9803ZM4.36239 4.71966C3.89744 5.23504 3.55299 5.83077 3.33932 6.48974L3.20513 6.90342H0.87094L1.07094 6.15128C1.39487 4.93419 2.03932 3.81795 2.93504 2.92393L3.48633 2.3735L3.87607 3.04786L4.43675 4.01795L4.6547 4.39487L4.36325 4.71795L4.36239 4.71966ZM9.86325 14.9248C9.25727 15.0872 8.63077 15.1701 8 15.1701C7.36923 15.1701 6.74274 15.088 6.13675 14.9248L5.38376 14.7231L5.7735 14.0479L6.33419 13.0769L6.55128 12.7009L6.97607 12.7915C7.31282 12.8632 7.65726 12.8991 7.99915 12.8991C8.34103 12.8991 8.68547 12.8632 9.02222 12.7915L9.44701 12.7009L9.6641 13.0769L10.2248 14.0479L10.6145 14.7231L9.86154 14.9248H9.86325ZM14.9291 9.84786C14.6051 11.065 13.9607 12.1812 13.065 13.0752L12.5137 13.6256L12.1239 12.9513L11.5632 11.9812L11.3453 11.6043L11.6368 11.2812C12.1017 10.7658 12.4462 10.1701 12.6598 9.51111L12.794 9.09744H15.1291L14.9291 9.84957V9.84786Z" fill="#DB2D59"/>
</svg>
