<svg width="16" height="16" viewBox="0 0 16 16" fill="none" xmlns="http://www.w3.org/2000/svg">
<path d="M8.28268 4.32222C8.48182 4.18462 8.67755 4.04188 8.87071 3.89231C9.92798 3.07436 10.8878 2.08205 11.7417 0.92735C10.6254 0.335897 9.35191 0 7.99977 0C7.10319 0 6.2408 0.147863 5.43652 0.419658C6.03909 1.11282 6.669 1.90342 7.29122 2.79487C7.6408 3.29573 7.97157 3.80598 8.28353 4.32308L8.28268 4.32222Z" fill="#A2AAB5"/>
<path d="M9.56923 9.15454C9.12991 7.95454 8.59231 6.78104 7.96154 5.64258C6.76154 6.35198 5.46496 6.88275 4.08974 7.22292C2.69658 7.56822 1.42906 7.66993 0.418803 7.66993C0.276068 7.66993 0.139316 7.66822 0.00769231 7.66395C0.0034188 7.77506 0 7.88617 0 7.99899C0 10.9768 1.6265 13.5742 4.04017 14.9511C4.75214 13.899 5.72906 12.6186 6.96325 11.3725C7.80342 10.5246 8.67436 9.7836 9.56838 9.15369L9.56923 9.15454Z" fill="#A2AAB5"/>
<path d="M3.90413 6.30176C5.17763 5.9821 6.37849 5.48894 7.49131 4.82996C7.18618 4.32313 6.8631 3.82398 6.52037 3.33338C5.84772 2.37013 5.16225 1.52484 4.51353 0.79834C2.2084 1.91543 0.521221 4.10774 0.101562 6.72313C1.10413 6.7462 2.43661 6.66928 3.90413 6.30176Z" fill="#A2AAB5"/>
<path d="M15.9881 7.57361C14.8454 7.7078 13.7206 8.01463 12.6232 8.49412C11.9719 8.77874 11.3283 9.12489 10.6958 9.52916C10.7573 9.71378 10.8172 9.89925 10.8744 10.0856C11.3667 11.6873 11.6941 13.3326 11.8556 15.0095C14.3257 13.648 15.9992 11.0189 15.9992 7.99925C15.9992 7.85651 15.9949 7.71463 15.9881 7.57275V7.57361Z" fill="#A2AAB5"/>
<path d="M9.42301 4.65387C9.20507 4.82224 8.98199 4.98293 8.75635 5.13763C9.38541 6.26754 9.92729 7.43164 10.3752 8.62224C10.9854 8.24361 11.6051 7.91455 12.2333 7.63934C13.4239 7.11711 14.6444 6.78378 15.8846 6.63848C15.5145 4.47951 14.2794 2.61626 12.5487 1.41797C11.6239 2.67951 10.5803 3.76327 9.42387 4.65387H9.42301Z" fill="#A2AAB5"/>
<path d="M9.88818 10.0839C9.12322 10.642 8.37536 11.2873 7.64972 12.0172C6.50357 13.1719 5.57963 14.3728 4.89502 15.3745C5.84972 15.777 6.89844 15.9992 8.00015 15.9992C9.04117 15.9992 10.036 15.8001 10.9489 15.4377C10.8061 13.7069 10.4831 12.0095 9.97707 10.3616C9.94887 10.2685 9.9181 10.1762 9.88818 10.083V10.0839Z" fill="#A2AAB5"/>
</svg>
