<svg width="24" height="24" viewBox="0 0 24 24" fill="none" xmlns="http://www.w3.org/2000/svg">
<mask id="path-1-inside-1_2767_15169" fill="white">
<path d="M12.0111 2C6.48274 2 2 6.47529 2 11.9944C2 15.0483 3.36818 17.769 5.52613 19.6013C5.79309 19.8345 6.0823 20.0455 6.38263 20.2454C6.416 20.2676 6.46049 20.2898 6.49386 20.3232C6.71633 20.4675 6.9388 20.6008 7.16127 20.734C7.21689 20.7674 7.28363 20.8007 7.33924 20.834C7.55059 20.945 7.77306 21.0561 7.99553 21.156C8.06227 21.1893 8.14013 21.2115 8.20687 21.2449C8.42934 21.3337 8.65181 21.4225 8.8854 21.4892C8.96326 21.5114 9.03 21.5447 9.10787 21.5669C9.34146 21.6335 9.58618 21.7002 9.83089 21.7557C9.89763 21.7668 9.9755 21.789 10.0422 21.8001C10.3092 21.8556 10.5762 21.889 10.8431 21.9223C10.8987 21.9223 10.9544 21.9334 11.01 21.9445C11.3326 21.9778 11.6551 22 11.9888 22C12.0445 22 12.1001 22 12.1557 22C12.4115 22 12.6785 21.9889 12.9343 21.9556C13.1234 21.9334 13.3014 21.9112 13.4794 21.8778C13.6017 21.8556 13.7241 21.8445 13.8464 21.8223C14.0689 21.7779 14.2803 21.7224 14.4916 21.6669C14.5695 21.6446 14.6362 21.6335 14.7141 21.6113C14.9588 21.5447 15.1924 21.467 15.4371 21.3781C15.4705 21.367 15.5038 21.3559 15.5372 21.3448C19.3081 19.9123 21.9999 16.281 21.9999 12.0056C22.0222 6.47529 17.5394 2 12.0111 2ZM17.3948 18.3465C16.0155 17.1138 14.1245 16.3365 12.0222 16.3365C9.91988 16.3365 8.00665 17.1138 6.63847 18.3576C4.82535 16.8251 3.66851 14.5486 3.66851 11.9944C3.66851 7.397 7.40598 3.66574 12.0111 3.66574C16.6162 3.66574 20.3537 7.397 20.3537 11.9944C20.3537 14.5375 19.2079 16.814 17.3948 18.3465Z"/>
<path d="M11.9888 14.5042C13.9485 14.5042 15.5372 12.9181 15.5372 10.9617C15.5372 9.00523 13.9485 7.41921 11.9888 7.41921C10.0291 7.41921 8.44046 9.00523 8.44046 10.9617C8.44046 12.9181 10.0291 14.5042 11.9888 14.5042Z"/>
</mask>
<path d="M12.0111 2C6.48274 2 2 6.47529 2 11.9944C2 15.0483 3.36818 17.769 5.52613 19.6013C5.79309 19.8345 6.0823 20.0455 6.38263 20.2454C6.416 20.2676 6.46049 20.2898 6.49386 20.3232C6.71633 20.4675 6.9388 20.6008 7.16127 20.734C7.21689 20.7674 7.28363 20.8007 7.33924 20.834C7.55059 20.945 7.77306 21.0561 7.99553 21.156C8.06227 21.1893 8.14013 21.2115 8.20687 21.2449C8.42934 21.3337 8.65181 21.4225 8.8854 21.4892C8.96326 21.5114 9.03 21.5447 9.10787 21.5669C9.34146 21.6335 9.58618 21.7002 9.83089 21.7557C9.89763 21.7668 9.9755 21.789 10.0422 21.8001C10.3092 21.8556 10.5762 21.889 10.8431 21.9223C10.8987 21.9223 10.9544 21.9334 11.01 21.9445C11.3326 21.9778 11.6551 22 11.9888 22C12.0445 22 12.1001 22 12.1557 22C12.4115 22 12.6785 21.9889 12.9343 21.9556C13.1234 21.9334 13.3014 21.9112 13.4794 21.8778C13.6017 21.8556 13.7241 21.8445 13.8464 21.8223C14.0689 21.7779 14.2803 21.7224 14.4916 21.6669C14.5695 21.6446 14.6362 21.6335 14.7141 21.6113C14.9588 21.5447 15.1924 21.467 15.4371 21.3781C15.4705 21.367 15.5038 21.3559 15.5372 21.3448C19.3081 19.9123 21.9999 16.281 21.9999 12.0056C22.0222 6.47529 17.5394 2 12.0111 2ZM17.3948 18.3465C16.0155 17.1138 14.1245 16.3365 12.0222 16.3365C9.91988 16.3365 8.00665 17.1138 6.63847 18.3576C4.82535 16.8251 3.66851 14.5486 3.66851 11.9944C3.66851 7.397 7.40598 3.66574 12.0111 3.66574C16.6162 3.66574 20.3537 7.397 20.3537 11.9944C20.3537 14.5375 19.2079 16.814 17.3948 18.3465Z" fill="#E3E3E5"/>
<path d="M11.9888 14.5042C13.9485 14.5042 15.5372 12.9181 15.5372 10.9617C15.5372 9.00523 13.9485 7.41921 11.9888 7.41921C10.0291 7.41921 8.44046 9.00523 8.44046 10.9617C8.44046 12.9181 10.0291 14.5042 11.9888 14.5042Z" fill="#E3E3E5"/>
<path d="M5.52613 19.6013L6.18407 18.8481L6.17338 18.8391L5.52613 19.6013ZM6.38263 20.2454L6.93669 19.4129L6.38263 20.2454ZM6.49386 20.3232L5.78734 21.0308L5.86155 21.1049L5.94951 21.162L6.49386 20.3232ZM7.16127 20.734L6.6474 21.5919L7.16127 20.734ZM7.33924 20.834L6.82538 21.6919L6.84936 21.7062L6.8741 21.7192L7.33924 20.834ZM7.99553 21.156L8.44214 20.2613L8.42391 20.2522L8.40532 20.2438L7.99553 21.156ZM8.20687 21.2449L7.76025 22.1396L7.79743 22.1581L7.83601 22.1736L8.20687 21.2449ZM8.8854 21.4892L9.1597 20.5275L8.8854 21.4892ZM9.10787 21.5669L8.83357 22.5286L9.10787 21.5669ZM9.83089 21.7557L9.60962 22.7309L9.63803 22.7373L9.66676 22.7421L9.83089 21.7557ZM10.0422 21.8001L10.2459 20.8211L10.2262 20.817L10.2064 20.8137L10.0422 21.8001ZM10.8431 21.9223L10.7193 22.9146L10.781 22.9223H10.8431V21.9223ZM11.01 21.9445L10.8142 22.9251L10.8604 22.9343L10.9072 22.9392L11.01 21.9445ZM12.9343 21.9556L12.8177 20.9623L12.8052 20.964L12.9343 21.9556ZM13.4794 21.8778L13.3008 20.8939L13.2954 20.8949L13.4794 21.8778ZM13.8464 21.8223L14.025 22.8062L14.0337 22.8047L14.0422 22.803L13.8464 21.8223ZM14.4916 21.6669L14.7457 22.634L14.7558 22.6314L14.7659 22.6285L14.4916 21.6669ZM14.7141 21.6113L14.4513 20.6464L14.4398 20.6497L14.7141 21.6113ZM15.4371 21.3781L15.1213 20.4293L15.1085 20.4335L15.0959 20.4381L15.4371 21.3781ZM15.5372 21.3448L15.853 22.2936L15.8728 22.287L15.8923 22.2796L15.5372 21.3448ZM21.9999 12.0056L20.9999 12.0015V12.0056H21.9999ZM17.3948 18.3465L16.7285 19.0921L17.3765 19.6713L18.0403 19.1102L17.3948 18.3465ZM6.63847 18.3576L5.99294 19.1213L6.66246 19.6872L7.31113 19.0975L6.63847 18.3576ZM12.0111 1C5.93202 1 1 5.92144 1 11.9944H3C3 7.02914 7.03346 3 12.0111 3V1ZM1 11.9944C1 15.3552 2.5075 18.3501 4.87887 20.3636L6.17338 18.8391C4.22886 17.188 3 14.7415 3 11.9944H1ZM4.86824 20.3545C5.17858 20.6255 5.50581 20.8631 5.82857 21.0779L6.93669 19.4129C6.65878 19.228 6.4076 19.0435 6.18401 18.8482L4.86824 20.3545ZM5.82857 21.0779C5.84309 21.0876 5.85592 21.0957 5.86552 21.1017C5.87494 21.1076 5.88351 21.1128 5.88858 21.1159C5.89495 21.1198 5.89678 21.1209 5.89916 21.1224C5.90089 21.1234 5.90018 21.123 5.89813 21.1217C5.89445 21.1194 5.88109 21.1107 5.86303 21.097C5.84481 21.0832 5.81786 21.0613 5.78734 21.0308L7.20038 19.6155C7.10938 19.5246 7.02081 19.4658 6.97836 19.4385C6.95679 19.4247 6.9356 19.4119 6.93021 19.4086C6.91979 19.4022 6.9265 19.4062 6.93669 19.4129L5.82857 21.0779ZM5.94951 21.162C6.18948 21.3177 6.42724 21.46 6.6474 21.5919L7.67514 19.8762C7.45036 19.7415 7.24319 19.6173 7.03821 19.4843L5.94951 21.162ZM6.6474 21.5919C6.69606 21.6211 6.74542 21.6478 6.77203 21.6622C6.80659 21.6811 6.81842 21.6877 6.82538 21.6919L7.85311 19.9761C7.80445 19.947 7.7551 19.9203 7.72848 19.9058C7.69392 19.887 7.68209 19.8803 7.67514 19.8762L6.6474 21.5919ZM6.8741 21.7192C7.09737 21.8365 7.33905 21.9574 7.58573 22.0682L8.40532 20.2438C8.20706 20.1548 8.00381 20.0535 7.80438 19.9487L6.8741 21.7192ZM7.54891 22.0507C7.59449 22.0735 7.63572 22.0913 7.66711 22.1042C7.69749 22.1167 7.72657 22.1278 7.74274 22.134C7.76272 22.1417 7.7698 22.1444 7.77487 22.1465C7.77894 22.1482 7.77247 22.1457 7.76025 22.1396L8.65349 20.3501C8.60791 20.3274 8.56667 20.3096 8.53529 20.2967C8.5049 20.2842 8.47583 20.2731 8.45966 20.2669C8.43968 20.2592 8.4326 20.2565 8.42753 20.2544C8.42346 20.2527 8.42993 20.2552 8.44214 20.2613L7.54891 22.0507ZM7.83601 22.1736C8.05101 22.2594 8.32037 22.3679 8.6111 22.4508L9.1597 20.5275C8.98325 20.4772 8.80766 20.408 8.57773 20.3162L7.83601 22.1736ZM8.6111 22.4508C8.60069 22.4478 8.59645 22.4456 8.63816 22.4616C8.66875 22.4733 8.74529 22.5034 8.83357 22.5286L9.38217 20.6053C9.39258 20.6082 9.39682 20.6105 9.35511 20.5945C9.32451 20.5828 9.24798 20.5527 9.1597 20.5275L8.6111 22.4508ZM8.83357 22.5286C9.07369 22.597 9.33864 22.6694 9.60962 22.7309L10.0522 20.7805C9.83371 20.7309 9.60924 20.67 9.38217 20.6053L8.83357 22.5286ZM9.66676 22.7421C9.66403 22.7417 9.66884 22.7424 9.71206 22.7524C9.74115 22.7591 9.80864 22.775 9.8781 22.7866L10.2064 20.8137C10.2091 20.8141 10.2043 20.8134 10.1611 20.8034C10.132 20.7967 10.0645 20.7808 9.99502 20.7693L9.66676 22.7421ZM9.83861 22.7792C10.1517 22.8443 10.4586 22.882 10.7193 22.9146L10.967 20.93C10.6937 20.8959 10.4667 20.867 10.2459 20.8211L9.83861 22.7792ZM10.8431 22.9223C10.8239 22.9223 10.8085 22.9213 10.7978 22.9204C10.7873 22.9195 10.7804 22.9185 10.7785 22.9182C10.7766 22.9179 10.7779 22.9181 10.7843 22.9192C10.7913 22.9206 10.7993 22.9221 10.8142 22.9251L11.2058 20.9638C11.1681 20.9563 11.0146 20.9223 10.8431 20.9223V22.9223ZM10.9072 22.9392C11.2522 22.9748 11.6107 23 11.9888 23V21C11.6995 21 11.4129 20.9808 11.1127 20.9498L10.9072 22.9392ZM11.9888 23C11.9889 23 11.9891 23 11.9892 23C11.9893 23 11.9894 23 11.9895 23C11.9896 23 11.9897 23 11.9898 23C11.9899 23 11.99 23 11.9901 23C11.9902 23 11.9904 23 11.9905 23C11.9906 23 11.9907 23 11.9908 23C11.9909 23 11.991 23 11.9911 23C11.9912 23 11.9913 23 11.9914 23C11.9916 23 11.9917 23 11.9918 23C11.9919 23 11.992 23 11.9921 23C11.9922 23 11.9923 23 11.9924 23C11.9925 23 11.9926 23 11.9927 23C11.9929 23 11.993 23 11.9931 23C11.9932 23 11.9933 23 11.9934 23C11.9935 23 11.9936 23 11.9937 23C11.9938 23 11.9939 23 11.994 23C11.9942 23 11.9943 23 11.9944 23C11.9945 23 11.9946 23 11.9947 23C11.9948 23 11.9949 23 11.995 23C11.9951 23 11.9952 23 11.9954 23C11.9955 23 11.9956 23 11.9957 23C11.9958 23 11.9959 23 11.996 23C11.9961 23 11.9962 23 11.9963 23C11.9964 23 11.9965 23 11.9967 23C11.9968 23 11.9969 23 11.997 23C11.9971 23 11.9972 23 11.9973 23C11.9974 23 11.9975 23 11.9976 23C11.9977 23 11.9979 23 11.998 23C11.9981 23 11.9982 23 11.9983 23C11.9984 23 11.9985 23 11.9986 23C11.9987 23 11.9988 23 11.9989 23C11.999 23 11.9992 23 11.9993 23C11.9994 23 11.9995 23 11.9996 23C11.9997 23 11.9998 23 11.9999 23C12 23 12.0001 23 12.0002 23C12.0003 23 12.0005 23 12.0006 23C12.0007 23 12.0008 23 12.0009 23C12.001 23 12.0011 23 12.0012 23C12.0013 23 12.0014 23 12.0015 23C12.0017 23 12.0018 23 12.0019 23C12.002 23 12.0021 23 12.0022 23C12.0023 23 12.0024 23 12.0025 23C12.0026 23 12.0027 23 12.0028 23C12.003 23 12.0031 23 12.0032 23C12.0033 23 12.0034 23 12.0035 23C12.0036 23 12.0037 23 12.0038 23C12.0039 23 12.004 23 12.0042 23C12.0043 23 12.0044 23 12.0045 23C12.0046 23 12.0047 23 12.0048 23C12.0049 23 12.005 23 12.0051 23C12.0052 23 12.0053 23 12.0055 23C12.0056 23 12.0057 23 12.0058 23C12.0059 23 12.006 23 12.0061 23C12.0062 23 12.0063 23 12.0064 23C12.0065 23 12.0066 23 12.0068 23C12.0069 23 12.007 23 12.0071 23C12.0072 23 12.0073 23 12.0074 23C12.0075 23 12.0076 23 12.0077 23C12.0078 23 12.008 23 12.0081 23C12.0082 23 12.0083 23 12.0084 23C12.0085 23 12.0086 23 12.0087 23C12.0088 23 12.0089 23 12.009 23C12.0091 23 12.0093 23 12.0094 23C12.0095 23 12.0096 23 12.0097 23C12.0098 23 12.0099 23 12.01 23C12.0101 23 12.0102 23 12.0103 23C12.0105 23 12.0106 23 12.0107 23C12.0108 23 12.0109 23 12.011 23C12.0111 23 12.0112 23 12.0113 23C12.0114 23 12.0115 23 12.0116 23C12.0118 23 12.0119 23 12.012 23C12.0121 23 12.0122 23 12.0123 23C12.0124 23 12.0125 23 12.0126 23C12.0127 23 12.0128 23 12.0129 23C12.0131 23 12.0132 23 12.0133 23C12.0134 23 12.0135 23 12.0136 23C12.0137 23 12.0138 23 12.0139 23C12.014 23 12.0141 23 12.0143 23C12.0144 23 12.0145 23 12.0146 23C12.0147 23 12.0148 23 12.0149 23C12.015 23 12.0151 23 12.0152 23C12.0153 23 12.0154 23 12.0156 23C12.0157 23 12.0158 23 12.0159 23C12.016 23 12.0161 23 12.0162 23C12.0163 23 12.0164 23 12.0165 23C12.0166 23 12.0168 23 12.0169 23C12.017 23 12.0171 23 12.0172 23C12.0173 23 12.0174 23 12.0175 23C12.0176 23 12.0177 23 12.0178 23C12.0179 23 12.0181 23 12.0182 23C12.0183 23 12.0184 23 12.0185 23C12.0186 23 12.0187 23 12.0188 23C12.0189 23 12.019 23 12.0191 23C12.0193 23 12.0194 23 12.0195 23C12.0196 23 12.0197 23 12.0198 23C12.0199 23 12.02 23 12.0201 23C12.0202 23 12.0203 23 12.0204 23C12.0206 23 12.0207 23 12.0208 23C12.0209 23 12.021 23 12.0211 23C12.0212 23 12.0213 23 12.0214 23C12.0215 23 12.0216 23 12.0217 23C12.0219 23 12.022 23 12.0221 23C12.0222 23 12.0223 23 12.0224 23C12.0225 23 12.0226 23 12.0227 23C12.0228 23 12.0229 23 12.0231 23C12.0232 23 12.0233 23 12.0234 23C12.0235 23 12.0236 23 12.0237 23C12.0238 23 12.0239 23 12.024 23C12.0241 23 12.0242 23 12.0244 23C12.0245 23 12.0246 23 12.0247 23C12.0248 23 12.0249 23 12.025 23C12.0251 23 12.0252 23 12.0253 23C12.0254 23 12.0256 23 12.0257 23C12.0258 23 12.0259 23 12.026 23C12.0261 23 12.0262 23 12.0263 23C12.0264 23 12.0265 23 12.0266 23C12.0267 23 12.0269 23 12.027 23C12.0271 23 12.0272 23 12.0273 23C12.0274 23 12.0275 23 12.0276 23C12.0277 23 12.0278 23 12.0279 23C12.028 23 12.0282 23 12.0283 23C12.0284 23 12.0285 23 12.0286 23C12.0287 23 12.0288 23 12.0289 23C12.029 23 12.0291 23 12.0292 23C12.0294 23 12.0295 23 12.0296 23C12.0297 23 12.0298 23 12.0299 23C12.03 23 12.0301 23 12.0302 23C12.0303 23 12.0304 23 12.0305 23C12.0307 23 12.0308 23 12.0309 23C12.031 23 12.0311 23 12.0312 23C12.0313 23 12.0314 23 12.0315 23C12.0316 23 12.0317 23 12.0319 23C12.032 23 12.0321 23 12.0322 23C12.0323 23 12.0324 23 12.0325 23C12.0326 23 12.0327 23 12.0328 23C12.0329 23 12.033 23 12.0332 23C12.0333 23 12.0334 23 12.0335 23C12.0336 23 12.0337 23 12.0338 23C12.0339 23 12.034 23 12.0341 23C12.0342 23 12.0344 23 12.0345 23C12.0346 23 12.0347 23 12.0348 23C12.0349 23 12.035 23 12.0351 23C12.0352 23 12.0353 23 12.0354 23C12.0355 23 12.0357 23 12.0358 23C12.0359 23 12.036 23 12.0361 23C12.0362 23 12.0363 23 12.0364 23C12.0365 23 12.0366 23 12.0367 23C12.0368 23 12.037 23 12.0371 23C12.0372 23 12.0373 23 12.0374 23C12.0375 23 12.0376 23 12.0377 23C12.0378 23 12.0379 23 12.038 23C12.0382 23 12.0383 23 12.0384 23C12.0385 23 12.0386 23 12.0387 23C12.0388 23 12.0389 23 12.039 23C12.0391 23 12.0392 23 12.0393 23C12.0395 23 12.0396 23 12.0397 23C12.0398 23 12.0399 23 12.04 23C12.0401 23 12.0402 23 12.0403 23C12.0404 23 12.0405 23 12.0407 23C12.0408 23 12.0409 23 12.041 23C12.0411 23 12.0412 23 12.0413 23C12.0414 23 12.0415 23 12.0416 23C12.0417 23 12.0418 23 12.042 23C12.0421 23 12.0422 23 12.0423 23C12.0424 23 12.0425 23 12.0426 23C12.0427 23 12.0428 23 12.0429 23C12.043 23 12.0431 23 12.0433 23C12.0434 23 12.0435 23 12.0436 23C12.0437 23 12.0438 23 12.0439 23C12.044 23 12.0441 23 12.0442 23C12.0443 23 12.0445 23 12.0446 23C12.0447 23 12.0448 23 12.0449 23C12.045 23 12.0451 23 12.0452 23C12.0453 23 12.0454 23 12.0455 23C12.0456 23 12.0458 23 12.0459 23C12.046 23 12.0461 23 12.0462 23C12.0463 23 12.0464 23 12.0465 23C12.0466 23 12.0467 23 12.0468 23C12.047 23 12.0471 23 12.0472 23C12.0473 23 12.0474 23 12.0475 23C12.0476 23 12.0477 23 12.0478 23C12.0479 23 12.048 23 12.0481 23C12.0483 23 12.0484 23 12.0485 23C12.0486 23 12.0487 23 12.0488 23C12.0489 23 12.049 23 12.0491 23C12.0492 23 12.0493 23 12.0494 23C12.0496 23 12.0497 23 12.0498 23C12.0499 23 12.05 23 12.0501 23C12.0502 23 12.0503 23 12.0504 23C12.0505 23 12.0506 23 12.0508 23C12.0509 23 12.051 23 12.0511 23C12.0512 23 12.0513 23 12.0514 23C12.0515 23 12.0516 23 12.0517 23C12.0518 23 12.0519 23 12.0521 23C12.0522 23 12.0523 23 12.0524 23C12.0525 23 12.0526 23 12.0527 23C12.0528 23 12.0529 23 12.053 23C12.0531 23 12.0533 23 12.0534 23C12.0535 23 12.0536 23 12.0537 23C12.0538 23 12.0539 23 12.054 23C12.0541 23 12.0542 23 12.0543 23C12.0544 23 12.0546 23 12.0547 23C12.0548 23 12.0549 23 12.055 23C12.0551 23 12.0552 23 12.0553 23C12.0554 23 12.0555 23 12.0556 23C12.0557 23 12.0559 23 12.056 23C12.0561 23 12.0562 23 12.0563 23C12.0564 23 12.0565 23 12.0566 23C12.0567 23 12.0568 23 12.0569 23C12.0571 23 12.0572 23 12.0573 23C12.0574 23 12.0575 23 12.0576 23C12.0577 23 12.0578 23 12.0579 23C12.058 23 12.0581 23 12.0582 23C12.0584 23 12.0585 23 12.0586 23C12.0587 23 12.0588 23 12.0589 23C12.059 23 12.0591 23 12.0592 23C12.0593 23 12.0594 23 12.0596 23C12.0597 23 12.0598 23 12.0599 23C12.06 23 12.0601 23 12.0602 23C12.0603 23 12.0604 23 12.0605 23C12.0606 23 12.0607 23 12.0609 23C12.061 23 12.0611 23 12.0612 23C12.0613 23 12.0614 23 12.0615 23C12.0616 23 12.0617 23 12.0618 23C12.0619 23 12.062 23 12.0622 23C12.0623 23 12.0624 23 12.0625 23C12.0626 23 12.0627 23 12.0628 23C12.0629 23 12.063 23 12.0631 23C12.0632 23 12.0634 23 12.0635 23C12.0636 23 12.0637 23 12.0638 23C12.0639 23 12.064 23 12.0641 23C12.0642 23 12.0643 23 12.0644 23C12.0645 23 12.0647 23 12.0648 23C12.0649 23 12.065 23 12.0651 23C12.0652 23 12.0653 23 12.0654 23C12.0655 23 12.0656 23 12.0657 23C12.0659 23 12.066 23 12.0661 23C12.0662 23 12.0663 23 12.0664 23C12.0665 23 12.0666 23 12.0667 23C12.0668 23 12.0669 23 12.067 23C12.0672 23 12.0673 23 12.0674 23C12.0675 23 12.0676 23 12.0677 23C12.0678 23 12.0679 23 12.068 23C12.0681 23 12.0682 23 12.0684 23C12.0685 23 12.0686 23 12.0687 23C12.0688 23 12.0689 23 12.069 23C12.0691 23 12.0692 23 12.0693 23C12.0694 23 12.0695 23 12.0697 23C12.0698 23 12.0699 23 12.07 23C12.0701 23 12.0702 23 12.0703 23C12.0704 23 12.0705 23 12.0706 23C12.0707 23 12.0708 23 12.071 23C12.0711 23 12.0712 23 12.0713 23C12.0714 23 12.0715 23 12.0716 23C12.0717 23 12.0718 23 12.0719 23C12.072 23 12.0722 23 12.0723 23C12.0724 23 12.0725 23 12.0726 23C12.0727 23 12.0728 23 12.0729 23C12.073 23 12.0731 23 12.0732 23C12.0733 23 12.0735 23 12.0736 23C12.0737 23 12.0738 23 12.0739 23C12.074 23 12.0741 23 12.0742 23C12.0743 23 12.0744 23 12.0745 23C12.0747 23 12.0748 23 12.0749 23C12.075 23 12.0751 23 12.0752 23C12.0753 23 12.0754 23 12.0755 23C12.0756 23 12.0757 23 12.0758 23C12.076 23 12.0761 23 12.0762 23C12.0763 23 12.0764 23 12.0765 23C12.0766 23 12.0767 23 12.0768 23C12.0769 23 12.077 23 12.0771 23C12.0773 23 12.0774 23 12.0775 23C12.0776 23 12.0777 23 12.0778 23C12.0779 23 12.078 23 12.0781 23C12.0782 23 12.0783 23 12.0785 23C12.0786 23 12.0787 23 12.0788 23C12.0789 23 12.079 23 12.0791 23C12.0792 23 12.0793 23 12.0794 23C12.0795 23 12.0796 23 12.0798 23C12.0799 23 12.08 23 12.0801 23C12.0802 23 12.0803 23 12.0804 23C12.0805 23 12.0806 23 12.0807 23C12.0808 23 12.081 23 12.0811 23C12.0812 23 12.0813 23 12.0814 23C12.0815 23 12.0816 23 12.0817 23C12.0818 23 12.0819 23 12.082 23C12.0821 23 12.0823 23 12.0824 23C12.0825 23 12.0826 23 12.0827 23C12.0828 23 12.0829 23 12.083 23C12.0831 23 12.0832 23 12.0833 23C12.0834 23 12.0836 23 12.0837 23C12.0838 23 12.0839 23 12.084 23C12.0841 23 12.0842 23 12.0843 23C12.0844 23 12.0845 23 12.0846 23C12.0848 23 12.0849 23 12.085 23C12.0851 23 12.0852 23 12.0853 23C12.0854 23 12.0855 23 12.0856 23C12.0857 23 12.0858 23 12.0859 23C12.0861 23 12.0862 23 12.0863 23C12.0864 23 12.0865 23 12.0866 23C12.0867 23 12.0868 23 12.0869 23C12.087 23 12.0871 23 12.0873 23C12.0874 23 12.0875 23 12.0876 23C12.0877 23 12.0878 23 12.0879 23C12.088 23 12.0881 23 12.0882 23C12.0883 23 12.0884 23 12.0886 23C12.0887 23 12.0888 23 12.0889 23C12.089 23 12.0891 23 12.0892 23C12.0893 23 12.0894 23 12.0895 23C12.0896 23 12.0898 23 12.0899 23C12.09 23 12.0901 23 12.0902 23C12.0903 23 12.0904 23 12.0905 23C12.0906 23 12.0907 23 12.0908 23C12.0909 23 12.0911 23 12.0912 23C12.0913 23 12.0914 23 12.0915 23C12.0916 23 12.0917 23 12.0918 23C12.0919 23 12.092 23 12.0921 23C12.0922 23 12.0924 23 12.0925 23C12.0926 23 12.0927 23 12.0928 23C12.0929 23 12.093 23 12.0931 23C12.0932 23 12.0933 23 12.0934 23C12.0936 23 12.0937 23 12.0938 23C12.0939 23 12.094 23 12.0941 23C12.0942 23 12.0943 23 12.0944 23C12.0945 23 12.0946 23 12.0947 23C12.0949 23 12.095 23 12.0951 23C12.0952 23 12.0953 23 12.0954 23C12.0955 23 12.0956 23 12.0957 23C12.0958 23 12.0959 23 12.0961 23C12.0962 23 12.0963 23 12.0964 23C12.0965 23 12.0966 23 12.0967 23C12.0968 23 12.0969 23 12.097 23C12.0971 23 12.0972 23 12.0974 23C12.0975 23 12.0976 23 12.0977 23C12.0978 23 12.0979 23 12.098 23C12.0981 23 12.0982 23 12.0983 23C12.0984 23 12.0985 23 12.0987 23C12.0988 23 12.0989 23 12.099 23C12.0991 23 12.0992 23 12.0993 23C12.0994 23 12.0995 23 12.0996 23C12.0997 23 12.0999 23 12.1 23C12.1001 23 12.1002 23 12.1003 23C12.1004 23 12.1005 23 12.1006 23C12.1007 23 12.1008 23 12.1009 23C12.101 23 12.1012 23 12.1013 23C12.1014 23 12.1015 23 12.1016 23C12.1017 23 12.1018 23 12.1019 23C12.102 23 12.1021 23 12.1022 23C12.1024 23 12.1025 23 12.1026 23C12.1027 23 12.1028 23 12.1029 23C12.103 23 12.1031 23 12.1032 23C12.1033 23 12.1034 23 12.1035 23C12.1037 23 12.1038 23 12.1039 23C12.104 23 12.1041 23 12.1042 23C12.1043 23 12.1044 23 12.1045 23C12.1046 23 12.1047 23 12.1048 23C12.105 23 12.1051 23 12.1052 23C12.1053 23 12.1054 23 12.1055 23C12.1056 23 12.1057 23 12.1058 23C12.1059 23 12.106 23 12.1062 23C12.1063 23 12.1064 23 12.1065 23C12.1066 23 12.1067 23 12.1068 23C12.1069 23 12.107 23 12.1071 23C12.1072 23 12.1073 23 12.1075 23C12.1076 23 12.1077 23 12.1078 23C12.1079 23 12.108 23 12.1081 23C12.1082 23 12.1083 23 12.1084 23C12.1085 23 12.1087 23 12.1088 23C12.1089 23 12.109 23 12.1091 23C12.1092 23 12.1093 23 12.1094 23C12.1095 23 12.1096 23 12.1097 23C12.1098 23 12.11 23 12.1101 23C12.1102 23 12.1103 23 12.1104 23C12.1105 23 12.1106 23 12.1107 23C12.1108 23 12.1109 23 12.111 23C12.1111 23 12.1113 23 12.1114 23C12.1115 23 12.1116 23 12.1117 23C12.1118 23 12.1119 23 12.112 23C12.1121 23 12.1122 23 12.1123 23C12.1125 23 12.1126 23 12.1127 23C12.1128 23 12.1129 23 12.113 23C12.1131 23 12.1132 23 12.1133 23C12.1134 23 12.1135 23 12.1136 23C12.1138 23 12.1139 23 12.114 23C12.1141 23 12.1142 23 12.1143 23C12.1144 23 12.1145 23 12.1146 23C12.1147 23 12.1148 23 12.115 23C12.1151 23 12.1152 23 12.1153 23C12.1154 23 12.1155 23 12.1156 23C12.1157 23 12.1158 23 12.1159 23C12.116 23 12.1161 23 12.1163 23C12.1164 23 12.1165 23 12.1166 23C12.1167 23 12.1168 23 12.1169 23C12.117 23 12.1171 23 12.1172 23C12.1173 23 12.1175 23 12.1176 23C12.1177 23 12.1178 23 12.1179 23C12.118 23 12.1181 23 12.1182 23C12.1183 23 12.1184 23 12.1185 23C12.1186 23 12.1188 23 12.1189 23C12.119 23 12.1191 23 12.1192 23C12.1193 23 12.1194 23 12.1195 23C12.1196 23 12.1197 23 12.1198 23C12.1199 23 12.1201 23 12.1202 23C12.1203 23 12.1204 23 12.1205 23C12.1206 23 12.1207 23 12.1208 23C12.1209 23 12.121 23 12.1211 23C12.1213 23 12.1214 23 12.1215 23C12.1216 23 12.1217 23 12.1218 23C12.1219 23 12.122 23 12.1221 23C12.1222 23 12.1223 23 12.1224 23C12.1226 23 12.1227 23 12.1228 23C12.1229 23 12.123 23 12.1231 23C12.1232 23 12.1233 23 12.1234 23C12.1235 23 12.1236 23 12.1238 23C12.1239 23 12.124 23 12.1241 23C12.1242 23 12.1243 23 12.1244 23C12.1245 23 12.1246 23 12.1247 23C12.1248 23 12.1249 23 12.1251 23C12.1252 23 12.1253 23 12.1254 23C12.1255 23 12.1256 23 12.1257 23C12.1258 23 12.1259 23 12.126 23C12.1261 23 12.1262 23 12.1264 23C12.1265 23 12.1266 23 12.1267 23C12.1268 23 12.1269 23 12.127 23C12.1271 23 12.1272 23 12.1273 23C12.1274 23 12.1276 23 12.1277 23C12.1278 23 12.1279 23 12.128 23C12.1281 23 12.1282 23 12.1283 23C12.1284 23 12.1285 23 12.1286 23C12.1287 23 12.1289 23 12.129 23C12.1291 23 12.1292 23 12.1293 23C12.1294 23 12.1295 23 12.1296 23C12.1297 23 12.1298 23 12.1299 23C12.1301 23 12.1302 23 12.1303 23C12.1304 23 12.1305 23 12.1306 23C12.1307 23 12.1308 23 12.1309 23C12.131 23 12.1311 23 12.1312 23C12.1314 23 12.1315 23 12.1316 23C12.1317 23 12.1318 23 12.1319 23C12.132 23 12.1321 23 12.1322 23C12.1323 23 12.1324 23 12.1325 23C12.1327 23 12.1328 23 12.1329 23C12.133 23 12.1331 23 12.1332 23C12.1333 23 12.1334 23 12.1335 23C12.1336 23 12.1337 23 12.1339 23C12.134 23 12.1341 23 12.1342 23C12.1343 23 12.1344 23 12.1345 23C12.1346 23 12.1347 23 12.1348 23C12.1349 23 12.135 23 12.1352 23C12.1353 23 12.1354 23 12.1355 23C12.1356 23 12.1357 23 12.1358 23C12.1359 23 12.136 23 12.1361 23C12.1362 23 12.1364 23 12.1365 23C12.1366 23 12.1367 23 12.1368 23C12.1369 23 12.137 23 12.1371 23C12.1372 23 12.1373 23 12.1374 23C12.1375 23 12.1377 23 12.1378 23C12.1379 23 12.138 23 12.1381 23C12.1382 23 12.1383 23 12.1384 23C12.1385 23 12.1386 23 12.1387 23C12.1389 23 12.139 23 12.1391 23C12.1392 23 12.1393 23 12.1394 23C12.1395 23 12.1396 23 12.1397 23C12.1398 23 12.1399 23 12.14 23C12.1402 23 12.1403 23 12.1404 23C12.1405 23 12.1406 23 12.1407 23C12.1408 23 12.1409 23 12.141 23C12.1411 23 12.1412 23 12.1413 23C12.1415 23 12.1416 23 12.1417 23C12.1418 23 12.1419 23 12.142 23C12.1421 23 12.1422 23 12.1423 23C12.1424 23 12.1425 23 12.1427 23C12.1428 23 12.1429 23 12.143 23C12.1431 23 12.1432 23 12.1433 23C12.1434 23 12.1435 23 12.1436 23C12.1437 23 12.1438 23 12.144 23C12.1441 23 12.1442 23 12.1443 23C12.1444 23 12.1445 23 12.1446 23C12.1447 23 12.1448 23 12.1449 23C12.145 23 12.1452 23 12.1453 23C12.1454 23 12.1455 23 12.1456 23C12.1457 23 12.1458 23 12.1459 23C12.146 23 12.1461 23 12.1462 23C12.1463 23 12.1465 23 12.1466 23C12.1467 23 12.1468 23 12.1469 23C12.147 23 12.1471 23 12.1472 23C12.1473 23 12.1474 23 12.1475 23C12.1476 23 12.1478 23 12.1479 23C12.148 23 12.1481 23 12.1482 23C12.1483 23 12.1484 23 12.1485 23C12.1486 23 12.1487 23 12.1488 23C12.149 23 12.1491 23 12.1492 23C12.1493 23 12.1494 23 12.1495 23C12.1496 23 12.1497 23 12.1498 23C12.1499 23 12.15 23 12.1501 23C12.1503 23 12.1504 23 12.1505 23C12.1506 23 12.1507 23 12.1508 23C12.1509 23 12.151 23 12.1511 23C12.1512 23 12.1513 23 12.1515 23C12.1516 23 12.1517 23 12.1518 23C12.1519 23 12.152 23 12.1521 23C12.1522 23 12.1523 23 12.1524 23C12.1525 23 12.1526 23 12.1528 23C12.1529 23 12.153 23 12.1531 23C12.1532 23 12.1533 23 12.1534 23C12.1535 23 12.1536 23 12.1537 23C12.1538 23 12.1539 23 12.1541 23C12.1542 23 12.1543 23 12.1544 23C12.1545 23 12.1546 23 12.1547 23C12.1548 23 12.1549 23 12.155 23C12.1551 23 12.1553 23 12.1554 23C12.1555 23 12.1556 23 12.1557 23V21C12.1556 21 12.1555 21 12.1554 21C12.1553 21 12.1551 21 12.155 21C12.1549 21 12.1548 21 12.1547 21C12.1546 21 12.1545 21 12.1544 21C12.1543 21 12.1542 21 12.1541 21C12.1539 21 12.1538 21 12.1537 21C12.1536 21 12.1535 21 12.1534 21C12.1533 21 12.1532 21 12.1531 21C12.153 21 12.1529 21 12.1528 21C12.1526 21 12.1525 21 12.1524 21C12.1523 21 12.1522 21 12.1521 21C12.152 21 12.1519 21 12.1518 21C12.1517 21 12.1516 21 12.1515 21C12.1513 21 12.1512 21 12.1511 21C12.151 21 12.1509 21 12.1508 21C12.1507 21 12.1506 21 12.1505 21C12.1504 21 12.1503 21 12.1501 21C12.15 21 12.1499 21 12.1498 21C12.1497 21 12.1496 21 12.1495 21C12.1494 21 12.1493 21 12.1492 21C12.1491 21 12.149 21 12.1488 21C12.1487 21 12.1486 21 12.1485 21C12.1484 21 12.1483 21 12.1482 21C12.1481 21 12.148 21 12.1479 21C12.1478 21 12.1476 21 12.1475 21C12.1474 21 12.1473 21 12.1472 21C12.1471 21 12.147 21 12.1469 21C12.1468 21 12.1467 21 12.1466 21C12.1465 21 12.1463 21 12.1462 21C12.1461 21 12.146 21 12.1459 21C12.1458 21 12.1457 21 12.1456 21C12.1455 21 12.1454 21 12.1453 21C12.1452 21 12.145 21 12.1449 21C12.1448 21 12.1447 21 12.1446 21C12.1445 21 12.1444 21 12.1443 21C12.1442 21 12.1441 21 12.144 21C12.1438 21 12.1437 21 12.1436 21C12.1435 21 12.1434 21 12.1433 21C12.1432 21 12.1431 21 12.143 21C12.1429 21 12.1428 21 12.1427 21C12.1425 21 12.1424 21 12.1423 21C12.1422 21 12.1421 21 12.142 21C12.1419 21 12.1418 21 12.1417 21C12.1416 21 12.1415 21 12.1413 21C12.1412 21 12.1411 21 12.141 21C12.1409 21 12.1408 21 12.1407 21C12.1406 21 12.1405 21 12.1404 21C12.1403 21 12.1402 21 12.14 21C12.1399 21 12.1398 21 12.1397 21C12.1396 21 12.1395 21 12.1394 21C12.1393 21 12.1392 21 12.1391 21C12.139 21 12.1389 21 12.1387 21C12.1386 21 12.1385 21 12.1384 21C12.1383 21 12.1382 21 12.1381 21C12.138 21 12.1379 21 12.1378 21C12.1377 21 12.1375 21 12.1374 21C12.1373 21 12.1372 21 12.1371 21C12.137 21 12.1369 21 12.1368 21C12.1367 21 12.1366 21 12.1365 21C12.1364 21 12.1362 21 12.1361 21C12.136 21 12.1359 21 12.1358 21C12.1357 21 12.1356 21 12.1355 21C12.1354 21 12.1353 21 12.1352 21C12.135 21 12.1349 21 12.1348 21C12.1347 21 12.1346 21 12.1345 21C12.1344 21 12.1343 21 12.1342 21C12.1341 21 12.134 21 12.1339 21C12.1337 21 12.1336 21 12.1335 21C12.1334 21 12.1333 21 12.1332 21C12.1331 21 12.133 21 12.1329 21C12.1328 21 12.1327 21 12.1325 21C12.1324 21 12.1323 21 12.1322 21C12.1321 21 12.132 21 12.1319 21C12.1318 21 12.1317 21 12.1316 21C12.1315 21 12.1314 21 12.1312 21C12.1311 21 12.131 21 12.1309 21C12.1308 21 12.1307 21 12.1306 21C12.1305 21 12.1304 21 12.1303 21C12.1302 21 12.1301 21 12.1299 21C12.1298 21 12.1297 21 12.1296 21C12.1295 21 12.1294 21 12.1293 21C12.1292 21 12.1291 21 12.129 21C12.1289 21 12.1287 21 12.1286 21C12.1285 21 12.1284 21 12.1283 21C12.1282 21 12.1281 21 12.128 21C12.1279 21 12.1278 21 12.1277 21C12.1276 21 12.1274 21 12.1273 21C12.1272 21 12.1271 21 12.127 21C12.1269 21 12.1268 21 12.1267 21C12.1266 21 12.1265 21 12.1264 21C12.1262 21 12.1261 21 12.126 21C12.1259 21 12.1258 21 12.1257 21C12.1256 21 12.1255 21 12.1254 21C12.1253 21 12.1252 21 12.1251 21C12.1249 21 12.1248 21 12.1247 21C12.1246 21 12.1245 21 12.1244 21C12.1243 21 12.1242 21 12.1241 21C12.124 21 12.1239 21 12.1238 21C12.1236 21 12.1235 21 12.1234 21C12.1233 21 12.1232 21 12.1231 21C12.123 21 12.1229 21 12.1228 21C12.1227 21 12.1226 21 12.1224 21C12.1223 21 12.1222 21 12.1221 21C12.122 21 12.1219 21 12.1218 21C12.1217 21 12.1216 21 12.1215 21C12.1214 21 12.1213 21 12.1211 21C12.121 21 12.1209 21 12.1208 21C12.1207 21 12.1206 21 12.1205 21C12.1204 21 12.1203 21 12.1202 21C12.1201 21 12.1199 21 12.1198 21C12.1197 21 12.1196 21 12.1195 21C12.1194 21 12.1193 21 12.1192 21C12.1191 21 12.119 21 12.1189 21C12.1188 21 12.1186 21 12.1185 21C12.1184 21 12.1183 21 12.1182 21C12.1181 21 12.118 21 12.1179 21C12.1178 21 12.1177 21 12.1176 21C12.1175 21 12.1173 21 12.1172 21C12.1171 21 12.117 21 12.1169 21C12.1168 21 12.1167 21 12.1166 21C12.1165 21 12.1164 21 12.1163 21C12.1161 21 12.116 21 12.1159 21C12.1158 21 12.1157 21 12.1156 21C12.1155 21 12.1154 21 12.1153 21C12.1152 21 12.1151 21 12.115 21C12.1148 21 12.1147 21 12.1146 21C12.1145 21 12.1144 21 12.1143 21C12.1142 21 12.1141 21 12.114 21C12.1139 21 12.1138 21 12.1136 21C12.1135 21 12.1134 21 12.1133 21C12.1132 21 12.1131 21 12.113 21C12.1129 21 12.1128 21 12.1127 21C12.1126 21 12.1125 21 12.1123 21C12.1122 21 12.1121 21 12.112 21C12.1119 21 12.1118 21 12.1117 21C12.1116 21 12.1115 21 12.1114 21C12.1113 21 12.1111 21 12.111 21C12.1109 21 12.1108 21 12.1107 21C12.1106 21 12.1105 21 12.1104 21C12.1103 21 12.1102 21 12.1101 21C12.11 21 12.1098 21 12.1097 21C12.1096 21 12.1095 21 12.1094 21C12.1093 21 12.1092 21 12.1091 21C12.109 21 12.1089 21 12.1088 21C12.1087 21 12.1085 21 12.1084 21C12.1083 21 12.1082 21 12.1081 21C12.108 21 12.1079 21 12.1078 21C12.1077 21 12.1076 21 12.1075 21C12.1073 21 12.1072 21 12.1071 21C12.107 21 12.1069 21 12.1068 21C12.1067 21 12.1066 21 12.1065 21C12.1064 21 12.1063 21 12.1062 21C12.106 21 12.1059 21 12.1058 21C12.1057 21 12.1056 21 12.1055 21C12.1054 21 12.1053 21 12.1052 21C12.1051 21 12.105 21 12.1048 21C12.1047 21 12.1046 21 12.1045 21C12.1044 21 12.1043 21 12.1042 21C12.1041 21 12.104 21 12.1039 21C12.1038 21 12.1037 21 12.1035 21C12.1034 21 12.1033 21 12.1032 21C12.1031 21 12.103 21 12.1029 21C12.1028 21 12.1027 21 12.1026 21C12.1025 21 12.1024 21 12.1022 21C12.1021 21 12.102 21 12.1019 21C12.1018 21 12.1017 21 12.1016 21C12.1015 21 12.1014 21 12.1013 21C12.1012 21 12.101 21 12.1009 21C12.1008 21 12.1007 21 12.1006 21C12.1005 21 12.1004 21 12.1003 21C12.1002 21 12.1001 21 12.1 21C12.0999 21 12.0997 21 12.0996 21C12.0995 21 12.0994 21 12.0993 21C12.0992 21 12.0991 21 12.099 21C12.0989 21 12.0988 21 12.0987 21C12.0985 21 12.0984 21 12.0983 21C12.0982 21 12.0981 21 12.098 21C12.0979 21 12.0978 21 12.0977 21C12.0976 21 12.0975 21 12.0974 21C12.0972 21 12.0971 21 12.097 21C12.0969 21 12.0968 21 12.0967 21C12.0966 21 12.0965 21 12.0964 21C12.0963 21 12.0962 21 12.0961 21C12.0959 21 12.0958 21 12.0957 21C12.0956 21 12.0955 21 12.0954 21C12.0953 21 12.0952 21 12.0951 21C12.095 21 12.0949 21 12.0947 21C12.0946 21 12.0945 21 12.0944 21C12.0943 21 12.0942 21 12.0941 21C12.094 21 12.0939 21 12.0938 21C12.0937 21 12.0936 21 12.0934 21C12.0933 21 12.0932 21 12.0931 21C12.093 21 12.0929 21 12.0928 21C12.0927 21 12.0926 21 12.0925 21C12.0924 21 12.0922 21 12.0921 21C12.092 21 12.0919 21 12.0918 21C12.0917 21 12.0916 21 12.0915 21C12.0914 21 12.0913 21 12.0912 21C12.0911 21 12.0909 21 12.0908 21C12.0907 21 12.0906 21 12.0905 21C12.0904 21 12.0903 21 12.0902 21C12.0901 21 12.09 21 12.0899 21C12.0898 21 12.0896 21 12.0895 21C12.0894 21 12.0893 21 12.0892 21C12.0891 21 12.089 21 12.0889 21C12.0888 21 12.0887 21 12.0886 21C12.0884 21 12.0883 21 12.0882 21C12.0881 21 12.088 21 12.0879 21C12.0878 21 12.0877 21 12.0876 21C12.0875 21 12.0874 21 12.0873 21C12.0871 21 12.087 21 12.0869 21C12.0868 21 12.0867 21 12.0866 21C12.0865 21 12.0864 21 12.0863 21C12.0862 21 12.0861 21 12.0859 21C12.0858 21 12.0857 21 12.0856 21C12.0855 21 12.0854 21 12.0853 21C12.0852 21 12.0851 21 12.085 21C12.0849 21 12.0848 21 12.0846 21C12.0845 21 12.0844 21 12.0843 21C12.0842 21 12.0841 21 12.084 21C12.0839 21 12.0838 21 12.0837 21C12.0836 21 12.0834 21 12.0833 21C12.0832 21 12.0831 21 12.083 21C12.0829 21 12.0828 21 12.0827 21C12.0826 21 12.0825 21 12.0824 21C12.0823 21 12.0821 21 12.082 21C12.0819 21 12.0818 21 12.0817 21C12.0816 21 12.0815 21 12.0814 21C12.0813 21 12.0812 21 12.0811 21C12.081 21 12.0808 21 12.0807 21C12.0806 21 12.0805 21 12.0804 21C12.0803 21 12.0802 21 12.0801 21C12.08 21 12.0799 21 12.0798 21C12.0796 21 12.0795 21 12.0794 21C12.0793 21 12.0792 21 12.0791 21C12.079 21 12.0789 21 12.0788 21C12.0787 21 12.0786 21 12.0785 21C12.0783 21 12.0782 21 12.0781 21C12.078 21 12.0779 21 12.0778 21C12.0777 21 12.0776 21 12.0775 21C12.0774 21 12.0773 21 12.0771 21C12.077 21 12.0769 21 12.0768 21C12.0767 21 12.0766 21 12.0765 21C12.0764 21 12.0763 21 12.0762 21C12.0761 21 12.076 21 12.0758 21C12.0757 21 12.0756 21 12.0755 21C12.0754 21 12.0753 21 12.0752 21C12.0751 21 12.075 21 12.0749 21C12.0748 21 12.0747 21 12.0745 21C12.0744 21 12.0743 21 12.0742 21C12.0741 21 12.074 21 12.0739 21C12.0738 21 12.0737 21 12.0736 21C12.0735 21 12.0733 21 12.0732 21C12.0731 21 12.073 21 12.0729 21C12.0728 21 12.0727 21 12.0726 21C12.0725 21 12.0724 21 12.0723 21C12.0722 21 12.072 21 12.0719 21C12.0718 21 12.0717 21 12.0716 21C12.0715 21 12.0714 21 12.0713 21C12.0712 21 12.0711 21 12.071 21C12.0708 21 12.0707 21 12.0706 21C12.0705 21 12.0704 21 12.0703 21C12.0702 21 12.0701 21 12.07 21C12.0699 21 12.0698 21 12.0697 21C12.0695 21 12.0694 21 12.0693 21C12.0692 21 12.0691 21 12.069 21C12.0689 21 12.0688 21 12.0687 21C12.0686 21 12.0685 21 12.0684 21C12.0682 21 12.0681 21 12.068 21C12.0679 21 12.0678 21 12.0677 21C12.0676 21 12.0675 21 12.0674 21C12.0673 21 12.0672 21 12.067 21C12.0669 21 12.0668 21 12.0667 21C12.0666 21 12.0665 21 12.0664 21C12.0663 21 12.0662 21 12.0661 21C12.066 21 12.0659 21 12.0657 21C12.0656 21 12.0655 21 12.0654 21C12.0653 21 12.0652 21 12.0651 21C12.065 21 12.0649 21 12.0648 21C12.0647 21 12.0645 21 12.0644 21C12.0643 21 12.0642 21 12.0641 21C12.064 21 12.0639 21 12.0638 21C12.0637 21 12.0636 21 12.0635 21C12.0634 21 12.0632 21 12.0631 21C12.063 21 12.0629 21 12.0628 21C12.0627 21 12.0626 21 12.0625 21C12.0624 21 12.0623 21 12.0622 21C12.062 21 12.0619 21 12.0618 21C12.0617 21 12.0616 21 12.0615 21C12.0614 21 12.0613 21 12.0612 21C12.0611 21 12.061 21 12.0609 21C12.0607 21 12.0606 21 12.0605 21C12.0604 21 12.0603 21 12.0602 21C12.0601 21 12.06 21 12.0599 21C12.0598 21 12.0597 21 12.0596 21C12.0594 21 12.0593 21 12.0592 21C12.0591 21 12.059 21 12.0589 21C12.0588 21 12.0587 21 12.0586 21C12.0585 21 12.0584 21 12.0582 21C12.0581 21 12.058 21 12.0579 21C12.0578 21 12.0577 21 12.0576 21C12.0575 21 12.0574 21 12.0573 21C12.0572 21 12.0571 21 12.0569 21C12.0568 21 12.0567 21 12.0566 21C12.0565 21 12.0564 21 12.0563 21C12.0562 21 12.0561 21 12.056 21C12.0559 21 12.0557 21 12.0556 21C12.0555 21 12.0554 21 12.0553 21C12.0552 21 12.0551 21 12.055 21C12.0549 21 12.0548 21 12.0547 21C12.0546 21 12.0544 21 12.0543 21C12.0542 21 12.0541 21 12.054 21C12.0539 21 12.0538 21 12.0537 21C12.0536 21 12.0535 21 12.0534 21C12.0533 21 12.0531 21 12.053 21C12.0529 21 12.0528 21 12.0527 21C12.0526 21 12.0525 21 12.0524 21C12.0523 21 12.0522 21 12.0521 21C12.0519 21 12.0518 21 12.0517 21C12.0516 21 12.0515 21 12.0514 21C12.0513 21 12.0512 21 12.0511 21C12.051 21 12.0509 21 12.0508 21C12.0506 21 12.0505 21 12.0504 21C12.0503 21 12.0502 21 12.0501 21C12.05 21 12.0499 21 12.0498 21C12.0497 21 12.0496 21 12.0494 21C12.0493 21 12.0492 21 12.0491 21C12.049 21 12.0489 21 12.0488 21C12.0487 21 12.0486 21 12.0485 21C12.0484 21 12.0483 21 12.0481 21C12.048 21 12.0479 21 12.0478 21C12.0477 21 12.0476 21 12.0475 21C12.0474 21 12.0473 21 12.0472 21C12.0471 21 12.047 21 12.0468 21C12.0467 21 12.0466 21 12.0465 21C12.0464 21 12.0463 21 12.0462 21C12.0461 21 12.046 21 12.0459 21C12.0458 21 12.0456 21 12.0455 21C12.0454 21 12.0453 21 12.0452 21C12.0451 21 12.045 21 12.0449 21C12.0448 21 12.0447 21 12.0446 21C12.0445 21 12.0443 21 12.0442 21C12.0441 21 12.044 21 12.0439 21C12.0438 21 12.0437 21 12.0436 21C12.0435 21 12.0434 21 12.0433 21C12.0431 21 12.043 21 12.0429 21C12.0428 21 12.0427 21 12.0426 21C12.0425 21 12.0424 21 12.0423 21C12.0422 21 12.0421 21 12.042 21C12.0418 21 12.0417 21 12.0416 21C12.0415 21 12.0414 21 12.0413 21C12.0412 21 12.0411 21 12.041 21C12.0409 21 12.0408 21 12.0407 21C12.0405 21 12.0404 21 12.0403 21C12.0402 21 12.0401 21 12.04 21C12.0399 21 12.0398 21 12.0397 21C12.0396 21 12.0395 21 12.0393 21C12.0392 21 12.0391 21 12.039 21C12.0389 21 12.0388 21 12.0387 21C12.0386 21 12.0385 21 12.0384 21C12.0383 21 12.0382 21 12.038 21C12.0379 21 12.0378 21 12.0377 21C12.0376 21 12.0375 21 12.0374 21C12.0373 21 12.0372 21 12.0371 21C12.037 21 12.0368 21 12.0367 21C12.0366 21 12.0365 21 12.0364 21C12.0363 21 12.0362 21 12.0361 21C12.036 21 12.0359 21 12.0358 21C12.0357 21 12.0355 21 12.0354 21C12.0353 21 12.0352 21 12.0351 21C12.035 21 12.0349 21 12.0348 21C12.0347 21 12.0346 21 12.0345 21C12.0344 21 12.0342 21 12.0341 21C12.034 21 12.0339 21 12.0338 21C12.0337 21 12.0336 21 12.0335 21C12.0334 21 12.0333 21 12.0332 21C12.033 21 12.0329 21 12.0328 21C12.0327 21 12.0326 21 12.0325 21C12.0324 21 12.0323 21 12.0322 21C12.0321 21 12.032 21 12.0319 21C12.0317 21 12.0316 21 12.0315 21C12.0314 21 12.0313 21 12.0312 21C12.0311 21 12.031 21 12.0309 21C12.0308 21 12.0307 21 12.0305 21C12.0304 21 12.0303 21 12.0302 21C12.0301 21 12.03 21 12.0299 21C12.0298 21 12.0297 21 12.0296 21C12.0295 21 12.0294 21 12.0292 21C12.0291 21 12.029 21 12.0289 21C12.0288 21 12.0287 21 12.0286 21C12.0285 21 12.0284 21 12.0283 21C12.0282 21 12.028 21 12.0279 21C12.0278 21 12.0277 21 12.0276 21C12.0275 21 12.0274 21 12.0273 21C12.0272 21 12.0271 21 12.027 21C12.0269 21 12.0267 21 12.0266 21C12.0265 21 12.0264 21 12.0263 21C12.0262 21 12.0261 21 12.026 21C12.0259 21 12.0258 21 12.0257 21C12.0256 21 12.0254 21 12.0253 21C12.0252 21 12.0251 21 12.025 21C12.0249 21 12.0248 21 12.0247 21C12.0246 21 12.0245 21 12.0244 21C12.0242 21 12.0241 21 12.024 21C12.0239 21 12.0238 21 12.0237 21C12.0236 21 12.0235 21 12.0234 21C12.0233 21 12.0232 21 12.0231 21C12.0229 21 12.0228 21 12.0227 21C12.0226 21 12.0225 21 12.0224 21C12.0223 21 12.0222 21 12.0221 21C12.022 21 12.0219 21 12.0217 21C12.0216 21 12.0215 21 12.0214 21C12.0213 21 12.0212 21 12.0211 21C12.021 21 12.0209 21 12.0208 21C12.0207 21 12.0206 21 12.0204 21C12.0203 21 12.0202 21 12.0201 21C12.02 21 12.0199 21 12.0198 21C12.0197 21 12.0196 21 12.0195 21C12.0194 21 12.0193 21 12.0191 21C12.019 21 12.0189 21 12.0188 21C12.0187 21 12.0186 21 12.0185 21C12.0184 21 12.0183 21 12.0182 21C12.0181 21 12.0179 21 12.0178 21C12.0177 21 12.0176 21 12.0175 21C12.0174 21 12.0173 21 12.0172 21C12.0171 21 12.017 21 12.0169 21C12.0168 21 12.0166 21 12.0165 21C12.0164 21 12.0163 21 12.0162 21C12.0161 21 12.016 21 12.0159 21C12.0158 21 12.0157 21 12.0156 21C12.0154 21 12.0153 21 12.0152 21C12.0151 21 12.015 21 12.0149 21C12.0148 21 12.0147 21 12.0146 21C12.0145 21 12.0144 21 12.0143 21C12.0141 21 12.014 21 12.0139 21C12.0138 21 12.0137 21 12.0136 21C12.0135 21 12.0134 21 12.0133 21C12.0132 21 12.0131 21 12.0129 21C12.0128 21 12.0127 21 12.0126 21C12.0125 21 12.0124 21 12.0123 21C12.0122 21 12.0121 21 12.012 21C12.0119 21 12.0118 21 12.0116 21C12.0115 21 12.0114 21 12.0113 21C12.0112 21 12.0111 21 12.011 21C12.0109 21 12.0108 21 12.0107 21C12.0106 21 12.0105 21 12.0103 21C12.0102 21 12.0101 21 12.01 21C12.0099 21 12.0098 21 12.0097 21C12.0096 21 12.0095 21 12.0094 21C12.0093 21 12.0091 21 12.009 21C12.0089 21 12.0088 21 12.0087 21C12.0086 21 12.0085 21 12.0084 21C12.0083 21 12.0082 21 12.0081 21C12.008 21 12.0078 21 12.0077 21C12.0076 21 12.0075 21 12.0074 21C12.0073 21 12.0072 21 12.0071 21C12.007 21 12.0069 21 12.0068 21C12.0066 21 12.0065 21 12.0064 21C12.0063 21 12.0062 21 12.0061 21C12.006 21 12.0059 21 12.0058 21C12.0057 21 12.0056 21 12.0055 21C12.0053 21 12.0052 21 12.0051 21C12.005 21 12.0049 21 12.0048 21C12.0047 21 12.0046 21 12.0045 21C12.0044 21 12.0043 21 12.0042 21C12.004 21 12.0039 21 12.0038 21C12.0037 21 12.0036 21 12.0035 21C12.0034 21 12.0033 21 12.0032 21C12.0031 21 12.003 21 12.0028 21C12.0027 21 12.0026 21 12.0025 21C12.0024 21 12.0023 21 12.0022 21C12.0021 21 12.002 21 12.0019 21C12.0018 21 12.0017 21 12.0015 21C12.0014 21 12.0013 21 12.0012 21C12.0011 21 12.001 21 12.0009 21C12.0008 21 12.0007 21 12.0006 21C12.0005 21 12.0003 21 12.0002 21C12.0001 21 12 21 11.9999 21C11.9998 21 11.9997 21 11.9996 21C11.9995 21 11.9994 21 11.9993 21C11.9992 21 11.999 21 11.9989 21C11.9988 21 11.9987 21 11.9986 21C11.9985 21 11.9984 21 11.9983 21C11.9982 21 11.9981 21 11.998 21C11.9979 21 11.9977 21 11.9976 21C11.9975 21 11.9974 21 11.9973 21C11.9972 21 11.9971 21 11.997 21C11.9969 21 11.9968 21 11.9967 21C11.9965 21 11.9964 21 11.9963 21C11.9962 21 11.9961 21 11.996 21C11.9959 21 11.9958 21 11.9957 21C11.9956 21 11.9955 21 11.9954 21C11.9952 21 11.9951 21 11.995 21C11.9949 21 11.9948 21 11.9947 21C11.9946 21 11.9945 21 11.9944 21C11.9943 21 11.9942 21 11.994 21C11.9939 21 11.9938 21 11.9937 21C11.9936 21 11.9935 21 11.9934 21C11.9933 21 11.9932 21 11.9931 21C11.993 21 11.9929 21 11.9927 21C11.9926 21 11.9925 21 11.9924 21C11.9923 21 11.9922 21 11.9921 21C11.992 21 11.9919 21 11.9918 21C11.9917 21 11.9916 21 11.9914 21C11.9913 21 11.9912 21 11.9911 21C11.991 21 11.9909 21 11.9908 21C11.9907 21 11.9906 21 11.9905 21C11.9904 21 11.9902 21 11.9901 21C11.99 21 11.9899 21 11.9898 21C11.9897 21 11.9896 21 11.9895 21C11.9894 21 11.9893 21 11.9892 21C11.9891 21 11.9889 21 11.9888 21V23ZM12.1557 23C12.4377 23 12.7507 22.9879 13.0635 22.9472L12.8052 20.964C12.6063 20.9899 12.3854 21 12.1557 21V23ZM13.051 22.9488C13.241 22.9264 13.4488 22.9009 13.6634 22.8608L13.2954 20.8949C13.154 20.9214 13.0059 20.9403 12.8177 20.9624L13.051 22.9488ZM13.658 22.8618C13.6938 22.8553 13.7331 22.8498 13.7978 22.8409C13.8554 22.8331 13.9385 22.822 14.025 22.8062L13.6678 20.8384C13.632 20.8449 13.5927 20.8504 13.528 20.8592C13.4704 20.8671 13.3873 20.8782 13.3008 20.8939L13.658 22.8618ZM14.0422 22.803C14.2987 22.7518 14.5384 22.6885 14.7457 22.634L14.2375 20.6997C14.0221 20.7563 13.8392 20.804 13.6506 20.8417L14.0422 22.803ZM14.7659 22.6285C14.7765 22.6255 14.7887 22.6225 14.8273 22.6136C14.861 22.6058 14.9212 22.5921 14.9884 22.573L14.4398 20.6497C14.4291 20.6527 14.417 20.6557 14.3783 20.6646C14.3447 20.6724 14.2845 20.686 14.2173 20.7052L14.7659 22.6285ZM14.9768 22.5762C15.2565 22.5 15.5177 22.4127 15.7783 22.3181L15.0959 20.4381C14.8671 20.5212 14.6611 20.5894 14.4514 20.6465L14.9768 22.5762ZM15.7529 22.327C15.7695 22.3214 15.7862 22.3159 15.8029 22.3103C15.8196 22.3048 15.8363 22.2992 15.853 22.2936L15.2215 20.396C15.2048 20.4015 15.1881 20.4071 15.1714 20.4126C15.1547 20.4182 15.138 20.4237 15.1213 20.4293L15.7529 22.327ZM15.8923 22.2796C20.035 20.7058 22.9999 16.7135 22.9999 12.0056H20.9999C20.9999 15.8484 18.5811 19.1187 15.1821 20.41L15.8923 22.2796ZM22.9999 12.0096C23.0244 5.92227 18.0901 1 12.0111 1V3C16.9888 3 21.0199 7.02831 20.9999 12.0015L22.9999 12.0096ZM18.0612 17.6008C16.5004 16.2061 14.3729 15.3365 12.0222 15.3365V17.3365C13.8762 17.3365 15.5306 18.0216 16.7285 19.0921L18.0612 17.6008ZM12.0222 15.3365C9.67498 15.3365 7.5209 16.204 5.96581 17.6176L7.31113 19.0975C8.4924 18.0237 10.1648 17.3365 12.0222 17.3365V15.3365ZM7.28399 17.5938C5.6831 16.2407 4.66851 14.2382 4.66851 11.9944H2.66851C2.66851 14.859 3.9676 17.4095 5.99294 19.1213L7.28399 17.5938ZM4.66851 11.9944C4.66851 7.95085 7.9567 4.66574 12.0111 4.66574V2.66574C6.85527 2.66574 2.66851 6.84315 2.66851 11.9944H4.66851ZM12.0111 4.66574C16.0655 4.66574 19.3537 7.95085 19.3537 11.9944H21.3537C21.3537 6.84315 17.1669 2.66574 12.0111 2.66574V4.66574ZM19.3537 11.9944C19.3537 14.2294 18.3484 16.2312 16.7493 17.5827L18.0403 19.1102C20.0675 17.3968 21.3537 14.8456 21.3537 11.9944H19.3537ZM14.5372 10.9617C14.5372 12.3643 13.3978 13.5042 11.9888 13.5042V15.5042C14.4993 15.5042 16.5372 13.472 16.5372 10.9617H14.5372ZM11.9888 13.5042C10.5798 13.5042 9.44046 12.3643 9.44046 10.9617H7.44046C7.44046 13.472 9.47841 15.5042 11.9888 15.5042V13.5042ZM9.44046 10.9617C9.44046 9.55908 10.5798 8.41921 11.9888 8.41921V6.41921C9.47841 6.41921 7.44046 8.45138 7.44046 10.9617H9.44046ZM11.9888 8.41921C13.3978 8.41921 14.5372 9.55908 14.5372 10.9617H16.5372C16.5372 8.45138 14.4993 6.41921 11.9888 6.41921V8.41921Z" fill="#E3E3E5" mask="url(#path-1-inside-1_2767_15169)"/>
</svg>
