<svg width="17" height="16" viewBox="0 0 17 16" fill="none" xmlns="http://www.w3.org/2000/svg">
<path d="M13.8333 3.33333H11.7199L10.4999 2H6.49992L5.27992 3.33333H3.16659C2.81296 3.33333 2.47382 3.47381 2.22378 3.72386C1.97373 3.97391 1.83325 4.31304 1.83325 4.66667V12.6667C1.83325 13.0203 1.97373 13.3594 2.22378 13.6095C2.47382 13.8595 2.81296 14 3.16659 14H13.8333C14.1869 14 14.526 13.8595 14.7761 13.6095C15.0261 13.3594 15.1666 13.0203 15.1666 12.6667V4.66667C15.1666 4.31304 15.0261 3.97391 14.7761 3.72386C14.526 3.47381 14.1869 3.33333 13.8333 3.33333ZM13.8333 12.6667H3.16659V4.66667H13.8333V12.6667ZM8.49992 5.33333C7.61586 5.33333 6.76802 5.68452 6.1429 6.30964C5.51777 6.93477 5.16659 7.78261 5.16658 8.66667C5.16659 9.55072 5.51777 10.3986 6.1429 11.0237C6.76802 11.6488 7.61586 12 8.49992 12C9.38397 12 10.2318 11.6488 10.8569 11.0237C11.4821 10.3986 11.8333 9.55072 11.8333 8.66667C11.8333 7.78261 11.4821 6.93477 10.8569 6.30964C10.2318 5.68452 9.38397 5.33333 8.49992 5.33333Z" fill="#89B4F8"/>
</svg>
