<svg width="17" height="16" viewBox="0 0 17 16" fill="none" xmlns="http://www.w3.org/2000/svg">
<path d="M11.0303 9.46967C10.7374 9.17678 10.2626 9.17678 9.96967 9.46967C9.67678 9.76256 9.67678 10.2374 9.96967 10.5303L11.0303 9.46967ZM13.9697 14.5303C14.2626 14.8232 14.7374 14.8232 15.0303 14.5303C15.3232 14.2374 15.3232 13.7626 15.0303 13.4697L13.9697 14.5303ZM7.16667 10.5833C5.00355 10.5833 3.25 8.82978 3.25 6.66667H1.75C1.75 9.65821 4.17512 12.0833 7.16667 12.0833V10.5833ZM3.25 6.66667C3.25 4.50355 5.00355 2.75 7.16667 2.75V1.25C4.17512 1.25 1.75 3.67512 1.75 6.66667H3.25ZM7.16667 2.75C9.32978 2.75 11.0833 4.50355 11.0833 6.66667H12.5833C12.5833 3.67512 10.1582 1.25 7.16667 1.25V2.75ZM11.0833 6.66667C11.0833 8.82978 9.32978 10.5833 7.16667 10.5833V12.0833C10.1582 12.0833 12.5833 9.65821 12.5833 6.66667H11.0833ZM9.96967 10.5303L13.9697 14.5303L15.0303 13.4697L11.0303 9.46967L9.96967 10.5303Z" fill="#E3E3E5"/>
</svg>
