<svg width="17" height="16" viewBox="0 0 17 16" fill="none" xmlns="http://www.w3.org/2000/svg">
<path fill-rule="evenodd" clip-rule="evenodd" d="M13.8333 3.33398H3.16659C2.43325 3.33398 1.83992 3.93398 1.83992 4.66732L1.83325 11.334C1.83325 12.0673 2.43325 12.6673 3.16659 12.6673H13.8333C14.5666 12.6673 15.1666 12.0673 15.1666 11.334V4.66732C15.1666 3.93398 14.5666 3.33398 13.8333 3.33398ZM13.8333 4.66732V11.334H3.16659V4.66732H13.8333ZM9.16659 5.33398H7.83325V6.66732H9.16659V5.33398ZM7.83325 7.33398H9.16659V8.66732H7.83325V7.33398ZM7.16659 5.33398H5.83325V6.66732H7.16659V5.33398ZM5.83325 7.33398H7.16659V8.66732H5.83325V7.33398ZM5.16659 7.33398H3.83325V8.66732H5.16659V7.33398ZM3.83325 5.33398H5.16659V6.66732H3.83325V5.33398ZM11.1666 9.33398H5.83325V10.6673H11.1666V9.33398ZM9.83325 7.33398H11.1666V8.66732H9.83325V7.33398ZM11.1666 5.33398H9.83325V6.66732H11.1666V5.33398ZM11.8333 7.33398H13.1666V8.66732H11.8333V7.33398ZM13.1666 5.33398H11.8333V6.66732H13.1666V5.33398Z" fill="#89B4F8"/>
</svg>
