<svg width="16" height="17" viewBox="0 0 16 17" fill="none" xmlns="http://www.w3.org/2000/svg">
<path fill-rule="evenodd" clip-rule="evenodd" d="M13.3333 3.83398H2.66659C1.93325 3.83398 1.33992 4.43398 1.33992 5.16732L1.33325 11.834C1.33325 12.5673 1.93325 13.1673 2.66659 13.1673H13.3333C14.0666 13.1673 14.6666 12.5673 14.6666 11.834V5.16732C14.6666 4.43398 14.0666 3.83398 13.3333 3.83398ZM13.3333 5.16732V11.834H2.66659V5.16732H13.3333ZM8.66659 5.83398H7.33325V7.16732H8.66659V5.83398ZM7.33325 7.83398H8.66659V9.16732H7.33325V7.83398ZM6.66659 5.83398H5.33325V7.16732H6.66659V5.83398ZM5.33325 7.83398H6.66659V9.16732H5.33325V7.83398ZM4.66659 7.83398H3.33325V9.16732H4.66659V7.83398ZM3.33325 5.83398H4.66659V7.16732H3.33325V5.83398ZM10.6666 9.83398H5.33325V11.1673H10.6666V9.83398ZM9.33325 7.83398H10.6666V9.16732H9.33325V7.83398ZM10.6666 5.83398H9.33325V7.16732H10.6666V5.83398ZM11.3333 7.83398H12.6666V9.16732H11.3333V7.83398ZM12.6666 5.83398H11.3333V7.16732H12.6666V5.83398Z" fill="#A2AAB5"/>
</svg>
