<svg width="16" height="17" viewBox="0 0 16 17" fill="none" xmlns="http://www.w3.org/2000/svg">
<path d="M13.3333 3.83333H11.2199L9.99992 2.5H5.99992L4.77992 3.83333H2.66659C2.31296 3.83333 1.97382 3.97381 1.72378 4.22386C1.47373 4.47391 1.33325 4.81304 1.33325 5.16667V13.1667C1.33325 13.5203 1.47373 13.8594 1.72378 14.1095C1.97382 14.3595 2.31296 14.5 2.66659 14.5H13.3333C13.6869 14.5 14.026 14.3595 14.2761 14.1095C14.5261 13.8594 14.6666 13.5203 14.6666 13.1667V5.16667C14.6666 4.81304 14.5261 4.47391 14.2761 4.22386C14.026 3.97381 13.6869 3.83333 13.3333 3.83333ZM13.3333 13.1667H2.66659V5.16667H13.3333V13.1667ZM7.99992 5.83333C7.11586 5.83333 6.26802 6.18452 5.6429 6.80964C5.01777 7.43477 4.66659 8.28261 4.66658 9.16667C4.66659 10.0507 5.01777 10.8986 5.6429 11.5237C6.26802 12.1488 7.11586 12.5 7.99992 12.5C8.88397 12.5 9.73182 12.1488 10.3569 11.5237C10.9821 10.8986 11.3333 10.0507 11.3333 9.16667C11.3333 8.28261 10.9821 7.43477 10.3569 6.80964C9.73182 6.18452 8.88397 5.83333 7.99992 5.83333Z" fill="#A2AAB5"/>
</svg>
