<svg width="42" height="41" viewBox="0 0 42 41" fill="none" xmlns="http://www.w3.org/2000/svg">
<path d="M17.6057 12.2465L17.2781 12.9212L18.0381 13.2903L18.3145 12.4919L17.6057 12.2465ZM21 2.44092L21.7087 2.19559L21 0.148115L20.2913 2.19559L21 2.44092ZM8.27207 7.71304L8.59975 7.03841L6.65081 6.09178L7.59744 8.04072L8.27207 7.71304ZM12.8056 17.0467L13.0509 17.7554L13.8493 17.479L13.4802 16.719L12.8056 17.0467ZM3 20.4409L2.75467 19.7322L0.707197 20.4409L2.75467 21.1497L3 20.4409ZM12.8056 23.8352L13.4803 24.1628L13.8494 23.4028L13.051 23.1264L12.8056 23.8352ZM8.27212 33.1688L7.59749 32.8412L6.65086 34.7901L8.5998 33.8435L8.27212 33.1688ZM17.6058 28.6354L18.3145 28.39L18.0381 27.5916L17.2781 27.9607L17.6058 28.6354ZM21 38.4409L20.2913 38.6863L21 40.7337L21.7087 38.6863L21 38.4409ZM24.3943 28.6353L24.7219 27.9607L23.9619 27.5915L23.6855 28.39L24.3943 28.6353ZM33.7279 33.1688L33.4003 33.8434L35.3492 34.7901L34.4026 32.8411L33.7279 33.1688ZM29.1944 23.8351L28.9491 23.1264L28.1507 23.4028L28.5198 24.1628L29.1944 23.8351ZM39 20.4409L39.2453 21.1497L41.2928 20.4409L39.2453 19.7322L39 20.4409ZM29.1944 17.0467L28.5197 16.719L28.1506 17.479L28.949 17.7554L29.1944 17.0467ZM33.7279 7.71299L34.4025 8.04066L35.3491 6.09173L33.4002 7.03836L33.7279 7.71299ZM24.3942 12.2465L23.6855 12.4918L23.9619 13.2903L24.7219 12.9211L24.3942 12.2465ZM18.3145 12.4919L21.7087 2.68625L20.2913 2.19559L16.897 12.0012L18.3145 12.4919ZM7.94439 8.38767L17.2781 12.9212L17.9334 11.5719L8.59975 7.03841L7.94439 8.38767ZM13.4802 16.719L8.9467 7.38536L7.59744 8.04072L12.1309 17.3744L13.4802 16.719ZM3.24533 21.1497L13.0509 17.7554L12.5602 16.3379L2.75467 19.7322L3.24533 21.1497ZM13.051 23.1264L3.24533 19.7322L2.75467 21.1497L12.5603 24.5439L13.051 23.1264ZM8.94675 33.4965L13.4803 24.1628L12.131 23.5075L7.59749 32.8412L8.94675 33.4965ZM17.2781 27.9607L7.94444 32.4942L8.5998 33.8435L17.9334 29.31L17.2781 27.9607ZM21.7087 38.1956L18.3145 28.39L16.897 28.8807L20.2913 38.6863L21.7087 38.1956ZM23.6855 28.39L20.2913 38.1956L21.7087 38.6863L25.103 28.8806L23.6855 28.39ZM34.0556 32.4942L24.7219 27.9607L24.0666 29.3099L33.4003 33.8434L34.0556 32.4942ZM28.5198 24.1628L33.0533 33.4965L34.4026 32.8411L29.8691 23.5075L28.5198 24.1628ZM38.7547 19.7322L28.9491 23.1264L29.4398 24.5439L39.2453 21.1497L38.7547 19.7322ZM28.949 17.7554L38.7547 21.1497L39.2453 19.7322L29.4397 16.3379L28.949 17.7554ZM33.0532 7.38531L28.5197 16.719L29.869 17.3743L34.4025 8.04066L33.0532 7.38531ZM24.7219 12.9211L34.0556 8.38762L33.4002 7.03836L24.0666 11.5718L24.7219 12.9211ZM20.2913 2.68625L23.6855 12.4918L25.103 12.0011L21.7087 2.19559L20.2913 2.68625Z" fill="#A2AAB5"/>
</svg>
