<svg width="40" height="41" viewBox="0 0 40 41" fill="none" xmlns="http://www.w3.org/2000/svg">
<path d="M24.3644 38.4114C13.9177 40.3173 3.93747 33.4929 2.05785 23.1904C0.524914 14.7881 4.84947 6.64864 12.1656 2.89736L15.7164 10.4089C11.7851 12.5815 9.47699 17.0524 10.3218 21.6827C11.3833 27.5009 17.0115 31.3324 22.8776 30.2621C24.1566 30.0288 25.3416 29.5798 26.4028 28.9619L31.1224 35.8087C29.1138 37.0575 26.8389 37.9599 24.3644 38.4114ZM31.5689 30.5057L28.6456 27.2287C30.2763 25.586 31.3585 23.4446 31.6723 21.1169L36.0802 21.3795C35.6863 24.869 34.0623 28.0902 31.5689 30.5057ZM31.5949 17.8016C30.5334 11.9833 24.9052 8.15185 19.039 9.22209C18.7679 9.27155 18.5015 9.33097 18.24 9.39943L16.1795 3.32759C16.7323 3.16911 17.2978 3.03603 17.8754 2.93066C27.3 1.21121 36.3022 7.36796 37.9976 16.6604C38.0864 17.1475 38.1524 17.6338 38.1975 18.1188L31.6918 18.448C31.6665 18.2333 31.6343 18.0177 31.5949 17.8016Z" stroke="#A2AAB5" stroke-width="1.5"/>
</svg>
