<svg width="40" height="41" viewBox="0 0 40 41" fill="none" xmlns="http://www.w3.org/2000/svg">
<path d="M20 13.2131C30.4934 13.2131 39 16.4491 39 20.4409C39 24.4327 30.4934 27.6687 20 27.6687C9.50659 27.6687 1 24.4327 1 20.4409C1 16.4491 9.50659 13.2131 20 13.2131Z" stroke="#A2AAB5" stroke-width="1.5"/>
<path d="M13.6011 16.827C18.8478 7.93761 25.966 2.34931 29.5001 4.3452C33.0341 6.3411 31.6458 15.1654 26.3991 24.0548C21.1523 32.9442 14.0341 38.5325 10.5001 36.5366C6.96603 34.5407 8.35441 25.7164 13.6011 16.827Z" stroke="#A2AAB5" stroke-width="1.5"/>
<path d="M13.6011 24.0548C8.35441 15.1654 6.96603 6.3411 10.5001 4.3452C14.0341 2.3493 21.1523 7.93761 26.399 16.827C31.6458 25.7164 33.0341 34.5407 29.5001 36.5366C25.966 38.5325 18.8478 32.9442 13.6011 24.0548Z" stroke="#A2AAB5" stroke-width="1.5"/>
</svg>
