<svg width="512" height="512" viewBox="0 0 512 512" fill="none" xmlns="http://www.w3.org/2000/svg">
<g clip-path="url(#clip0_121_4742)">
<path d="M291.772 107.461C287.702 107.622 280.347 109.612 276.835 120.976C267.032 150.609 250.627 186.263 232.956 216.332C192.614 284.647 157.558 317.333 146.23 318.151C146.157 317.924 146.072 317.533 146.05 316.954C145.376 299.506 156.165 273.68 167.584 246.34C181.299 213.509 195.476 179.562 194.358 150.609C193.218 121.087 168.569 100.605 135.747 101.908C78.8193 104.168 -2.34133 146.989 0.0517255 208.946C1.57767 248.453 46.415 268.257 69.0249 267.359C78.8949 266.968 83.145 260.501 82.9193 254.66C82.7797 251.045 81.0046 248.382 79.2879 245.804C76.456 241.555 72.1754 235.136 71.5704 219.471C70.3199 187.095 106.87 154.906 122.52 152.716C123.019 176.375 107.341 212.954 93.487 245.276C80.0434 276.64 68.435 303.725 69.1265 321.626C70.5264 357.871 104.576 376.108 135.902 374.865C162.283 373.818 189.992 348.818 209.918 326.02C192.29 377.797 169.096 424.981 124.723 426.742C110.345 427.313 104.101 424.097 99.5399 421.75C96.5927 420.234 93.5417 418.665 89.6577 418.82C81.8283 419.13 75.9375 425.588 76.244 433.525C76.9466 451.714 107.6 495.053 161.237 492.924C241.71 489.73 267.449 391.565 290.16 304.957C293.629 291.732 296.903 279.239 300.337 267.199C314.036 218.862 323.611 191.345 329.331 174.902C334.546 159.91 336.704 153.703 336.476 147.803C335.671 126.94 309.788 106.746 291.772 107.461Z" fill="black"/>
<path d="M359.233 129.619C366.974 143.249 379.804 138.161 383.939 132.44C415.663 102.74 421.425 56.2661 417.779 40.3565C414.229 24.9508 396.586 16.7851 382.475 19.5232C364.269 23.0521 356.432 49.6569 353.965 65.2777C351.499 80.8982 349.576 112.579 359.233 129.619Z" fill="black"/>
<path d="M403.683 163.269C389.626 183.376 441.848 189.307 472.508 176.827C492.045 168.874 513.371 155.568 512.995 131.773C512.838 121.841 508.733 112.029 501.797 105.012C489.793 92.8654 473.522 98.5024 462.886 108.362C455.291 115.402 450.302 124.962 443.399 132.669C437.787 138.935 431.205 144.308 423.948 148.496C416.549 152.765 408.812 155.932 403.683 163.269Z" fill="black"/>
</g>
<defs>
<clipPath id="clip0_121_4742">
<rect width="512" height="512" fill="white"/>
</clipPath>
</defs>
</svg>
