<svg width="25" height="24" viewBox="0 0 25 24" fill="none" xmlns="http://www.w3.org/2000/svg">
<path d="M17.1968 12.4697C16.9039 12.1768 16.4291 12.1768 16.1362 12.4697C15.8433 12.7626 15.8433 13.2374 16.1362 13.5303L17.1968 12.4697ZM19.6665 16L20.1968 16.5303C20.4897 16.2374 20.4897 15.7626 20.1968 15.4697L19.6665 16ZM16.1362 18.4697C15.8433 18.7626 15.8433 19.2374 16.1362 19.5303C16.4291 19.8232 16.9039 19.8232 17.1968 19.5303L16.1362 18.4697ZM5.6665 15.25C5.25229 15.25 4.9165 15.5858 4.9165 16C4.9165 16.4142 5.25229 16.75 5.6665 16.75V15.25ZM8.13617 11.5303C8.42907 11.8232 8.90394 11.8232 9.19683 11.5303C9.48973 11.2374 9.48973 10.7626 9.19683 10.4697L8.13617 11.5303ZM5.6665 8L5.13617 7.46967C4.84328 7.76256 4.84328 8.23744 5.13617 8.53033L5.6665 8ZM9.19683 5.53033C9.48973 5.23744 9.48973 4.76256 9.19683 4.46967C8.90394 4.17678 8.42907 4.17678 8.13617 4.46967L9.19683 5.53033ZM19.6665 8.75C20.0807 8.75 20.4165 8.41421 20.4165 8C20.4165 7.58579 20.0807 7.25 19.6665 7.25V8.75ZM16.1362 13.5303L19.1362 16.5303L20.1968 15.4697L17.1968 12.4697L16.1362 13.5303ZM19.1362 15.4697L16.1362 18.4697L17.1968 19.5303L20.1968 16.5303L19.1362 15.4697ZM5.6665 16.75H19.6665V15.25H5.6665V16.75ZM9.19683 10.4697L6.19683 7.46967L5.13617 8.53033L8.13617 11.5303L9.19683 10.4697ZM6.19683 8.53033L9.19683 5.53033L8.13617 4.46967L5.13617 7.46967L6.19683 8.53033ZM19.6665 7.25H5.6665V8.75H19.6665V7.25Z" fill="#E3E3E5"/>
</svg>
