<svg width="16" height="16" viewBox="0 0 16 16" fill="none" xmlns="http://www.w3.org/2000/svg">
<path d="M8 6.2506C7.46171 6.26739 6.66777 6.4911 6.66667 7.12494C6.6655 7.80016 7.33333 7.99994 8 7.99994C8.66667 7.99994 9.33333 8.15407 9.33333 8.87494C9.33333 9.41667 8.67094 9.65431 8 9.73292M8 6.2506C8.45672 6.24755 9 6.2506 9.33333 6.33327M8 6.2506L8 5.33333M8 9.73292C7.46667 9.73292 7.33333 9.74994 6.66667 9.66661M8 9.73292V10.6667M10.8858 3.17237C11.3784 3.18642 11.8667 3.38141 12.2426 3.75734C12.6186 4.13326 12.8136 4.6216 12.8276 5.11414C12.8415 5.60155 12.8485 5.84525 12.8628 5.90197C12.8934 6.0234 12.8578 5.9375 12.922 6.04502C12.952 6.09524 13.1195 6.27251 13.4542 6.62697C13.7926 6.98519 14 7.46837 14 8C14 8.53163 13.7926 9.01481 13.4542 9.37303C13.1195 9.72749 12.952 9.90476 12.922 9.95498C12.8578 10.0625 12.8934 9.9766 12.8628 10.098C12.8485 10.1548 12.8415 10.3985 12.8276 10.8859C12.8136 11.3784 12.6186 11.8667 12.2426 12.2427C11.8667 12.6186 11.3784 12.8136 10.8858 12.8276C10.3984 12.8415 10.1547 12.8485 10.098 12.8628C9.97659 12.8934 10.0625 12.8578 9.95497 12.922C9.90474 12.952 9.72749 13.1195 9.37303 13.4542C9.01481 13.7926 8.53163 14 8 14C7.46838 14 6.9852 13.7926 6.62698 13.4543C6.27249 13.1194 6.09525 12.952 6.04502 12.922C5.93751 12.8578 6.0234 12.8934 5.90198 12.8628C5.84526 12.8485 5.6015 12.8415 5.11414 12.8276C4.62159 12.8136 4.13324 12.6186 3.75731 12.2427C3.38138 11.8667 3.18639 11.3784 3.17234 10.8858C3.15844 10.3984 3.15149 10.1547 3.13719 10.098C3.10657 9.97658 3.14214 10.0625 3.07794 9.95496C3.04795 9.90474 2.88055 9.7275 2.54574 9.37301C2.20742 9.0148 2 8.53162 2 8C2 7.46838 2.20742 6.9852 2.54574 6.62699C2.88055 6.2725 3.04795 6.09526 3.07794 6.04504C3.14214 5.93752 3.10657 6.02342 3.13719 5.90199C3.15149 5.84527 3.15844 5.60156 3.17234 5.11417C3.18639 4.62162 3.38138 4.13327 3.75731 3.75734C4.13324 3.38141 4.62159 3.18642 5.11414 3.17237C5.60154 3.15846 5.84525 3.15151 5.90198 3.13721C6.0234 3.10659 5.9375 3.14217 6.04502 3.07796C6.09524 3.04797 6.2725 2.88055 6.62698 2.54575C6.9852 2.20742 7.46838 2 8 2C8.53163 2 9.01481 2.20742 9.37303 2.54576C9.7275 2.88056 9.90474 3.04796 9.95497 3.07795C10.0625 3.14216 9.97659 3.10658 10.098 3.1372C10.1547 3.15151 10.3984 3.15846 10.8858 3.17237Z" stroke="#A2AAB5" stroke-linecap="round" stroke-linejoin="round"/>
</svg>
