<svg width="90" height="20" viewBox="0 0 90 20" fill="none" xmlns="http://www.w3.org/2000/svg">
<path d="M2.22461 10.8129C2.22461 12.4418 2.85764 14.0041 3.98445 15.1559C5.11126 16.3078 6.63954 16.9549 8.23309 16.9549C9.82663 16.9549 11.3549 16.3078 12.4817 15.1559C13.6085 14.0041 14.2416 12.4418 14.2416 10.8129C14.2416 9.18392 13.6085 7.62168 12.4817 6.46983C11.3549 5.31798 9.82663 4.67088 8.23309 4.67088C6.63954 4.67088 5.11126 5.31798 3.98445 6.46983C2.85764 7.62168 2.22461 9.18392 2.22461 10.8129ZM13.367 4.71188C13.3617 4.93429 13.3999 5.15555 13.4795 5.36263C13.5591 5.5697 13.6784 5.75841 13.8304 5.91764C13.9824 6.07688 14.164 6.20341 14.3646 6.28981C14.5652 6.37621 14.7806 6.42072 14.9983 6.42072C15.2159 6.42072 15.4313 6.37621 15.6319 6.28981C15.8325 6.20341 16.0141 6.07688 16.1661 5.91764C16.3181 5.75841 16.4374 5.5697 16.517 5.36263C16.5966 5.15555 16.6348 4.93429 16.6295 4.71188C16.6191 4.2767 16.4426 3.86293 16.1379 3.55891C15.8331 3.25489 15.4241 3.08472 14.9983 3.08472C14.5724 3.08472 14.1634 3.25489 13.8586 3.55891C13.5539 3.86293 13.3774 4.2767 13.367 4.71188Z" fill="white"/>
<path d="M33.5719 15L33.5582 8.50395L30.4082 13.88H29.6139L26.4639 8.58795V15H24.7656V5.19995H26.2311L30.0385 11.696L33.7774 5.19995H35.2428L35.2565 15H33.5719ZM40.9686 15.0979C40.229 15.0979 39.5628 14.935 38.969 14.608C38.3899 14.2954 37.9065 13.8254 37.572 13.25C37.2433 12.662 37.079 12 37.079 11.262C37.079 10.525 37.2433 9.86695 37.572 9.28795C37.9065 8.71247 38.3899 8.24254 38.969 7.92995C39.5628 7.60295 40.229 7.43995 40.9686 7.43995C41.7169 7.43995 42.388 7.60295 42.9818 7.92995C43.5756 8.25695 44.0364 8.70995 44.3651 9.28795C44.7026 9.86695 44.8718 10.525 44.8718 11.262C44.8718 11.999 44.7026 12.662 44.3651 13.25C44.0383 13.8267 43.5588 14.2975 42.9818 14.608C42.388 14.935 41.7169 15.0979 40.9686 15.0979ZM40.9686 13.6C41.5986 13.6 42.119 13.385 42.5299 12.956C42.9407 12.526 43.1462 11.962 43.1462 11.262C43.1462 10.562 42.9407 9.99695 42.5299 9.56795C42.119 9.13795 41.5986 8.92395 40.9686 8.92395C40.3386 8.92395 39.8181 9.13895 39.4073 9.56795C39.0062 9.99795 38.8046 10.562 38.8046 11.262C38.8046 11.962 39.0052 12.527 39.4073 12.956C39.8181 13.386 40.3386 13.6 40.9686 13.6ZM49.7964 15.0979C49.0568 15.0979 48.3896 14.935 47.7968 14.608C47.2178 14.2953 46.7344 13.8254 46.3999 13.25C46.0702 12.662 45.9058 12 45.9058 11.262C45.9058 10.525 46.0702 9.86695 46.3999 9.28795C46.7344 8.71253 47.2178 8.24262 47.7968 7.92995C48.3896 7.60295 49.0568 7.43995 49.7964 7.43995C50.5448 7.43995 51.2149 7.60295 51.8096 7.92995C52.3862 8.24062 52.8654 8.71133 53.1919 9.28795C53.5304 9.86695 53.6987 10.525 53.6987 11.262C53.6987 11.999 53.5304 12.662 53.1919 13.25C52.8654 13.8266 52.3863 14.2973 51.8096 14.608C51.2158 14.935 50.5448 15.0979 49.7964 15.0979ZM49.7964 13.6C50.4264 13.6 50.9458 13.385 51.3577 12.956C51.7686 12.526 51.974 11.962 51.974 11.262C51.974 10.562 51.7686 9.99695 51.3577 9.56795C50.9468 9.13795 50.4254 8.92395 49.7964 8.92395C49.1654 8.92395 48.6459 9.13895 48.2351 9.56795C47.833 9.99795 47.6315 10.562 47.6315 11.262C47.6315 11.962 47.833 12.527 48.2351 12.956C48.6459 13.386 49.1654 13.6 49.7964 13.6ZM59.4861 7.43995C60.4086 7.43995 61.1481 7.71495 61.7048 8.26595C62.2624 8.81595 62.5402 9.63295 62.5402 10.716V15H60.8282V10.94C60.8282 10.287 60.6776 9.79695 60.3763 9.46995C60.075 9.13395 59.6455 8.96595 59.0889 8.96595C58.4589 8.96595 57.9609 9.16195 57.5961 9.55395C57.2312 9.93695 57.0482 10.492 57.0482 11.22V15H55.3363V7.52395H56.9661V8.48995C57.2498 8.14495 57.6049 7.88295 58.0343 7.70595C58.4969 7.52234 58.9899 7.43201 59.4861 7.43995ZM68.8206 5.19995C69.6521 5.19995 70.3731 5.33995 70.9845 5.61995C71.6057 5.89995 72.0802 6.30095 72.4089 6.82395C72.7376 7.34695 72.9019 7.96695 72.9019 8.68595C72.9019 9.39595 72.7376 10.016 72.4089 10.548C72.0802 11.071 71.6057 11.472 70.9845 11.752C70.3731 12.032 69.6512 12.172 68.8206 12.172H66.6567V15H64.8763V5.19995H68.8206ZM68.7384 10.632C69.5142 10.632 70.1031 10.464 70.5052 10.128C70.9063 9.79195 71.1078 9.31095 71.1078 8.68595C71.1078 8.06095 70.9072 7.57995 70.5052 7.24395C70.1041 6.90795 69.5142 6.73995 68.7384 6.73995H66.6567V10.632H68.7384ZM77.2425 7.43995C78.3195 7.43995 79.1413 7.70595 79.7077 8.23795C80.2829 8.76095 80.5705 9.55395 80.5705 10.618V15H78.9554V14.09C78.7331 14.4271 78.4188 14.69 78.0515 14.846C77.668 15.014 77.2024 15.0979 76.6545 15.0979C76.1067 15.0979 75.6274 15.005 75.2165 14.818C74.8327 14.6447 74.5016 14.369 74.2578 14.02C74.0386 13.6742 73.9242 13.2699 73.9291 12.858C73.9291 12.186 74.1707 11.649 74.655 11.248C75.148 10.838 75.9199 10.632 76.9695 10.632H78.8595V10.52C78.8595 9.99695 78.704 9.59595 78.3939 9.31595C78.0926 9.03595 77.6406 8.89595 77.038 8.89595C76.6271 8.89595 76.2212 8.96095 75.8191 9.09195C75.4548 9.20697 75.1154 9.39232 74.8193 9.63795L74.1482 8.36395C74.5636 8.04933 75.0327 7.81668 75.5315 7.67795C76.0884 7.51672 76.6637 7.4366 77.2425 7.43995ZM77.0096 13.824C77.4391 13.824 77.8177 13.726 78.1464 13.53C78.4839 13.325 78.7216 13.035 78.8586 12.662V11.794H77.0918C76.1057 11.794 75.6127 12.125 75.6127 12.788C75.6127 13.105 75.7359 13.358 75.9825 13.544C76.229 13.731 76.5714 13.824 77.0096 13.824ZM89.4825 7.52395L86.0586 15.602C85.7387 16.414 85.3503 16.983 84.8944 17.3099C84.4376 17.646 83.8849 17.8139 83.2363 17.8139C82.8683 17.8138 82.5029 17.7523 82.1543 17.632C81.8305 17.5294 81.5317 17.3576 81.2778 17.128L81.9626 15.84C82.3044 16.1677 82.754 16.3526 83.2226 16.358C83.5239 16.358 83.7704 16.278 83.9621 16.12C84.1637 15.961 84.3456 15.695 84.51 15.3219L84.6332 15.028L81.4421 7.52395H83.2226L85.5234 13.054L87.838 7.52395H89.4825Z" fill="white"/>
</svg>
