<svg width="24" height="14" viewBox="0 0 24 14" fill="none" xmlns="http://www.w3.org/2000/svg">
<g clip-path="url(#clip0_2505_108831)">
<path d="M15.4873 1.49658H9.17773V12.5034H15.4873V1.49658Z" fill="#7A7A7A"/>
<path d="M9.57854 7C9.57854 4.76704 10.6555 2.77834 12.3327 1.4966C11.1061 0.559281 9.55851 0 7.87639 0C3.89421 0 0.666016 3.13402 0.666016 7C0.666016 10.866 3.89421 14 7.87639 14C9.55851 14 11.1061 13.4408 12.3327 12.5034C10.6555 11.2216 9.57854 9.23296 9.57854 7Z" fill="#404040"/>
<path d="M23.9987 7C23.9987 10.866 20.7705 14 16.7883 14C15.1062 14 13.5586 13.4408 12.332 12.5034C14.0092 11.2216 15.0862 9.23296 15.0862 7C15.0862 4.76704 14.0092 2.77834 12.332 1.4966C13.5586 0.559281 15.1062 0 16.7883 0C20.7705 0 23.9987 3.13402 23.9987 7Z" fill="#B8B8B8"/>
</g>
<defs>
<clipPath id="clip0_2505_108831">
<rect width="23.3333" height="14" fill="white" transform="translate(0.666016)"/>
</clipPath>
</defs>
</svg>
