<svg width="12" height="14" viewBox="0 0 12 14" fill="none" xmlns="http://www.w3.org/2000/svg">
<path fill-rule="evenodd" clip-rule="evenodd" d="M6.25709 3.2288C7.02511 3.29503 7.79312 2.83141 8.27313 2.2436C8.74515 1.63924 9.05715 0.827898 8.97715 0C8.29714 0.0331159 7.45712 0.463623 6.97711 1.06799C6.5371 1.58956 6.16109 2.43402 6.25709 3.2288ZM7.1759 3.79853C7.67457 3.59589 8.29195 3.34502 8.96856 3.38532C9.40057 3.41844 10.6486 3.5509 11.4486 4.77619C11.4449 4.77904 11.4368 4.7845 11.4248 4.79261C11.2268 4.92581 9.9695 5.77196 9.98458 7.44202C9.99961 9.4317 11.5658 10.1737 11.7707 10.2708C11.7841 10.2771 11.7916 10.2807 11.7926 10.2817C11.7918 10.2844 11.7902 10.2897 11.7878 10.2975C11.747 10.4344 11.4776 11.3363 10.8646 12.2604C10.2966 13.1214 9.71258 13.9658 8.78456 13.9824C8.34784 13.9905 8.05365 13.8589 7.74732 13.7219C7.42514 13.5778 7.08952 13.4277 6.5605 13.4277C6.01249 13.4277 5.66152 13.5818 5.32367 13.7302C5.03021 13.8591 4.74665 13.9836 4.35245 13.999C3.45643 14.0321 2.77642 13.0883 2.2084 12.2273C1.04838 10.4887 0.160356 7.32611 1.36038 5.19014C1.9444 4.12215 3.00842 3.45155 4.15245 3.43499C4.65156 3.4256 5.12751 3.62127 5.54381 3.79241C5.86152 3.92303 6.14449 4.03936 6.3765 4.03936C6.58324 4.03936 6.85499 3.92893 7.1759 3.79853Z" fill="white"/>
</svg>
