<svg width="16" height="16" viewBox="0 0 16 16" fill="none" xmlns="http://www.w3.org/2000/svg">
<path d="M14.5 10.6667C14.5 10.3906 14.2761 10.1667 14 10.1667C13.7239 10.1667 13.5 10.3906 13.5 10.6667H14.5ZM2.5 10.6667C2.5 10.3906 2.27614 10.1667 2 10.1667C1.72386 10.1667 1.5 10.3906 1.5 10.6667H2.5ZM2.72801 13.1881L2.95501 12.7426L2.95501 12.7426L2.72801 13.1881ZM2.14532 12.6054L2.59083 12.3784L2.59083 12.3784L2.14532 12.6054ZM13.8547 12.6054L13.4092 12.3784L13.4092 12.3784L13.8547 12.6054ZM13.272 13.1881L13.499 13.6336L13.499 13.6336L13.272 13.1881ZM7.5 9.33341C7.5 9.60956 7.72386 9.83341 8 9.83341C8.27614 9.83341 8.5 9.60956 8.5 9.33341H7.5ZM8 2.66675L8.35355 2.31319C8.15829 2.11793 7.84171 2.11793 7.64645 2.31319L8 2.66675ZM4.97978 4.97986C4.78452 5.17512 4.78452 5.49171 4.97978 5.68697C5.17504 5.88223 5.49162 5.88223 5.68689 5.68697L4.97978 4.97986ZM10.3131 5.68697C10.5084 5.88223 10.825 5.88223 11.0202 5.68697C11.2155 5.49171 11.2155 5.17512 11.0202 4.97986L10.3131 5.68697ZM13.5 10.6667V11.2001H14.5V10.6667H13.5ZM11.8667 12.8334H4.13333V13.8334H11.8667V12.8334ZM2.5 11.2001V10.6667H1.5V11.2001H2.5ZM4.13333 12.8334C3.75171 12.8334 3.49557 12.833 3.29832 12.8169C3.1069 12.8013 3.01538 12.7733 2.95501 12.7426L2.50102 13.6336C2.72586 13.7482 2.96363 13.7929 3.21689 13.8136C3.46431 13.8338 3.76822 13.8334 4.13333 13.8334V12.8334ZM1.5 11.2001C1.5 11.5652 1.49961 11.8691 1.51983 12.1165C1.54052 12.3698 1.58526 12.6076 1.69982 12.8324L2.59083 12.3784C2.56007 12.318 2.53214 12.2265 2.51651 12.0351C2.50039 11.8378 2.5 11.5817 2.5 11.2001H1.5ZM2.95501 12.7426C2.79821 12.6627 2.67072 12.5352 2.59083 12.3784L1.69982 12.8324C1.87559 13.1774 2.15605 13.4578 2.50102 13.6336L2.95501 12.7426ZM13.5 11.2001C13.5 11.5817 13.4996 11.8378 13.4835 12.0351C13.4679 12.2265 13.4399 12.318 13.4092 12.3784L14.3002 12.8324C14.4147 12.6076 14.4595 12.3698 14.4802 12.1165C14.5004 11.8691 14.5 11.5652 14.5 11.2001H13.5ZM11.8667 13.8334C12.2318 13.8334 12.5357 13.8338 12.7831 13.8136C13.0364 13.7929 13.2741 13.7482 13.499 13.6336L13.045 12.7426C12.9846 12.7733 12.8931 12.8013 12.7017 12.8169C12.5044 12.833 12.2483 12.8334 11.8667 12.8334V13.8334ZM13.4092 12.3784C13.3293 12.5352 13.2018 12.6627 13.045 12.7426L13.499 13.6336C13.8439 13.4578 14.1244 13.1774 14.3002 12.8324L13.4092 12.3784ZM8.5 9.33341V2.66675H7.5V9.33341H8.5ZM5.68689 5.68697L8.35355 3.0203L7.64645 2.31319L4.97978 4.97986L5.68689 5.68697ZM7.64645 3.0203L10.3131 5.68697L11.0202 4.97986L8.35355 2.31319L7.64645 3.0203Z" fill="#A2AAB5"/>
</svg>
