<svg width="16" height="16" viewBox="0 0 16 16" fill="none" xmlns="http://www.w3.org/2000/svg">
<path d="M7.68681 11.0204C7.88207 10.8251 7.88207 10.5085 7.68681 10.3133C7.49154 10.118 7.17496 10.118 6.9797 10.3133L7.68681 11.0204ZM5.33325 12.6668L4.9797 13.0204C5.17496 13.2156 5.49154 13.2156 5.68681 13.0204L5.33325 12.6668ZM3.68681 10.3133C3.49154 10.118 3.17496 10.118 2.9797 10.3133C2.78444 10.5085 2.78444 10.8251 2.9797 11.0204L3.68681 10.3133ZM8.31303 4.97994C8.11777 5.1752 8.11777 5.49179 8.31303 5.68705C8.50829 5.88231 8.82488 5.88231 9.02014 5.68705L8.31303 4.97994ZM10.6666 3.3335L11.0201 2.97994C10.8249 2.78468 10.5083 2.78468 10.313 2.97994L10.6666 3.3335ZM12.313 5.68705C12.5083 5.88231 12.8249 5.88231 13.0201 5.68705C13.2154 5.49179 13.2154 5.17521 13.0201 4.97994L12.313 5.68705ZM10.1666 12.6668C10.1666 12.943 10.3904 13.1668 10.6666 13.1668C10.9427 13.1668 11.1666 12.943 11.1666 12.6668L10.1666 12.6668ZM5.83325 3.3335C5.83325 3.05735 5.60939 2.8335 5.33325 2.8335C5.05711 2.8335 4.83325 3.05735 4.83325 3.3335L5.83325 3.3335ZM6.9797 10.3133L4.9797 12.3133L5.68681 13.0204L7.68681 11.0204L6.9797 10.3133ZM5.68681 12.3133L3.68681 10.3133L2.9797 11.0204L4.9797 13.0204L5.68681 12.3133ZM9.02014 5.68705L11.0201 3.68705L10.313 2.97994L8.31303 4.97994L9.02014 5.68705ZM10.313 3.68705L12.313 5.68705L13.0201 4.97994L11.0201 2.97994L10.313 3.68705ZM11.1666 12.6668L11.1666 3.3335L10.1666 3.3335L10.1666 12.6668L11.1666 12.6668ZM4.83325 3.3335L4.83325 12.6668L5.83325 12.6668L5.83325 3.3335L4.83325 3.3335Z" fill="#A2AAB5"/>
</svg>
