<svg width="26" height="8" viewBox="0 0 26 8" fill="none" xmlns="http://www.w3.org/2000/svg">
<g clip-path="url(#clip0_2505_108825)">
<path d="M10.3017 0.141401L7.05866 7.87898H4.9428L3.34688 1.70404C3.24999 1.3237 3.16574 1.18436 2.87107 1.02413C2.38997 0.763128 1.59549 0.518255 0.896484 0.366275L0.943962 0.141401H4.34984C4.78398 0.141401 5.17425 0.430397 5.27282 0.930332L6.11568 5.40769L8.19877 0.141273H10.3017V0.141401ZM18.592 5.35273C18.6005 3.31054 15.7681 3.19804 15.7876 2.28577C15.7937 2.00813 16.058 1.71294 16.6366 1.63759C16.9234 1.60005 17.7137 1.57141 18.6099 1.98387L18.9615 0.343053C18.4799 0.168237 17.8602 0 17.0892 0C15.1108 0 13.7184 1.05174 13.7067 2.55773C13.6939 3.67166 14.7005 4.29325 15.4589 4.6634C16.239 5.04245 16.5008 5.28603 16.4978 5.62508C16.4923 6.14411 15.8756 6.37324 15.2993 6.38227C14.2932 6.39775 13.7094 6.11005 13.2441 5.89369L12.8813 7.58883C13.3489 7.80338 14.2122 7.99058 15.1072 8C17.21 8 18.5856 6.96129 18.592 5.35273ZM23.8164 7.87898H25.6676L24.0517 0.1414H22.343C21.9588 0.1414 21.6347 0.365113 21.4912 0.709068L18.4876 7.87898H20.5894L21.0067 6.72326H23.5747L23.8164 7.87898ZM21.583 5.1374L22.6365 2.23223L23.2429 5.1374H21.583ZM13.1616 0.141401L11.5065 7.87898H9.50492L11.1607 0.141401L13.1616 0.141401Z" fill="white"/>
</g>
<defs>
<clipPath id="clip0_2505_108825">
<rect width="24.7711" height="8" fill="white" transform="translate(0.896484)"/>
</clipPath>
</defs>
</svg>
