<svg width="16" height="16" viewBox="0 0 16 16" fill="none" xmlns="http://www.w3.org/2000/svg">
<path d="M4 5.33333H2.66667M4 10.6667H2.66667M4 8H2M4.66667 3.01037C5.62007 2.37218 6.76657 2 8 2C11.3137 2 14 4.68629 14 8C14 11.3137 11.3137 14 8 14C6.76657 14 5.62007 13.6278 4.66667 12.9896" stroke="#A2AAB5" stroke-linecap="round" stroke-linejoin="round"/>
<path d="M7.13301 6.06077H9.26634C9.85544 6.06077 10.333 6.49492 10.333 7.03047C10.333 7.56601 9.85544 8.00016 9.26634 8.00016M7.13301 6.06077V8.00016M7.13301 6.06077H6.33301M7.13301 6.06077V5.3335M9.26634 8.00016H7.13301M9.26634 8.00016C9.85544 8.00016 10.333 8.43431 10.333 8.96986C10.333 9.50541 9.85544 9.93956 9.26634 9.93956H7.13301M7.13301 8.00016V9.93956M7.13301 9.93956H6.33301M7.13301 9.93956V10.6668M8.73301 6.06077V5.3335M8.73301 10.6668V9.93956" stroke="#A2AAB5" stroke-linecap="round" stroke-linejoin="round"/>
</svg>
