<svg width="13" height="12" viewBox="0 0 13 12" fill="none" xmlns="http://www.w3.org/2000/svg">
<path fill-rule="evenodd" clip-rule="evenodd" d="M7.01966 2.37531C7.90783 2.36133 8.76605 2.68462 9.4088 3.27528L11.1864 1.56284C10.0592 0.542938 8.56596 -0.017005 7.01966 0.000393643C4.66531 0.000497012 2.51225 1.27955 1.45508 3.30611L3.52331 4.8519C4.01636 3.43028 5.39518 2.37531 7.01966 2.37531Z" fill="white"/>
<path fill-rule="evenodd" clip-rule="evenodd" d="M3.52437 7.14852C3.26371 6.40358 3.26371 5.59687 3.52437 4.85193V3.30615H1.45614C0.57191 5.0012 0.57191 6.99925 1.45614 8.6943L3.52437 7.14852Z" fill="white"/>
<path fill-rule="evenodd" clip-rule="evenodd" d="M7.01966 11.9999C8.70036 11.9999 10.1155 11.4683 11.1475 10.5517L9.13979 9.05171C8.58099 9.41669 7.86131 9.62502 7.01966 9.62502C5.39518 9.62502 4.01636 8.57006 3.52331 7.14844H1.45508V8.69422C2.51225 10.7208 4.66531 11.9998 7.01966 11.9999Z" fill="white"/>
<path fill-rule="evenodd" clip-rule="evenodd" d="M13.0002 6.13695C13.0007 5.72809 12.9648 5.31994 12.8929 4.91699H7.01953V7.22775H10.3835C10.2444 7.97352 9.79509 8.63216 9.13966 9.05102V10.551H11.1473C12.3229 9.50684 13.0002 7.96272 13.0002 6.13695Z" fill="white"/>
</svg>
