<svg width="40" height="40" viewBox="0 0 40 40" fill="none" xmlns="http://www.w3.org/2000/svg">
<path d="M29 23.2571V16.7428V16.74C29 15.7818 29 15.3024 28.7822 14.936C28.5905 14.6135 28.2841 14.3512 27.9078 14.1868C27.48 14 26.9203 14 25.8002 14H14.2002C13.0801 14 12.5196 14 12.0918 14.1868C11.7155 14.3512 11.4097 14.6135 11.218 14.936C11 15.3027 11 15.7827 11 16.7428V23.2571C11 24.2172 11 24.6973 11.218 25.064C11.4097 25.3866 11.7155 25.6488 12.0918 25.8131C12.5196 26 13.0801 26 14.2002 26H25.8002C26.9203 26 27.48 26 27.9078 25.8131C28.2841 25.6488 28.5905 25.3866 28.7822 25.064C29 24.6977 29 24.2181 29 23.2599V23.2571Z" stroke="#A2AAB5" stroke-width="1.5" stroke-linecap="round" stroke-linejoin="round"/>
</svg>
