<svg width="40" height="40" viewBox="0 0 40 40" fill="none" xmlns="http://www.w3.org/2000/svg">
<rect width="40" height="40" rx="8" fill="#1E2228"/>
<path d="M27 23.2571V16.7428V16.74C27 15.7818 27 15.3024 26.8306 14.936C26.6815 14.6135 26.4432 14.3512 26.1505 14.1868C25.8177 14 25.3825 14 24.5113 14H15.489C14.6178 14 14.1819 14 13.8492 14.1868C13.5565 14.3512 13.3187 14.6135 13.1695 14.936C13 15.3027 13 15.7827 13 16.7428V23.2571C13 24.2172 13 24.6973 13.1695 25.064C13.3187 25.3866 13.5565 25.6488 13.8492 25.8131C14.1819 26 14.6178 26 15.489 26H24.5113C25.3825 26 25.8177 26 26.1505 25.8131C26.4432 25.6488 26.6815 25.3866 26.8306 25.064C27 24.6977 27 24.2181 27 23.2599V23.2571Z" stroke="#E3E3E5" stroke-width="1.5" stroke-linecap="round" stroke-linejoin="round"/>
</svg>
