<svg width="40" height="40" viewBox="0 0 40 40" fill="none" xmlns="http://www.w3.org/2000/svg">
<rect width="40" height="40" rx="8" fill="#1E2228"/>
<path d="M16.5 12H15.2C14.0799 12 13.5198 12 13.092 12.218C12.7157 12.4097 12.4097 12.7157 12.218 13.092C12 13.5198 12 14.0799 12 15.2V16.5M23.5 12H24.8C25.9201 12 26.4802 12 26.908 12.218C27.2843 12.4097 27.5903 12.7157 27.782 13.092C28 13.5198 28 14.0799 28 15.2V16.5M28 23.5V24.8C28 25.9201 28 26.4802 27.782 26.908C27.5903 27.2843 27.2843 27.5903 26.908 27.782C26.4802 28 25.9201 28 24.8 28H23.5M12 23.5V24.8C12 25.9201 12 26.4802 12.218 26.908C12.4097 27.2843 12.7157 27.5903 13.092 27.782C13.5198 28 14.0799 28 15.2 28H16.5" stroke="#E3E3E5" stroke-width="1.5" stroke-linecap="round" stroke-linejoin="round"/>
</svg>
