<svg width="40" height="40" viewBox="0 0 40 40" fill="none" xmlns="http://www.w3.org/2000/svg">
<rect width="40" height="40" rx="8" fill="#1E2228"/>
<path d="M28 16.5H26.7C25.5799 16.5 25.0198 16.5 24.592 16.282C24.2157 16.0903 23.9097 15.7843 23.718 15.408C23.5 14.9802 23.5 14.4201 23.5 13.3V12M12 16.5H13.3C14.4201 16.5 14.9802 16.5 15.408 16.282C15.7843 16.0903 16.0903 15.7843 16.282 15.408C16.5 14.9802 16.5 14.4201 16.5 13.3V12M12 23.5H13.3C14.4201 23.5 14.9802 23.5 15.408 23.718C15.7843 23.9097 16.0903 24.2157 16.282 24.592C16.5 25.0198 16.5 25.5799 16.5 26.7V28M28 23.5H26.7C25.5799 23.5 25.0198 23.5 24.592 23.718C24.2157 23.9097 23.9097 24.2157 23.718 24.592C23.5 25.0198 23.5 25.5799 23.5 26.7V28" stroke="#E3E3E5" stroke-width="1.5" stroke-linecap="round" stroke-linejoin="round"/>
</svg>
