<svg width="48" height="48" viewBox="0 0 48 48" fill="none" xmlns="http://www.w3.org/2000/svg">
<path fill-rule="evenodd" clip-rule="evenodd" d="M16.5118 10.4696C17.1912 8.87112 18.2421 8.01669 18.9988 7.58286C21.1527 6.34797 23.4519 6.77625 25.3745 7.66743C25.5948 7.48338 25.831 7.31856 26.0823 7.17449C29.9098 4.98011 35.3859 8.26851 39.3994 15.1714C43.4128 22.0742 43.5427 28.4277 39.7151 30.6221C39.494 30.7489 39.2646 30.8577 39.0279 30.9483C38.7751 34.3963 37.0702 35.9613 35.8914 36.6371C35.1347 37.0709 33.8641 37.5474 32.1303 37.3324C31.4511 38.9308 30.4 39.7853 29.6433 40.2192C28.4243 40.9181 26.1617 41.5972 22.9749 40.0092C22.6023 40.3856 22.2276 40.6479 21.9178 40.8255C18.0903 43.0199 12.614 39.7316 8.60054 32.8287C4.58709 25.9258 4.4574 19.5723 8.28496 17.3779C8.61229 17.1902 9.05675 16.9883 9.60986 16.8558C9.85778 13.4222 11.5521 11.8522 12.7507 11.1649C13.5074 10.7311 14.7782 10.2546 16.5118 10.4696ZM38.4726 27.882C37.8259 28.2527 36.9932 28.2162 36.0664 27.8434C36.5588 30.7767 36.1205 33.0534 34.649 33.897C33.4651 34.5757 31.8064 34.2147 29.9994 33.0641C30.0994 35.1933 29.5849 36.8003 28.401 37.4791C26.8212 38.3847 24.3965 37.4398 21.9013 35.2349C21.8777 36.6007 21.4795 37.6243 20.6753 38.0854C18.584 39.2843 14.5501 36.2341 11.6653 31.2725C8.78054 26.3109 8.13733 21.3168 10.2286 20.1178C11.0448 19.6499 12.1573 19.8316 13.3814 20.519C12.7339 17.3169 13.1305 14.8015 14.6945 13.9048C15.8784 13.2261 17.5371 13.5872 19.3442 14.7378C19.2442 12.6085 19.7586 11.0015 20.9425 10.3228C22.3966 9.48914 24.5664 10.2216 26.8483 12.0627C26.9792 11.0492 27.3662 10.2927 28.026 9.9144C30.1173 8.71542 34.1512 11.7657 37.0359 16.7273C39.9207 21.6889 40.5639 26.683 38.4726 27.882Z" fill="#E3E3E5"/>
<path d="M16.5795 28.5404C14.9519 25.741 13.8698 22.9348 13.3814 20.519C15.294 21.5931 17.4796 23.9054 19.2386 26.9307C21.0141 29.9844 21.9389 33.0489 21.9013 35.2349C20.0624 33.61 18.1853 31.3023 16.5795 28.5404Z" fill="#D9D9D9"/>
<path d="M32.764 19.2616C34.5191 22.2803 35.6405 25.3072 36.0664 27.8434C33.9961 27.0108 31.4553 24.4965 29.4626 21.0692C27.4879 17.6729 26.5642 14.2619 26.8483 12.0627C28.8725 13.6959 30.9848 16.2015 32.764 19.2616Z" fill="#D9D9D9"/>
<path d="M22.8275 24.9583C20.6756 21.2572 19.4759 17.5435 19.3442 14.7378C21.7253 16.2539 24.3641 19.1425 26.516 22.8437C28.6679 26.5448 29.8677 30.2583 29.9994 33.0641C27.6183 31.5479 24.9794 28.6594 22.8275 24.9583Z" fill="#D9D9D9"/>
</svg>
