<svg width="958" height="958" viewBox="0 0 958 958" fill="none" xmlns="http://www.w3.org/2000/svg">
<circle cx="479" cy="479" r="479" fill="#DEDEDE"/>
<g clip-path="url(#clip0_4006_123650)">
<path d="M775.916 391.654C747.65 365.555 708.55 325.701 676.704 297.435L674.819 296.116C671.684 293.598 668.149 291.624 664.361 290.275C587.573 275.953 230.201 209.152 223.229 210C221.275 210.274 219.408 210.982 217.764 212.073L215.974 213.486C213.77 215.725 212.095 218.429 211.075 221.401L210.604 222.626V229.315V230.351C250.835 342.378 409.688 709.36 440.968 795.476C442.853 801.317 446.433 812.435 453.123 813H454.63C458.21 813 473.474 792.837 473.474 792.837C473.474 792.837 746.331 461.941 773.937 426.703C777.511 422.363 780.666 417.694 783.359 412.759C784.047 408.898 783.723 404.924 782.418 401.226C781.114 397.527 778.874 394.229 775.916 391.654ZM543.478 430.189L659.933 333.615L728.241 396.553L543.478 430.189ZM498.253 423.877L297.756 259.559L622.151 319.388L498.253 423.877ZM516.343 466.935L721.552 433.864L486.947 716.52L516.343 466.935ZM270.527 275.953L481.482 454.969L450.956 716.709L270.527 275.953Z" fill="#FF060A"/>
</g>
<defs>
<clipPath id="clip0_4006_123650">
<rect width="603" height="603" fill="white" transform="translate(196 210)"/>
</clipPath>
</defs>
</svg>
