<svg width="48" height="48" viewBox="0 0 48 48" fill="none" xmlns="http://www.w3.org/2000/svg">
<path fill-rule="evenodd" clip-rule="evenodd" d="M39.3733 14.6649C38.4038 11.5959 35.4394 8.62449 32.4737 7.47144C30.149 6.56764 26.8592 6.85014 24.0003 9.31598C21.0816 11.8334 20.1767 14.3387 19.3519 16.622C18.3814 19.3088 17.5219 21.6882 13.6231 23.4182C6.41106 26.6182 7.22553 33.9936 9.62557 36.7267C16.3596 44.3954 28.0799 44.4399 35.4344 32.9442C40.4093 25.1679 40.7765 19.1067 39.3733 14.6649ZM32.111 10.7158C32.111 10.7158 29.7497 9.12691 26.9667 10.9927C24.3729 12.7317 24.4206 15.9538 25.9869 14.9516C26.2107 14.8084 26.4431 14.6532 26.6836 14.4926C28.1266 13.5291 29.8654 12.368 31.8302 12.4028C34.4194 12.4486 32.111 10.7158 32.111 10.7158ZM12.0985 36.055C11.0506 33.9978 13.4006 34.4425 13.4006 34.4425C22.0046 36.6659 25.5851 34.87 28.2644 33.5261C28.7192 33.298 29.148 33.0829 29.5711 32.9027C32.4861 31.661 32.5568 33.8759 31.3646 35.4181C30.1724 36.9603 26.4319 40.2109 21.26 40.1689C17.7387 40.1403 13.1465 38.1123 12.0985 36.055Z" fill="#E3E3E5"/>
</svg>
