<svg width="18" height="18" viewBox="0 0 18 18" fill="none" xmlns="http://www.w3.org/2000/svg">
<g clip-path="url(#clip0_4574_85064)">
<path d="M9.00028 17.8656C4.11107 17.8656 0.134277 13.8888 0.134277 9.00053C0.134277 4.11221 4.11107 0.134521 9.00028 0.134521C13.8895 0.134521 17.8663 4.11132 17.8663 9.00053C17.8663 13.8897 13.8895 17.8665 9.00028 17.8665V17.8656Z" fill="white"/>
<path d="M9.00045 0.268884C13.8224 0.268884 17.732 4.17756 17.732 9.00045C17.732 13.8233 13.8233 17.732 9.00045 17.732C4.17756 17.732 0.268884 13.8224 0.268884 9.00045C0.268884 4.17846 4.17756 0.268884 9.00045 0.268884ZM9.00045 0C4.03774 0 0 4.03774 0 9.00045C0 13.9632 4.03774 18.0009 9.00045 18.0009C13.9632 18.0009 18.0009 13.9632 18.0009 9.00045C18.0009 4.03774 13.9632 0 9.00045 0Z" fill="#FF1954"/>
<path d="M2.09028 11.2412C1.86173 10.5349 1.73625 9.78293 1.73625 9.00048C1.73625 8.21803 1.86173 7.46605 2.09028 6.75978V6.74902H0.563023C0.372115 7.46694 0.269043 8.22161 0.269043 9.00048C0.269043 9.77935 0.371219 10.5331 0.563023 11.2519H2.09118V11.2412H2.09028Z" fill="#FF1954"/>
<path d="M15.9102 11.2412C16.1387 10.5349 16.2642 9.78293 16.2642 9.00048C16.2642 8.21803 16.1387 7.46605 15.9102 6.75978V6.74902H17.4383C17.6292 7.46694 17.7323 8.22161 17.7323 9.00048C17.7323 9.77935 17.6301 10.5331 17.4383 11.2519H15.9102V11.2412Z" fill="#FF1954"/>
<path d="M9.00065 16.3033C13.0339 16.3033 16.3035 13.0337 16.3035 9.0004C16.3035 4.96713 13.0339 1.69751 9.00065 1.69751C4.96737 1.69751 1.69775 4.96713 1.69775 9.0004C1.69775 13.0337 4.96737 16.3033 9.00065 16.3033Z" fill="#FF1954"/>
<path d="M3.60463 4.13637C4.10116 3.58516 4.69092 3.10027 5.36851 2.70949C6.04609 2.31871 6.76043 2.05073 7.48552 1.89567L7.49448 1.89029L6.73085 0.567383C6.01293 0.760979 5.30845 1.04958 4.63445 1.43857C3.96045 1.82755 3.35815 2.29362 2.83203 2.81794L3.59566 4.14085L3.60463 4.13547V4.13637Z" fill="#FF1954"/>
<path d="M10.5138 16.1045C11.2398 15.9494 11.9542 15.6814 12.6309 15.2907C13.3076 14.8999 13.8973 14.415 14.3947 13.8638L14.4037 13.8584L15.1673 15.1813C14.6412 15.7056 14.0389 16.1717 13.3649 16.5607C12.6909 16.9497 11.9864 17.2383 11.2685 17.4319L10.5049 16.109L10.5138 16.1036V16.1045Z" fill="#FF1954"/>
<path d="M7.48552 16.1045C6.75953 15.9494 6.0452 15.6814 5.36851 15.2907C4.69092 14.8999 4.10206 14.415 3.60463 13.8638L3.59566 13.8584L2.83203 15.1813C3.35815 15.7056 3.96045 16.1717 4.63445 16.5607C5.30845 16.9497 6.01293 17.2383 6.73085 17.4319L7.49448 16.109L7.48552 16.1036V16.1045Z" fill="#FF1954"/>
<path d="M14.3947 4.13637C13.8982 3.58516 13.3084 3.10027 12.6309 2.70949C11.9533 2.31871 11.2389 2.05073 10.5138 1.89567L10.5049 1.89029L11.2685 0.567383C11.9864 0.760979 12.6909 1.04958 13.3649 1.43857C14.0389 1.82755 14.6412 2.29362 15.1673 2.81794L14.4037 4.14085L14.3947 4.13547V4.13637Z" fill="#FF1954"/>
<path d="M7.50434 5.88508C7.50434 5.88508 6.88859 6.05448 6.48795 6.71503C6.08732 7.37559 6.23431 7.76548 6.31318 7.95728C6.39205 8.14908 6.60716 8.35254 6.4772 8.53896C6.34724 8.72539 5.92957 8.84908 5.14533 8.38122C4.36018 7.91247 4.24815 7.04935 4.76172 6.20774C5.27529 5.36613 6.47272 4.892 7.18885 4.72888C7.90587 4.56486 8.89984 4.56486 9.24402 5.46831C9.24402 5.46831 9.42506 6.12349 9.11943 6.95882C8.8147 7.79416 8.63992 8.22885 8.47053 8.60708C8.30113 8.98531 8.09767 9.42001 8.10395 9.93895C8.10395 9.93895 8.31816 10.0465 9.03518 9.22193C9.75221 8.39735 10.4235 7.24026 10.6099 6.87368C10.7964 6.5071 11.2535 5.52477 11.361 5.16268C11.4686 4.80148 11.7393 4.70557 12.0951 4.83553C12.4509 4.9655 12.6705 5.27023 12.7727 5.4226C12.8748 5.57497 12.8632 5.87253 12.6983 6.35025C12.5154 6.87816 12.3272 7.46074 12.1462 8.05856C11.9651 8.65638 11.7563 9.49261 11.6434 9.89324C11.5304 10.2939 11.0222 12.6045 10.0569 13.5348C9.54785 14.0251 8.36028 14.5261 7.17182 13.896C6.50319 13.542 6.22534 12.9227 6.43776 12.5695C6.63674 12.2388 7.15299 12.7578 7.76874 12.6152C8.37911 12.4736 8.83442 11.9359 9.05221 11.5917C9.35157 11.1194 9.49946 10.7662 9.68409 10.1872C9.68409 10.1872 9.04146 10.8612 8.6202 11.1059C8.23032 11.3318 7.26772 11.6383 6.44941 10.7806C5.63111 9.92282 6.62867 8.52462 6.95223 7.81119C7.25158 7.15063 7.52764 6.61465 7.50523 5.88598L7.50434 5.88508Z" fill="white"/>
</g>
<defs>
<clipPath id="clip0_4574_85064">
<rect width="18" height="18" fill="white"/>
</clipPath>
</defs>
</svg>
