<svg width="24" height="24" viewBox="0 0 24 24" fill="none" xmlns="http://www.w3.org/2000/svg">
<g clip-path="url(#clip0_4214_46599)">
<path d="M12.0006 23.8212C5.48166 23.8212 0.17926 18.5188 0.17926 12.001C0.17926 5.48328 5.48166 0.179688 12.0006 0.179688C18.5195 0.179688 23.8219 5.48208 23.8219 12.001C23.8219 18.52 18.5195 23.8224 12.0006 23.8224V23.8212Z" fill="white"/>
<path d="M12.0006 0C5.38366 0 0 5.38366 0 12.0006C0 18.6175 5.38366 24.0012 12.0006 24.0012C18.6175 24.0012 24.0012 18.6175 24.0012 12.0006C24.0012 5.38366 18.6175 0 12.0006 0ZM23.2507 8.99866H21.2646C20.8379 7.68053 20.1388 6.48429 19.2306 5.47926L20.2237 3.7596C22.7894 6.38391 23.314 9.23766 23.2507 8.99866ZM4.963 2.72589C5.03351 2.67211 5.10402 2.62072 5.17572 2.56814C5.10402 2.61953 5.03351 2.67211 4.963 2.72589ZM5.21994 2.53588C6.3385 1.73281 7.60404 1.12453 8.96997 0.757656C8.01514 1.01578 7.07703 1.40059 6.17836 1.91804C5.84494 2.11044 5.52587 2.31718 5.21874 2.53588H5.21994ZM9.56152 18.5279C8.67002 18.0559 8.29956 17.2301 8.58278 16.7592C8.84808 16.3183 9.53642 17.0102 10.3574 16.8202C11.1712 16.6314 11.7783 15.9144 12.0687 15.4555C12.4679 14.8257 12.665 14.3548 12.9112 13.5828C12.9112 13.5828 12.0544 14.4815 11.4927 14.8077C10.9729 15.1089 9.68939 15.5176 8.59832 14.3739C7.50724 13.2303 8.83732 11.366 9.26873 10.4148C9.66788 9.53403 10.036 8.8194 10.0061 7.84783C10.0061 7.84783 9.18508 8.07369 8.6509 8.95444C8.11672 9.83518 8.3127 10.355 8.41787 10.6108C8.52303 10.8665 8.80984 11.1378 8.63656 11.3863C8.46328 11.6349 7.90639 11.7998 6.86073 11.176C5.81387 10.551 5.66449 9.40019 6.34925 8.27805C7.03401 7.1559 8.62939 6.52373 9.58542 6.30623C10.5415 6.08754 11.8668 6.08754 12.3256 7.29214C12.3256 7.29214 12.567 8.16571 12.1595 9.27949C11.7532 10.3933 11.5202 10.9729 11.2943 11.4772C11.0685 11.9815 10.7972 12.5611 10.8056 13.253C10.8056 13.253 11.0912 13.3964 12.0472 12.297C13.0032 11.1975 13.8983 9.65473 14.1469 9.16596C14.3955 8.67719 15.0049 7.36743 15.1483 6.88463C15.2917 6.40303 15.6526 6.27516 16.1271 6.44844C16.6015 6.62172 16.8943 7.02803 17.0305 7.23119C17.1656 7.43435 17.1512 7.8311 16.9313 8.46806C16.6875 9.17194 16.4366 9.94871 16.1952 10.7458C15.9538 11.5441 15.6753 12.6579 15.5248 13.1921C15.3742 13.7262 14.6966 16.8071 13.4096 18.0475C12.7308 18.7012 11.1473 19.3692 9.56271 18.5291L9.56152 18.5279ZM15.0264 0.756461L14.0334 2.47612C13.3773 2.3363 12.6985 2.26221 12.0006 2.26221C11.3027 2.26221 10.6239 2.3375 9.96783 2.47612L8.97475 0.756461C9.93915 0.497137 10.9537 0.358512 12.0006 0.358512C13.0475 0.358512 14.0608 0.497137 15.0264 0.756461ZM3.77633 3.7596L4.76941 5.47926C3.86237 6.48429 3.16327 7.68053 2.73664 8.99866H0.750486C1.28586 6.98621 2.34706 5.18767 3.77752 3.7596H3.77633ZM0.750486 15.0013H2.73664C3.16327 16.3195 3.86237 17.5157 4.7706 18.5207L3.77752 20.2404C2.34706 18.8123 1.28586 17.0138 0.750486 15.0013ZM8.97475 23.2435L9.96783 21.5239C10.6239 21.6637 11.3027 21.7378 12.0006 21.7378C12.6985 21.7378 13.3773 21.6625 14.0334 21.5239L15.0264 23.2435C14.062 23.5029 13.0475 23.6415 12.0006 23.6415C10.9537 23.6415 9.94035 23.5029 8.97475 23.2435ZM20.2237 20.2404L19.2306 18.5207C20.1376 17.5157 20.8367 16.3195 21.2646 15.0013H23.2507C23.314 14.7623 22.4214 18.2734 20.2237 20.2404Z" fill="#FF1954"/>
</g>
<defs>
<clipPath id="clip0_4214_46599">
<rect width="24" height="24" fill="white"/>
</clipPath>
</defs>
</svg>
