<svg width="24" height="24" viewBox="0 0 24 24" fill="none" xmlns="http://www.w3.org/2000/svg">
<circle cx="12" cy="12" r="12" fill="#F3BA2F"/>
<path d="M13.8047 18.069V20.17L11.9731 21.2475L10.1953 20.17V18.069L11.9731 19.1465L13.8047 18.069ZM4 10.7963L5.77778 11.8737V15.4832L8.84848 17.3148V19.4158L4 16.5606V10.7963ZM19.9461 10.7963V16.5606L15.0438 19.4158V17.3148L18.1145 15.4832V11.8737L19.9461 10.7963ZM15.0438 7.94108L16.8754 9.01852V11.1195L13.8047 12.9512V16.6145L12.0269 17.6919L10.2492 16.6145V12.9512L7.07071 11.1195V9.01852L8.90236 7.94108L11.9731 9.77273L15.0438 7.94108ZM7.07071 12.6279L8.84848 13.7054V15.8064L7.07071 14.729V12.6279ZM16.8754 12.6279V14.729L15.0976 15.8064V13.7054L16.8754 12.6279ZM5.77778 6.10943L7.60943 7.18687L5.77778 8.26431V10.3653L4 9.28788V7.18687L5.77778 6.10943ZM18.1684 6.10943L20 7.18687V9.28788L18.1684 10.3653V8.26431L16.3906 7.18687L18.1684 6.10943ZM11.9731 6.10943L13.8047 7.18687L11.9731 8.26431L10.1953 7.18687L11.9731 6.10943ZM11.9731 2.5L16.8754 5.35522L15.0976 6.43266L12.0269 4.60101L8.90236 6.43266L7.12458 5.35522L11.9731 2.5Z" fill="white"/>
</svg>
