<svg width="48" height="48" viewBox="0 0 48 48" fill="none" xmlns="http://www.w3.org/2000/svg">
<circle cx="24" cy="24" r="24" fill="#4EF3DF"/>
<path d="M39.3731 13.6649C38.4035 10.5959 35.4392 7.62446 32.4734 6.47141C30.1487 5.56762 26.859 5.85011 24.0001 8.31595C17.6469 13.7956 20.8349 19.2181 13.6229 22.4181C6.41082 25.6182 7.22529 32.9936 9.62533 35.7267C16.3594 43.3954 28.0796 43.4399 35.4341 31.9442C40.4091 24.1679 40.7763 18.1066 39.3731 13.6649Z" fill="url(#paint0_linear_1045_79345)"/>
<path d="M32.1106 9.71584C32.1106 9.71584 29.5602 8.25369 26.9664 9.9927C24.3725 11.7317 24.4202 14.9538 25.9865 13.9516C27.5528 12.9495 29.5374 11.3623 31.8298 11.4028C34.1222 11.4433 32.1106 9.71584 32.1106 9.71584Z" fill="white"/>
<path d="M13.4004 33.4426C13.4004 33.4426 11.0503 32.9978 12.0983 35.0551C13.1462 37.1123 17.7384 39.1404 21.2597 39.169C26.4317 39.211 30.1721 35.9604 31.3643 34.4182C32.5565 32.876 32.4858 30.661 29.5708 31.9027C26.6558 33.1444 23.4649 36.0434 13.4004 33.4426Z" fill="#7B0059"/>
<defs>
<linearGradient id="paint0_linear_1045_79345" x1="13.0002" y1="10" x2="24.0001" y2="41.0909" gradientUnits="userSpaceOnUse">
<stop stop-color="#FF28B6"/>
<stop offset="0.744792" stop-color="#D70081"/>
<stop offset="1" stop-color="#1A8BAE"/>
</linearGradient>
</defs>
</svg>
