<svg width="48" height="48" viewBox="0 0 48 48" fill="none" xmlns="http://www.w3.org/2000/svg">
<circle cx="24" cy="24" r="24" fill="#1A0E01"/>
<path d="M38.122 27.8821C37.4753 28.2529 36.6425 28.2163 35.7157 27.8436C36.2082 30.7769 35.7699 33.0535 34.2983 33.8971C33.1145 34.5759 31.4557 34.2148 29.6487 33.0642C29.7487 35.1935 29.2342 36.8004 28.0503 37.4792C26.4706 38.3849 24.0459 37.4399 21.5506 35.235C21.5271 36.6008 21.1288 37.6245 20.3247 38.0855C18.2333 39.2845 14.1994 36.2343 11.3146 31.2727C8.42988 26.3111 7.78668 21.3169 9.87799 20.1179C10.6941 19.65 11.8066 19.8317 13.0307 20.5191C12.3832 17.317 12.7799 14.8016 14.3438 13.905C15.5278 13.2262 17.1865 13.5873 18.9935 14.7379C18.8935 12.6086 19.408 11.0016 20.5919 10.3229C22.0459 9.48926 24.2158 10.2217 26.4976 12.0629C26.6286 11.0494 27.0155 10.2928 27.6753 9.91452C29.7666 8.71554 33.8005 11.7658 36.6853 16.7274C39.57 21.689 40.2133 26.6831 38.122 27.8821Z" fill="#FFD400"/>
<path d="M18.9988 7.58286C18.2421 8.01669 17.1912 8.87112 16.5118 10.4696C14.7782 10.2546 13.5074 10.7311 12.7507 11.1649C11.5521 11.8522 9.85778 13.4222 9.60986 16.8558C9.05675 16.9883 8.61229 17.1902 8.28496 17.3779C4.4574 19.5723 4.58709 25.9258 8.60054 32.8287C12.614 39.7316 18.0903 43.0199 21.9178 40.8255C22.2276 40.6479 22.6023 40.3856 22.9749 40.0092C26.1617 41.5972 28.4243 40.9181 29.6433 40.2192C30.4 39.7853 31.4511 38.9308 32.1303 37.3324C33.8641 37.5474 35.1347 37.0709 35.8914 36.6371C37.0702 35.9613 38.7751 34.3963 39.0279 30.9483C39.2646 30.8577 39.494 30.7489 39.7151 30.6221C43.5427 28.4277 43.4128 22.0742 39.3994 15.1714C35.3859 8.26851 29.9098 4.98011 26.0823 7.17449C25.831 7.31856 25.5948 7.48338 25.3745 7.66743C23.4519 6.77625 21.1527 6.34797 18.9988 7.58286Z" fill="#FFD400"/>
<path d="M21.5506 35.235C21.5271 36.6008 21.1288 37.6245 20.3247 38.0855C18.2333 39.2845 14.1994 36.2343 11.3146 31.2727C8.42988 26.3111 7.78668 21.3169 9.87799 20.1179C10.6941 19.65 11.8066 19.8317 13.0307 20.5191C13.5192 22.9349 14.6012 25.7411 16.2288 28.5405C17.8347 31.3024 19.7118 33.6101 21.5506 35.235Z" fill="#1A0E01"/>
<path d="M38.122 27.8821C37.4753 28.2529 36.6425 28.2163 35.7157 27.8436C35.2899 25.3073 34.1684 22.2804 32.4133 19.2617C30.6341 16.2016 28.5218 13.6961 26.4976 12.0629C26.6286 11.0494 27.0155 10.2928 27.6753 9.91452C29.7666 8.71554 33.8005 11.7658 36.6853 16.7274C39.57 21.689 40.2133 26.6831 38.122 27.8821Z" fill="#1A0E01"/>
<path d="M29.6487 33.0642C29.7487 35.1935 29.2342 36.8004 28.0503 37.4792C26.4706 38.3849 24.0459 37.4399 21.5506 35.235C21.5882 33.049 20.6634 29.9845 18.888 26.9309C17.129 23.9055 14.9433 21.5932 13.0307 20.5191C12.3832 17.317 12.7799 14.8016 14.3438 13.905C15.5278 13.2262 17.1865 13.5873 18.9935 14.7379C19.1252 17.5436 20.3249 21.2573 22.4768 24.9584C24.6287 28.6596 27.2676 31.548 29.6487 33.0642Z" fill="#1A0E01"/>
<path d="M35.7157 27.8436C36.2082 30.7769 35.7699 33.0535 34.2983 33.8971C33.1145 34.5759 31.4557 34.2148 29.6487 33.0642C29.517 30.2584 28.3172 26.5449 26.1653 22.8438C24.0135 19.1427 21.3746 16.254 18.9935 14.7379C18.8935 12.6086 19.408 11.0016 20.5919 10.3229C22.0459 9.48926 24.2158 10.2217 26.4976 12.0629C26.2135 14.262 27.1373 17.673 29.1119 21.0693C31.1046 24.4966 33.6454 27.0109 35.7157 27.8436Z" fill="#1A0E01"/>
</svg>
