<svg width="958" height="958" viewBox="0 0 958 958" fill="none" xmlns="http://www.w3.org/2000/svg">
<circle cx="479" cy="479" r="479" fill="white"/>
<g clip-path="url(#clip0_4006_123650)">
<path d="M261.607 612.197C265.493 608.301 270.837 606.028 276.505 606.028H790.474C799.866 606.028 804.562 617.391 797.923 624.047L696.392 725.831C692.506 729.728 687.162 732 681.494 732H167.525C158.133 732 153.437 720.637 160.076 713.981L261.607 612.197Z" fill="url(#paint0_linear_4006_123650)"/>
<path d="M261.607 232.169C265.655 228.273 270.999 226 276.505 226H790.474C799.866 226 804.562 237.363 797.923 244.019L696.392 345.804C692.506 349.7 687.162 351.972 681.494 351.972H167.525C158.133 351.972 153.437 340.609 160.076 333.953L261.607 232.169Z" fill="url(#paint1_linear_4006_123650)"/>
<path d="M696.392 420.965C692.506 417.069 687.162 414.796 681.494 414.796H167.525C158.133 414.796 153.437 426.159 160.076 432.815L261.607 534.6C265.493 538.496 270.837 540.768 276.505 540.768H790.474C799.866 540.768 804.562 529.405 797.923 522.749L696.392 420.965Z" fill="url(#paint2_linear_4006_123650)"/>
</g>
<defs>
<linearGradient id="paint0_linear_4006_123650" x1="741.375" y1="165.197" x2="384.27" y2="847.491" gradientUnits="userSpaceOnUse">
<stop stop-color="#00FFA3"/>
<stop offset="1" stop-color="#DC1FFF"/>
</linearGradient>
<linearGradient id="paint1_linear_4006_123650" x1="585.84" y1="83.7918" x2="228.736" y2="766.086" gradientUnits="userSpaceOnUse">
<stop stop-color="#00FFA3"/>
<stop offset="1" stop-color="#DC1FFF"/>
</linearGradient>
<linearGradient id="paint2_linear_4006_123650" x1="663.112" y1="124.235" x2="306.008" y2="806.529" gradientUnits="userSpaceOnUse">
<stop stop-color="#00FFA3"/>
<stop offset="1" stop-color="#DC1FFF"/>
</linearGradient>
<clipPath id="clip0_4006_123650">
<rect width="644" height="506" fill="white" transform="translate(157 226)"/>
</clipPath>
</defs>
</svg>
