<svg width="157" height="39" viewBox="0 0 157 39" fill="none" xmlns="http://www.w3.org/2000/svg">
<g clip-path="url(#clip0_890_78949)">
<path opacity="0.6" d="M14.2119 26.0477C14.3366 26.8607 14.1834 27.6911 13.752 28.5387C13.3209 29.3866 12.5699 30.1783 11.4994 30.9135L9.52036 32.273L13.0638 36.5643L9.87103 38.7574L0 26.8027L5.17176 23.2501C6.21718 22.5318 7.23693 22.0894 8.23071 21.9226C9.22449 21.7563 10.1409 21.8383 10.9801 22.1693C11.8189 22.5004 12.5479 23.0406 13.1668 23.7899C13.7386 24.4824 14.087 25.2352 14.2119 26.0477ZM10.3838 27.4361C10.4671 26.97 10.3119 26.4982 9.91811 26.0214C9.52436 25.5447 9.07041 25.2784 8.55597 25.2222C8.04154 25.1665 7.47917 25.3482 6.86943 25.7669L5.13324 26.9596L7.60785 29.9568L9.34432 28.7641C9.95406 28.3454 10.301 27.9027 10.3838 27.4361Z" fill="#E3E3E5"/>
<path opacity="0.6" d="M19.8711 18.6479C20.2634 17.9978 20.8277 17.4732 21.5647 17.074L23.724 20.3923L22.7793 20.9037C21.9217 21.368 21.3878 21.8843 21.1778 22.4524C20.9675 23.021 21.137 23.7265 21.6857 24.5697L24.7755 29.3181L21.3385 31.1788L14.6819 20.9487L18.1189 19.0882L19.2282 20.7931C19.2647 20.0134 19.4787 19.2983 19.8711 18.6479Z" fill="#E3E3E5"/>
<path opacity="0.6" d="M31.5758 25.2664C30.4211 25.1961 29.3691 24.8495 28.4199 24.2267C27.4706 23.604 26.7171 22.729 26.1592 21.6022C25.6077 20.4881 25.3917 19.3959 25.5116 18.325C25.6314 17.2546 26.048 16.2995 26.7607 15.46C27.4737 14.6207 28.4124 13.9612 29.5771 13.4816C30.7412 13.0022 31.9048 12.7961 33.0666 12.8635C34.2285 12.9312 35.2887 13.2781 36.2485 13.904C37.2081 14.5304 37.9639 15.4006 38.5152 16.5145C39.0667 17.6288 39.2787 18.7226 39.152 19.7961C39.025 20.8699 38.6016 21.8278 37.8817 22.67C37.1613 23.5124 36.2189 24.1731 35.0548 24.6525C33.8901 25.1321 32.7302 25.3369 31.5758 25.2664ZM35.0639 20.3447C35.323 19.6767 35.2379 18.9089 34.8082 18.0408C34.3788 17.1731 33.8105 16.6037 33.104 16.3333C32.3973 16.0629 31.6959 16.071 31.0003 16.3575C30.2902 16.65 29.8148 17.1226 29.5737 17.7753C29.3326 18.4283 29.4299 19.1952 29.8659 20.0759C30.2956 20.9438 30.8562 21.5158 31.549 21.7922C32.2409 22.0685 32.9354 22.0633 33.6313 21.7768C34.3269 21.4903 34.8048 21.013 35.0639 20.3447Z" fill="#E3E3E5"/>
<path opacity="0.6" d="M47.2757 16.668L47.3143 7.7995L51.3892 6.68567L50.7002 19.2928L45.9761 20.5841L37.7985 10.4006L41.896 9.28054L47.2757 16.668Z" fill="#E3E3E5"/>
<path opacity="0.6" d="M54.6961 8.80949C55.041 7.82603 55.6028 7.02735 56.3817 6.41344C57.1601 5.80005 58.0808 5.41776 59.1434 5.26734C60.0516 5.13878 60.8773 5.19447 61.62 5.43467C62.3624 5.67461 62.9653 6.04234 63.4281 6.53784L63.1447 4.87359L67.0942 4.31433L69.0949 16.0697L65.1451 16.6287L64.8618 14.9645C64.5699 15.5667 64.1103 16.0848 63.4826 16.5189C62.8546 16.953 62.0865 17.2343 61.178 17.3628C60.1306 17.5112 59.1337 17.3972 58.1867 17.0206C57.2394 16.6443 56.4374 16.0315 55.7806 15.1823C55.1235 14.3334 54.6923 13.3049 54.4866 12.0969C54.2812 10.8891 54.3508 9.79346 54.6961 8.80949ZM62.963 8.73948C62.3279 8.29733 61.6177 8.13156 60.8325 8.24294C60.047 8.35406 59.4244 8.70487 58.9653 9.29458C58.506 9.8848 58.3528 10.6294 58.5057 11.528C58.6586 12.4268 59.0532 13.1009 59.6895 13.55C60.3255 13.9995 61.0365 14.1684 61.8217 14.0573C62.6072 13.9461 63.2286 13.5922 63.6871 12.995C64.1451 12.3982 64.298 11.65 64.1448 10.7511C63.9919 9.85253 63.5978 9.18189 62.963 8.73948Z" fill="#E3E3E5"/>
<path opacity="0.6" d="M76.8529 4.27637C77.5479 3.92504 78.3471 3.74261 79.251 3.72934C80.3261 3.71347 81.3039 3.94768 82.1855 4.43225C83.0666 4.91683 83.7688 5.61714 84.2918 6.53319C84.8142 7.4495 85.0867 8.51857 85.1084 9.74067C85.1301 10.963 84.8958 12.0433 84.4062 12.9812C83.9163 13.9196 83.2395 14.6478 82.3761 15.1649C81.5125 15.6822 80.5435 15.9487 79.4684 15.9649C78.5488 15.9784 77.7436 15.823 77.0523 15.4993C76.3607 15.1758 75.8151 14.7394 75.416 14.1911L75.4456 15.8537L71.4491 15.9128L71.1689 0.138787L75.1652 0.0797119L75.2642 5.64316C75.6283 5.08338 76.1578 4.62796 76.8529 4.27637ZM80.1743 7.6707C79.6116 7.16037 78.9254 6.91106 78.1154 6.92303C77.3208 6.93474 76.6514 7.20773 76.1079 7.74149C75.5641 8.27577 75.3004 8.99742 75.3167 9.9067C75.3327 10.8165 75.622 11.5301 76.1843 12.0474C76.7467 12.5651 77.4255 12.818 78.2201 12.8063C79.0148 12.7946 79.6875 12.518 80.2391 11.9769C80.7906 11.4356 81.0582 10.7103 81.042 9.80078C81.0257 8.8915 80.7364 8.18156 80.1743 7.6707Z" fill="#E3E3E5"/>
<path opacity="0.6" d="M92.3989 0.630637L90.8895 16.3466L86.9078 16.0284L88.4175 0.312622L92.3989 0.630637Z" fill="#E3E3E5"/>
<path opacity="0.6" d="M108.891 7.01513L97.3245 22.8969L93.0966 22.1784L97.2537 16.726L94.3454 4.54309L98.7343 5.28894L100.204 13.1071L104.64 6.29244L108.891 7.01513Z" fill="#E3E3E5"/>
<path opacity="0.6" d="M127.694 9.60738L126.587 12.3482L120.315 10.2408L119.119 13.2016L123.812 14.7784L122.738 17.4391L118.044 15.8623L115.75 21.5436L112 20.2835L117.671 6.24011L127.694 9.60738Z" fill="#E3E3E5"/>
<path opacity="0.6" d="M128.148 16.0478C129.065 15.4433 130.037 15.105 131.064 15.0329C132.09 14.9608 133.079 15.1518 134.032 15.6062C134.846 15.9945 135.474 16.4866 135.916 17.0818C136.357 17.6769 136.603 18.2994 136.652 18.9487L137.508 17.456L141.05 19.145L135.008 29.6874L131.466 27.9984L132.321 26.5059C131.694 26.8325 130.987 27.0004 130.199 27.0097C129.411 27.0188 128.61 26.8294 127.795 26.4408C126.856 25.993 126.128 25.3614 125.611 24.5455C125.094 23.7296 124.847 22.8021 124.872 21.763C124.896 20.7241 125.218 19.6631 125.839 18.5797C126.46 17.4966 127.229 16.6529 128.148 16.0478ZM134.845 20.4685C134.622 19.7688 134.158 19.2509 133.454 18.9152C132.75 18.5792 132.021 18.5243 131.267 18.7502C130.513 18.9763 129.905 19.4924 129.443 20.2983C128.981 21.1046 128.86 21.8606 129.08 22.5666C129.299 23.2727 129.761 23.7937 130.465 24.1296C131.169 24.4653 131.9 24.5171 132.658 24.2847C133.415 24.0526 134.025 23.5334 134.487 22.7272C134.948 21.9215 135.068 21.1683 134.845 20.4685Z" fill="#E3E3E5"/>
<path opacity="0.6" d="M147.573 23.1108L140.386 33.0375L137.051 31.0287L144.238 21.1017L147.573 23.1108ZM145.57 19.7454C145.427 19.2082 145.523 18.7078 145.858 18.2453C146.201 17.7712 146.672 17.4883 147.27 17.3972C147.869 17.3061 148.46 17.4368 149.045 17.7891C149.618 18.1337 149.975 18.5751 150.118 19.1125C150.261 19.6499 150.161 20.156 149.817 20.6302C149.482 21.0926 149.016 21.3698 148.417 21.4606C147.82 21.5517 147.235 21.425 146.662 21.0804C146.077 20.7278 145.713 20.283 145.57 19.7454Z" fill="#E3E3E5"/>
<path opacity="0.6" d="M154.772 28.5255C155.579 28.6194 156.322 28.9054 157 29.384L154.409 32.4351L153.541 31.8214C152.752 31.2645 152.03 31.0014 151.373 31.0319C150.716 31.0623 150.059 31.4654 149.4 32.2407L145.694 36.6062L142.534 34.3741L150.52 24.9688L153.68 27.2008L152.349 28.7685C153.157 28.5127 153.965 28.4318 154.772 28.5255Z" fill="#E3E3E5"/>
</g>
<defs>
<clipPath id="clip0_890_78949">
<rect width="157" height="38.6776" fill="white" transform="translate(0 0.0797119)"/>
</clipPath>
</defs>
</svg>
