<svg width="24" height="24" viewBox="0 0 24 24" fill="none" xmlns="http://www.w3.org/2000/svg">
<path d="M19 9C19 9.89192 18.0147 10.5824 17.6936 11.3578C17.3599 12.1616 17.5561 13.3431 16.9496 13.9496C16.3431 14.5561 15.1626 14.3599 14.3578 14.6936C13.5824 15.0157 12.8919 16 12 16C11.1081 16 10.4176 15.0147 9.64218 14.6936C8.86674 14.3725 7.65687 14.5561 7.05037 13.9496C6.44386 13.3431 6.64008 12.1626 6.3064 11.3578C5.97272 10.553 5 9.89192 5 9C5 8.10808 5.98531 7.41763 6.3064 6.64218C6.62749 5.86674 6.44386 4.65687 7.05037 4.05037C7.65687 3.44386 8.83736 3.64008 9.64218 3.3064C10.447 2.97272 11.107 2 11.999 2C12.8909 2 13.5813 2.98531 14.3568 3.3064C15.1322 3.62749 16.3421 3.44386 16.9486 4.05037C17.5551 4.65687 17.3589 5.83736 17.6926 6.64218C18.0147 7.41763 19 8.10808 19 9Z" stroke="#DB2D59" stroke-width="1.5" stroke-miterlimit="10"/>
<path d="M14 18.5L16.0792 22L17.5 19.5L20 20L18 16.5" stroke="#DB2D59" stroke-width="1.5" stroke-linecap="round" stroke-linejoin="round"/>
<path d="M10 18.5L7.92082 22L6.5 19.5L4 20L6 16.5" stroke="#DB2D59" stroke-width="1.5" stroke-linecap="round" stroke-linejoin="round"/>
<path d="M14.25 9C14.25 10.2426 13.2426 11.25 12 11.25C10.7574 11.25 9.75 10.2426 9.75 9C9.75 7.75736 10.7574 6.75 12 6.75C13.2426 6.75 14.25 7.75736 14.25 9Z" stroke="#DB2D59" stroke-width="1.5"/>
</svg>
