<?xml version="1.0" encoding="UTF-8"?>
<svg id="Layer_1" xmlns="http://www.w3.org/2000/svg" version="1.1" viewBox="0 0 24 24">
  <!-- Generator: Adobe Illustrator 29.1.0, SVG Export Plug-In . SVG Version: 2.1.0 Build 142)  -->
  <defs>
    <style>
      .st0 {
        stroke: #db2d59;
        stroke-linecap: round;
        stroke-linejoin: round;
      }

      .st0, .st1, .st2 {
        fill: none;
        stroke-width: 1.5px;
      }

      .st1 {
        stroke-miterlimit: 10;
      }

      .st1, .st2 {
        stroke: #fff;
      }
    </style>
  </defs>
  <path class="st1" d="M19,9c0,.9-1,1.6-1.3,2.4-.3.8-.1,2-.7,2.6-.6.6-1.8.4-2.6.7-.8.3-1.5,1.3-2.4,1.3s-1.6-1-2.4-1.3c-.8-.3-2-.1-2.6-.7-.6-.6-.4-1.8-.7-2.6-.3-.8-1.3-1.5-1.3-2.4s1-1.6,1.3-2.4c.3-.8.1-2,.7-2.6.6-.6,1.8-.4,2.6-.7.8-.3,1.5-1.3,2.4-1.3s1.6,1,2.4,1.3c.8.3,2,.1,2.6.7.6.6.4,1.8.7,2.6.3.8,1.3,1.5,1.3,2.4Z"/>
  <path class="st0" d="M14,18.5l2.1,3.5,1.4-2.5,2.5.5-2-3.5"/>
  <path class="st0" d="M10,18.5l-2.1,3.5-1.4-2.5-2.5.5,2-3.5"/>
  <path class="st2" d="M14.2,9c0,1.2-1,2.2-2.2,2.2s-2.2-1-2.2-2.2,1-2.2,2.2-2.2,2.2,1,2.2,2.2Z"/>
</svg>