<svg width="24" height="24" viewBox="0 0 24 24" fill="none" xmlns="http://www.w3.org/2000/svg">
<path d="M20.8376 3.98133L20.1129 4.17451L20.1138 4.17775L20.8376 3.98133ZM20.5232 3.66681L20.7293 2.94565L20.7216 2.94354L20.5232 3.66681ZM7.27659 6.99029L7.8055 7.52205L7.80781 7.51973L7.27659 6.99029ZM3.95445 20.2842L4.65943 20.028L4.65476 20.0158L3.95445 20.2842ZM4.21645 20.5463L3.92789 21.2386L3.93843 21.243L3.94911 21.2471L4.21645 20.5463ZM9.03316 14.4992C8.74487 14.7966 8.75227 15.2714 9.04969 15.5597C9.34711 15.848 9.82193 15.8406 10.1102 15.5432L9.03316 14.4992ZM15.4759 10.0075C15.7642 9.71011 15.7568 9.23529 15.4594 8.947C15.162 8.65871 14.6872 8.66611 14.3989 8.96353L15.4759 10.0075ZM10.2393 12.5944C9.94128 12.3067 9.46648 12.3151 9.1788 12.6131C8.89112 12.9112 8.8995 13.386 9.19752 13.6736L10.2393 12.5944ZM10.9896 15.4035C11.2876 15.6912 11.7624 15.6828 12.0501 15.3848C12.3378 15.0868 12.3294 14.612 12.0314 14.3243L10.9896 15.4035ZM11.8862 10.8451C11.589 10.5565 11.1142 10.5635 10.8257 10.8607C10.5371 11.1579 10.5441 11.6327 10.8413 11.9212L11.8862 10.8451ZM12.6229 13.6511C12.9201 13.9397 13.3949 13.9327 13.6834 13.6355C13.972 13.3383 13.965 12.8635 13.6678 12.575L12.6229 13.6511ZM13.6364 9.05229C13.3392 8.76374 12.8644 8.77073 12.5758 9.06791C12.2873 9.36508 12.2943 9.8399 12.5914 10.1285L13.6364 9.05229ZM14.373 11.8583C14.6702 12.1469 15.145 12.1399 15.4336 11.8427C15.7221 11.5456 15.7151 11.0707 15.418 10.7822L14.373 11.8583ZM21.5623 3.78816C21.4464 3.35327 21.1063 3.05345 20.7293 2.94569L20.3171 4.38793C20.2335 4.36405 20.145 4.29488 20.1129 4.17451L21.5623 3.78816ZM20.7216 2.94354C18.6988 2.38858 16.1466 2.33767 13.6473 2.87735C11.1455 3.41757 8.637 4.56283 6.74536 6.46086L7.80781 7.51973C9.4479 5.8741 11.6711 4.83865 13.9639 4.34356C16.2591 3.84793 18.5643 3.9071 20.3248 4.39008L20.7216 2.94354ZM6.74768 6.45855C2.91938 10.2664 1.47809 15.9196 3.25414 20.5527L4.65476 20.0158C3.11915 16.0099 4.33976 10.9693 7.80549 7.52204L6.74768 6.45855ZM3.24957 20.5405C3.3715 20.8759 3.6322 21.1154 3.92789 21.2386L4.50501 19.8541C4.54917 19.8725 4.62124 19.9232 4.65933 20.028L3.24957 20.5405ZM3.94911 21.2471C5.27672 21.7536 6.69887 21.9988 8.12546 21.9988V20.4988C6.86919 20.4988 5.62943 20.2827 4.48379 19.8456L3.94911 21.2471ZM8.12546 21.9988C11.6647 21.9988 15.3117 20.4989 18.0459 17.7636L16.985 16.7031C14.5212 19.168 11.2515 20.4988 8.12546 20.4988V21.9988ZM18.0459 17.7636C19.9426 15.8661 21.0846 13.3569 21.6232 10.8556C22.1613 8.35678 22.1102 5.80712 21.5614 3.78492L20.1138 4.17775C20.5921 5.94034 20.651 8.24486 20.1568 10.5399C19.6631 12.8325 18.6305 15.057 16.985 16.7031L18.0459 17.7636ZM12.9074 4.24775L20.39 11.1988L21.4109 10.0998L13.9283 3.14877L12.9074 4.24775ZM2.88818 14.5848L10.3604 21.5358L11.382 20.4375L3.90985 13.4865L2.88818 14.5848ZM10.1102 15.5432L15.4759 10.0075L14.3989 8.96353L9.03316 14.4992L10.1102 15.5432ZM9.19752 13.6736L10.9896 15.4035L12.0314 14.3243L10.2393 12.5944L9.19752 13.6736ZM10.8413 11.9212L12.6229 13.6511L13.6678 12.575L11.8862 10.8451L10.8413 11.9212ZM12.5914 10.1285L14.373 11.8583L15.418 10.7822L13.6364 9.05229L12.5914 10.1285Z" fill="white"/>
</svg>
