<svg width="24" height="24" viewBox="0 0 24 24" fill="none" xmlns="http://www.w3.org/2000/svg">
<path d="M20.8376 3.98109L20.1129 4.17427L20.1138 4.17751L20.8376 3.98109ZM20.5232 3.66657L20.7293 2.9454L20.7216 2.94329L20.5232 3.66657ZM7.27659 6.99005L7.8055 7.5218L7.80781 7.51949L7.27659 6.99005ZM3.95445 20.284L4.65943 20.0277L4.65476 20.0155L3.95445 20.284ZM4.21645 20.5461L3.92789 21.2384L3.93843 21.2428L3.94911 21.2468L4.21645 20.5461ZM9.03316 14.4989C8.74487 14.7964 8.75227 15.2712 9.04969 15.5595C9.34711 15.8478 9.82193 15.8404 10.1102 15.5429L9.03316 14.4989ZM15.4759 10.0073C15.7642 9.70986 15.7568 9.23505 15.4594 8.94675C15.162 8.65846 14.6872 8.66586 14.3989 8.96328L15.4759 10.0073ZM10.2393 12.5942C9.94128 12.3065 9.46648 12.3149 9.1788 12.6129C8.89112 12.9109 8.8995 13.3857 9.19752 13.6734L10.2393 12.5942ZM10.9896 15.4033C11.2876 15.691 11.7624 15.6826 12.0501 15.3846C12.3378 15.0865 12.3294 14.6117 12.0314 14.3241L10.9896 15.4033ZM11.8862 10.8448C11.589 10.5563 11.1142 10.5633 10.8257 10.8605C10.5371 11.1576 10.5441 11.6325 10.8413 11.921L11.8862 10.8448ZM12.6229 13.6509C12.9201 13.9394 13.3949 13.9325 13.6834 13.6353C13.972 13.3381 13.965 12.8633 13.6678 12.5747L12.6229 13.6509ZM13.6364 9.05205C13.3392 8.7635 12.8644 8.77049 12.5758 9.06766C12.2873 9.36483 12.2943 9.83966 12.5914 10.1282L13.6364 9.05205ZM14.373 11.8581C14.6702 12.1466 15.145 12.1397 15.4336 11.8425C15.7221 11.5453 15.7151 11.0705 15.418 10.7819L14.373 11.8581ZM21.5623 3.78792C21.4464 3.35302 21.1063 3.0532 20.7293 2.94544L20.3171 4.38769C20.2335 4.3638 20.145 4.29463 20.1129 4.17426L21.5623 3.78792ZM20.7216 2.94329C18.6988 2.38834 16.1466 2.33742 13.6473 2.87711C11.1455 3.41733 8.637 4.56259 6.74536 6.46061L7.80781 7.51949C9.4479 5.87386 11.6711 4.83841 13.9639 4.34332C16.2591 3.84769 18.5643 3.90686 20.3248 4.38984L20.7216 2.94329ZM6.74768 6.4583C2.91938 10.2661 1.47809 15.9193 3.25414 20.5524L4.65476 20.0155C3.11915 16.0097 4.33976 10.969 7.80549 7.5218L6.74768 6.4583ZM3.24957 20.5402C3.3715 20.8756 3.6322 21.1151 3.92789 21.2384L4.50501 19.8538C4.54917 19.8722 4.62124 19.923 4.65933 20.0278L3.24957 20.5402ZM3.94911 21.2468C5.27672 21.7533 6.69887 21.9985 8.12546 21.9985V20.4985C6.86919 20.4985 5.62943 20.2824 4.48379 19.8454L3.94911 21.2468ZM8.12546 21.9985C11.6647 21.9985 15.3117 20.4986 18.0459 17.7633L16.985 16.7029C14.5212 19.1677 11.2515 20.4985 8.12546 20.4985V21.9985ZM18.0459 17.7633C19.9426 15.8658 21.0846 13.3567 21.6232 10.8554C22.1613 8.35653 22.1102 5.80688 21.5614 3.78468L20.1138 4.17751C20.5921 5.94009 20.651 8.24461 20.1568 10.5396C19.6631 12.8322 18.6305 15.0567 16.985 16.7029L18.0459 17.7633ZM12.9074 4.24751L20.39 11.1985L21.4109 10.0995L13.9283 3.14853L12.9074 4.24751ZM2.88818 14.5846L10.3604 21.5356L11.382 20.4373L3.90985 13.4863L2.88818 14.5846ZM10.1102 15.5429L15.4759 10.0073L14.3989 8.96328L9.03316 14.4989L10.1102 15.5429ZM9.19752 13.6734L10.9896 15.4033L12.0314 14.3241L10.2393 12.5942L9.19752 13.6734ZM10.8413 11.921L12.6229 13.6509L13.6678 12.5747L11.8862 10.8448L10.8413 11.921ZM12.5914 10.1282L14.373 11.8581L15.418 10.7819L13.6364 9.05205L12.5914 10.1282Z" fill="#DB2D59"/>
</svg>
