<svg width="24" height="24" viewBox="0 0 24 24" fill="none" xmlns="http://www.w3.org/2000/svg">
<path d="M9.76774 18.2618C10.2291 18.2618 10.603 17.8878 10.603 17.4265C10.603 16.9652 10.2291 16.5912 9.76774 16.5912V18.2618ZM13.3539 7.07112C13.3539 7.53244 13.7279 7.90642 14.1892 7.90642C14.6505 7.90642 15.0245 7.53244 15.0245 7.07112H13.3539ZM14.1889 17.5747C13.7276 17.5747 13.3536 17.9487 13.3536 18.41C13.3536 18.8713 13.7276 19.2453 14.1889 19.2453V17.5747ZM16.6214 19.2453C17.0827 19.2453 17.4567 18.8713 17.4567 18.41C17.4567 17.9487 17.0827 17.5747 16.6214 17.5747V19.2453ZM15.4052 15.9402L15.9729 15.3274C15.6526 15.0307 15.1578 15.0307 14.8376 15.3274L15.4052 15.9402ZM17.2035 16.1244L17.5785 16.8708L17.5785 16.8708L17.2035 16.1244ZM15.4052 11.3602L16.2022 11.1101C16.0929 10.7619 15.7702 10.5249 15.4052 10.5249C15.0403 10.5249 14.7176 10.7619 14.6083 11.1101L15.4052 11.3602ZM13.607 16.1244L13.232 16.8708L13.232 16.8708L13.607 16.1244ZM8.35104 15.7738C8.81236 15.7738 9.18634 15.3998 9.18634 14.9385C9.18634 14.4771 8.81236 14.1032 8.35104 14.1032V15.7738ZM10.9211 7.07112C10.9211 7.53244 11.2951 7.90642 11.7564 7.90642C12.2178 7.90642 12.5918 7.53244 12.5918 7.07112H10.9211ZM11.2124 5.87396L11.53 5.10141L11.2124 5.87396ZM10.3972 5.03302L11.1772 4.73404L10.3972 5.03302ZM6.79136 5.03302L6.01139 4.73404L6.79136 5.03302ZM5.97618 5.87396L6.29383 6.64651L5.97618 5.87396ZM5.97618 13.5528L6.29383 12.7802L5.97618 13.5528ZM6.79136 14.3937L7.57133 14.0947L6.79136 14.3937ZM9.76774 16.5912H3.48649V18.2618H9.76774V16.5912ZM3.48649 16.5912C3.69686 16.5912 3.83531 16.7603 3.83531 16.9289H2.16469C2.16469 17.6471 2.73874 18.2618 3.48649 18.2618V16.5912ZM3.83531 16.9289V2.49763H2.16469V16.9289H3.83531ZM3.83531 2.49763C3.83531 2.66618 3.69686 2.83531 3.48649 2.83531V1.16469C2.73873 1.16469 2.16469 1.7794 2.16469 2.49763H3.83531ZM3.48649 2.83531H13.7027V1.16469H3.48649V2.83531ZM13.7027 2.83531C13.4923 2.83531 13.3539 2.66619 13.3539 2.49763H15.0245C15.0245 1.77939 14.4505 1.16469 13.7027 1.16469V2.83531ZM13.3539 2.49763V7.07112H15.0245V2.49763H13.3539ZM10.2973 7.90642H20.5135V6.23581H10.2973V7.90642ZM20.5135 7.90642C20.3031 7.90642 20.1647 7.73731 20.1647 7.56875H21.8353C21.8353 6.85051 21.2612 6.23581 20.5135 6.23581V7.90642ZM20.1647 7.56875V21.5024H21.8353V7.56875H20.1647ZM20.1647 21.5024C20.1647 21.3338 20.3031 21.1647 20.5135 21.1647V22.8353C21.2612 22.8353 21.8353 22.2206 21.8353 21.5024H20.1647ZM20.5135 21.1647H10.2973V22.8353H20.5135V21.1647ZM10.2973 21.1647C10.5077 21.1647 10.6461 21.3338 10.6461 21.5024H8.97549C8.97549 22.2206 9.54954 22.8353 10.2973 22.8353V21.1647ZM10.6461 21.5024V7.56875H8.97549V21.5024H10.6461ZM10.6461 7.56875C10.6461 7.73731 10.5077 7.90642 10.2973 7.90642V6.23581C9.54954 6.23581 8.97549 6.85052 8.97549 7.56875H10.6461ZM14.1889 19.2453H16.6214V17.5747H14.1889V19.2453ZM14.8375 16.553C15.2617 16.946 15.8547 17.0593 16.2693 17.0844C16.6906 17.1099 17.2025 17.0597 17.5785 16.8708L16.8285 15.378C16.8434 15.3705 16.8067 15.3894 16.7014 15.4046C16.6062 15.4184 16.49 15.4241 16.3701 15.4168C16.2493 15.4095 16.1438 15.3902 16.0642 15.3649C15.9802 15.3381 15.9607 15.3161 15.9729 15.3274L14.8375 16.553ZM17.5785 16.8708C17.9941 16.662 18.3422 16.3601 18.5805 15.9555C18.817 15.554 18.9162 15.1013 18.9162 14.6333H17.2456C17.2456 14.8652 17.1976 15.0117 17.1411 15.1075C17.0865 15.2002 16.9959 15.2939 16.8285 15.378L17.5785 16.8708ZM18.9162 14.6333C18.9162 14.0397 18.6559 13.548 18.3674 13.1721C18.0808 12.7986 17.7143 12.4722 17.3913 12.2016C17.0381 11.9056 16.7623 11.6949 16.5161 11.4672C16.4011 11.3609 16.3194 11.2742 16.2641 11.2034C16.2074 11.1308 16.1994 11.101 16.2022 11.1101L14.6083 11.6104C14.754 12.0749 15.1088 12.4412 15.3818 12.6937C15.6653 12.9559 16.0398 13.2487 16.3183 13.482C16.6269 13.7407 16.8735 13.9695 17.042 14.1891C17.2087 14.4063 17.2456 14.5457 17.2456 14.6333H18.9162ZM14.6083 11.1101C14.6111 11.101 14.6031 11.1308 14.5463 11.2034C14.4911 11.2742 14.4093 11.3609 14.2943 11.4672C14.0482 11.6949 13.7724 11.9056 13.4192 12.2016C13.0961 12.4722 12.7297 12.7986 12.443 13.1721C12.1546 13.548 11.8942 14.0397 11.8942 14.6333H13.5649C13.5649 14.5457 13.6018 14.4063 13.7684 14.1891C13.9369 13.9695 14.1835 13.7407 14.4922 13.482C14.7706 13.2487 15.1451 12.9559 15.4286 12.6937C15.7016 12.4412 16.0564 12.0749 16.2022 11.6104L14.6083 11.1101ZM11.8942 14.6333C11.8942 15.1013 11.9934 15.554 12.2299 15.9555C12.4683 16.3601 12.8164 16.662 13.232 16.8708L13.982 15.378C13.8146 15.2939 13.724 15.2002 13.6694 15.1076C13.6129 15.0117 13.5649 14.8653 13.5649 14.6333H11.8942ZM13.232 16.8708C13.6079 17.0597 14.1198 17.1099 14.5411 17.0844C14.9558 17.0593 15.5487 16.946 15.9729 16.553L14.8376 15.3274C14.8498 15.3161 14.8303 15.3381 14.7462 15.3649C14.6667 15.3902 14.5612 15.4095 14.4403 15.4168C14.3205 15.4241 14.2042 15.4184 14.1091 15.4046C14.0038 15.3894 13.9671 15.3705 13.9819 15.378L13.232 16.8708ZM8.35104 14.1032H7.4496V15.7738H8.35104V14.1032ZM7.57133 14.0947C7.34392 13.5014 6.88267 13.0223 6.29383 12.7802L5.65852 14.3253C5.81423 14.3893 5.94565 14.5212 6.01139 14.6927L7.57133 14.0947ZM6.26742 12.8887V6.538H4.59681V12.8887H6.26742ZM6.29383 6.64651C6.88267 6.40439 7.34392 5.92526 7.57133 5.33199L6.01139 4.73404C5.94565 4.90555 5.81423 5.03738 5.65852 5.10141L6.29383 6.64651ZM7.44961 5.32355H9.73896V3.65294H7.44961V5.32355ZM9.61723 5.33199C9.84464 5.92526 10.3059 6.40439 10.8947 6.64651L11.53 5.10141C11.3743 5.03738 11.2429 4.90555 11.1772 4.73404L9.61723 5.33199ZM10.9211 6.538V7.07112H12.5918V6.538H10.9211ZM10.8947 6.64651C10.9155 6.65505 10.9339 6.66514 10.9483 6.67487C10.9628 6.68476 10.9681 6.69083 10.967 6.6896C10.9658 6.68823 10.9544 6.67516 10.943 6.64817C10.9307 6.61941 10.9211 6.58112 10.9211 6.538H12.5918C12.5918 5.7281 11.9424 5.27096 11.53 5.10141L10.8947 6.64651ZM9.73896 5.32355C9.6971 5.32355 9.65938 5.31434 9.63039 5.30206C9.60304 5.29047 9.58894 5.2786 9.5859 5.27588C9.58303 5.27331 9.58727 5.27656 9.59507 5.28833C9.60276 5.29992 9.61074 5.31506 9.61723 5.33199L11.1772 4.73404C11.01 4.29791 10.5481 3.65294 9.73896 3.65294V5.32355ZM7.57133 5.33199C7.57782 5.31506 7.5858 5.29992 7.59349 5.28833C7.60129 5.27656 7.60553 5.27332 7.60266 5.27588C7.59962 5.2786 7.58552 5.29047 7.55817 5.30206C7.52918 5.31434 7.49147 5.32355 7.44961 5.32355V3.65294C6.64042 3.65294 6.17857 4.29791 6.01139 4.73404L7.57133 5.33199ZM6.26742 6.538C6.26742 6.58112 6.25785 6.61941 6.24561 6.64817C6.23412 6.67516 6.22277 6.68823 6.22155 6.6896C6.22045 6.69083 6.22575 6.68475 6.2403 6.67487C6.25463 6.66514 6.27307 6.65505 6.29383 6.64651L5.65852 5.10141C5.24617 5.27096 4.59681 5.7281 4.59681 6.538H6.26742ZM6.29383 12.7802C6.27307 12.7717 6.25463 12.7616 6.2403 12.7518C6.22575 12.742 6.22045 12.7359 6.22155 12.7371C6.22277 12.7385 6.23412 12.7516 6.24561 12.7785C6.25785 12.8073 6.26742 12.8456 6.26742 12.8887H4.59681C4.59681 13.6986 5.24617 14.1557 5.65852 14.3253L6.29383 12.7802ZM7.4496 14.1032C7.49147 14.1032 7.52918 14.1124 7.55817 14.1247C7.58552 14.1362 7.59962 14.1481 7.60266 14.1508C7.60553 14.1534 7.60129 14.1501 7.59349 14.1384C7.5858 14.1268 7.57782 14.1117 7.57133 14.0947L6.01139 14.6927C6.17857 15.1288 6.64042 15.7738 7.4496 15.7738V14.1032Z" fill="#A2AAB5"/>
</svg>
