<svg width="24" height="24" viewBox="0 0 24 24" fill="none" xmlns="http://www.w3.org/2000/svg">
<path d="M6.5 9C7.88071 9 9 7.88071 9 6.5C9 5.11929 7.88071 4 6.5 4C5.11929 4 4 5.11929 4 6.5C4 7.88071 5.11929 9 6.5 9Z" stroke="#DB2D59" stroke-width="1.5" stroke-miterlimit="10"/>
<path d="M20.4511 4.62591C21.7354 6 20.3922 7.49655 20.3922 7.49655L15.2881 12.5606L8.38782 18.3019C8.5645 18.7567 8.47616 19.2924 8.11299 19.6563C7.87741 19.8888 7.57313 20 7.26885 20C6.96457 19.9899 6.66029 19.8686 6.43453 19.626L5.3352 18.4535C4.87387 17.9683 4.8935 17.19 5.36464 16.725C5.72782 16.3713 6.25785 16.2904 6.68974 16.5027L12.5103 9.65964L17.6635 4.56527C18.4487 3.78696 19.6953 3.81728 20.4511 4.62591Z" stroke="#DB2D59" stroke-width="1.5" stroke-miterlimit="10"/>
</svg>
