<svg width="24" height="24" viewBox="0 0 24 24" fill="none" xmlns="http://www.w3.org/2000/svg">
<path d="M19.4052 6.7099C19.6903 6.4094 19.6778 5.93469 19.3773 5.64961C19.0768 5.36452 18.6021 5.37701 18.317 5.67751L19.4052 6.7099ZM18.4997 6.57461L19.0433 7.0914L19.0438 7.0908L18.4997 6.57461ZM18.4997 17.4156L19.0438 16.8994L19.0433 16.8988L18.4997 17.4156ZM18.317 18.3127C18.6021 18.6132 19.0768 18.6257 19.3773 18.3406C19.6778 18.0555 19.6903 17.5808 19.4052 17.2803L18.317 18.3127ZM5.67324 5.67751C5.38815 5.37701 4.91344 5.36452 4.61294 5.64961C4.31245 5.93469 4.29995 6.4094 4.58504 6.7099L5.67324 5.67751ZM5.4905 6.57461L4.94641 7.0908L4.94698 7.0914L5.4905 6.57461ZM5.4905 17.4156L4.94698 16.8988L4.94641 16.8994L5.4905 17.4156ZM4.58504 17.2803C4.29995 17.5808 4.31244 18.0555 4.61294 18.3406C4.91344 18.6257 5.38815 18.6132 5.67323 18.3127L4.58504 17.2803ZM11.2451 21C11.2451 21.4142 11.5809 21.75 11.9951 21.75C12.4093 21.75 12.7451 21.4142 12.7451 21H11.2451ZM21 12.7451C21.4142 12.7451 21.75 12.4093 21.75 11.9951C21.75 11.5809 21.4142 11.2451 21 11.2451V12.7451ZM18.317 5.67751L17.9556 6.05841L19.0438 7.0908L19.4052 6.7099L18.317 5.67751ZM17.9562 6.05781C14.8486 9.32619 14.8486 14.664 17.9562 17.9324L19.0433 16.8988C16.4862 14.2095 16.4862 9.7807 19.0433 7.0914L17.9562 6.05781ZM17.9556 17.9318L18.317 18.3127L19.4052 17.2803L19.0438 16.8994L17.9556 17.9318ZM4.58504 6.7099L4.94641 7.0908L6.0346 6.05841L5.67324 5.67751L4.58504 6.7099ZM4.94698 7.0914C7.50402 9.7807 7.50402 14.2095 4.94698 16.8988L6.03403 17.9324C9.14167 14.664 9.14167 9.32619 6.03403 6.05781L4.94698 7.0914ZM4.94641 16.8994L4.58504 17.2803L5.67323 18.3127L6.0346 17.9318L4.94641 16.8994ZM20.2402 11.9951C20.2402 16.5488 16.5488 20.2402 11.9951 20.2402V21.7402C17.3772 21.7402 21.7402 17.3772 21.7402 11.9951H20.2402ZM11.9951 20.2402C7.44146 20.2402 3.75 16.5488 3.75 11.9951H2.25C2.25 17.3772 6.61304 21.7402 11.9951 21.7402V20.2402ZM3.75 11.9951C3.75 7.44146 7.44146 3.75 11.9951 3.75V2.25C6.61304 2.25 2.25 6.61304 2.25 11.9951H3.75ZM11.9951 3.75C16.5488 3.75 20.2402 7.44146 20.2402 11.9951H21.7402C21.7402 6.61304 17.3772 2.25 11.9951 2.25V3.75ZM11.2451 3V21H12.7451V3H11.2451ZM21 11.2451H3V12.7451H21V11.2451Z" fill="#DB2D59"/>
</svg>
