<?xml version="1.0" encoding="UTF-8"?>
<svg id="Layer_1" xmlns="http://www.w3.org/2000/svg" version="1.1" viewBox="0 0 24 24">
  <!-- Generator: Adobe Illustrator 29.1.0, SVG Export Plug-In . SVG Version: 2.1.0 Build 142)  -->
  <defs>
    <style>
      .st0 {
        stroke: #db2d59;
      }

      .st0, .st1 {
        fill: none;
        stroke-linecap: round;
        stroke-linejoin: round;
        stroke-width: 1.5px;
      }

      .st1 {
        stroke: #fff;
      }
    </style>
  </defs>
  <path class="st1" d="M14,7.1c-.5,0-1.3,0-2,0h-.4c-.8,0-1.6.4-1.6,1.5s1,1.5,2,1.5,2,.3,2,1.5-.8,1.3-1.8,1.5c-.8,0-1.2,0-2.2-.1"/>
  <line class="st1" x1="12" y1="13" x2="12" y2="14"/>
  <line class="st1" x1="12" y1="6" x2="12" y2="7"/>
  <path class="st0" d="M21,17v.8c0,1.1,0,1.7-.2,2.1s-.5.7-.9.9c-.4.2-1,.2-2.1.2H6.2c-1.1,0-1.7,0-2.1-.2s-.7-.5-.9-.9-.2-1-.2-2.1v-.8"/>
  <circle class="st1" cx="12" cy="10" r="7"/>
</svg>