<svg width="24" height="24" viewBox="0 0 24 24" fill="none" xmlns="http://www.w3.org/2000/svg">
<path d="M14 7.14991C13.5 7.00991 12.69 6.99991 12 7.00991C11.77 7.00991 11.91 7.00991 11.6 7.00991C10.79 7.03991 10 7.41991 10 8.50991C10 9.66991 11 10.0199 12 10.0199C13 10.0199 14 10.2899 14 11.5299C14 12.4599 13.19 12.8699 12.19 13.0099C11.39 13.0099 11 13.0399 10 12.8999" stroke="#DB2D59" stroke-width="1.5" stroke-linecap="round" stroke-linejoin="round"/>
<path d="M12 13V14" stroke="#DB2D59" stroke-width="1.5" stroke-linecap="round" stroke-linejoin="round"/>
<path d="M12 6V7" stroke="#DB2D59" stroke-width="1.5" stroke-linecap="round" stroke-linejoin="round"/>
<path d="M21 17V17.8C21 18.92 21 19.48 20.78 19.91C20.59 20.29 20.28 20.59 19.91 20.78C19.48 21 18.92 21 17.8 21H6.2C5.08 21 4.52 21 4.09 20.78C3.71 20.59 3.41 20.28 3.22 19.91C3 19.48 3 18.92 3 17.8V17" stroke="#DB2D59" stroke-width="1.5" stroke-linecap="round" stroke-linejoin="round"/>
<path d="M12 17C15.866 17 19 13.866 19 10C19 6.13401 15.866 3 12 3C8.13401 3 5 6.13401 5 10C5 13.866 8.13401 17 12 17Z" stroke="#DB2D59" stroke-width="1.5" stroke-linecap="round" stroke-linejoin="round"/>
</svg>
