<svg width="24" height="24" viewBox="0 0 24 24" fill="none" xmlns="http://www.w3.org/2000/svg">
<path d="M2.27099 6.49808L1.98659 5.80409L2.27099 6.49808ZM10.7277 3.03242L11.0121 3.7264L10.7277 3.03242ZM11.2944 3.27282L11.9897 2.99169V2.99169L11.2944 3.27282ZM15.8842 14.6246L15.1889 14.9058L15.8842 14.6246ZM15.6455 15.1951L15.3611 14.5011L15.6455 15.1951ZM7.18871 18.6608L7.47311 19.3547L7.18871 18.6608ZM6.62206 18.4204L5.92674 18.7015L6.62206 18.4204ZM2.0322 7.06856L2.72752 6.78742L2.0322 7.06856ZM21.6928 8.42799L21.9144 7.71148L21.9034 7.70809L21.8924 7.70504L21.6928 8.42799ZM21.9807 8.97497L22.698 9.19391L22.6981 9.19386L21.9807 8.97497ZM18.405 20.6907L17.6877 20.4718L17.6877 20.4718L18.405 20.6907ZM17.8617 20.9806L18.0834 20.264L18.0718 20.2606L17.8617 20.9806ZM9.48347 12.1454L9.74174 11.4413C9.37849 11.3081 8.97351 11.473 8.80673 11.8221L9.48347 12.1454ZM11.0327 11.6855L11.5944 12.1825L11.5944 12.1825L11.0327 11.6855ZM11.2678 10.173L11.9632 9.89192L11.9632 9.89187L11.2678 10.173ZM7.97476 8.41411L8.55129 7.93441C8.34261 7.6836 7.99571 7.59648 7.69329 7.71893C7.39087 7.84137 7.2023 8.14529 7.22689 8.47064L7.97476 8.41411ZM6.83809 11.9884L6.14277 12.2695L6.14278 12.2696L6.83809 11.9884ZM8.05558 12.9056L8.00277 13.6537L8.00287 13.6537L8.05558 12.9056ZM11.6376 14.3374C12.0218 14.1827 12.2079 13.7458 12.0531 13.3615C11.8984 12.9773 11.4615 12.7912 11.0773 12.946L11.6376 14.3374ZM8.82275 13.8539C8.43852 14.0086 8.25248 14.4455 8.40721 14.8297C8.56194 15.214 8.99885 15.4 9.38308 15.2453L8.82275 13.8539ZM2.55539 7.19206L11.0121 3.7264L10.4433 2.33843L1.98659 5.80409L2.55539 7.19206ZM11.0121 3.7264C10.8468 3.79415 10.663 3.71214 10.5991 3.55396L11.9897 2.99169C11.7447 2.38567 11.0535 2.08839 10.4433 2.33843L11.0121 3.7264ZM10.5991 3.55396L15.1889 14.9058L16.5796 14.3435L11.9897 2.99169L10.5991 3.55396ZM15.1889 14.9058C15.126 14.7501 15.1983 14.5678 15.3611 14.5011L15.9299 15.8891C16.5374 15.6401 16.8236 14.947 16.5796 14.3435L15.1889 14.9058ZM15.3611 14.5011L6.90431 17.9668L7.47311 19.3547L15.9299 15.8891L15.3611 14.5011ZM6.90431 17.9668C7.06961 17.899 7.25341 17.981 7.31737 18.1392L5.92674 18.7015C6.17177 19.3075 6.86297 19.6048 7.47311 19.3547L6.90431 17.9668ZM7.31737 18.1392L2.72752 6.78742L1.33689 7.3497L5.92674 18.7015L7.31737 18.1392ZM2.72752 6.78742C2.79046 6.9431 2.71811 7.12538 2.55539 7.19206L1.98659 5.80409C1.37904 6.05307 1.09287 6.74618 1.33689 7.3497L2.72752 6.78742ZM17.4525 8.03522L21.4932 9.15094L21.8924 7.70504L17.8517 6.58932L17.4525 8.03522ZM21.4712 9.14451C21.3023 9.09226 21.2145 8.91625 21.2634 8.75608L22.6981 9.19386C22.888 8.57146 22.5424 7.90572 21.9144 7.71148L21.4712 9.14451ZM21.2634 8.75604L17.6877 20.4718L19.1223 20.9097L22.698 9.19391L21.2634 8.75604ZM17.6877 20.4718C17.7372 20.3094 17.9123 20.2112 18.0833 20.2641L17.6401 21.6971C18.2701 21.892 18.9317 21.5341 19.1223 20.9096L17.6877 20.4718ZM18.0718 20.2606L8.73162 17.5354L8.31149 18.9754L17.6516 21.7006L18.0718 20.2606ZM12.0002 4.9981H17.2177V3.4981H12.0002V4.9981ZM17.2177 4.9981C17.0388 4.9981 16.9025 4.85352 16.9025 4.68583H18.4025C18.4025 4.03463 17.8768 3.4981 17.2177 3.4981V4.9981ZM16.9025 4.68583V16.9422H18.4025V4.68583H16.9025ZM16.9025 16.9422C16.9025 16.7745 17.0388 16.6299 17.2177 16.6299V18.1299C17.8768 18.1299 18.4025 17.5934 18.4025 16.9422H16.9025ZM17.2177 16.6299H10.261V18.1299H17.2177V16.6299ZM9.22521 12.8495C9.70825 13.0267 10.2362 12.9172 10.5855 12.7977C10.9417 12.6759 11.3469 12.4622 11.5944 12.1825L10.471 11.1885C10.4801 11.1782 10.4549 11.2067 10.3722 11.2552C10.2973 11.2992 10.2022 11.3435 10.1 11.3785C9.99687 11.4138 9.90258 11.434 9.82793 11.4403C9.74871 11.4471 9.72599 11.4355 9.74174 11.4413L9.22521 12.8495ZM11.5944 12.1825C11.8687 11.8725 12.0581 11.5082 12.1226 11.095C12.1866 10.6842 12.119 10.2774 11.9632 9.89192L10.5725 10.4541C10.6472 10.6388 10.6551 10.7701 10.6405 10.8639C10.6262 10.9552 10.5829 11.0621 10.471 11.1885L11.5944 12.1825ZM11.9632 9.89187C11.7641 9.39962 11.3806 9.08354 11.0163 8.87419C10.6542 8.66609 10.242 8.52418 9.88556 8.41327C9.49506 8.29176 9.19816 8.2139 8.91979 8.11208C8.78984 8.06455 8.6945 8.022 8.62663 7.98376C8.55672 7.94437 8.54306 7.92451 8.55129 7.93441L7.39823 8.89381C7.67676 9.22857 8.0963 9.40806 8.4045 9.5208C8.72589 9.63835 9.13315 9.75009 9.4399 9.84554C9.78069 9.95157 10.0588 10.054 10.2689 10.1747C10.4768 10.2942 10.5472 10.3914 10.5725 10.4542L11.9632 9.89187ZM7.22689 8.47064C7.226 8.45889 7.22978 8.48383 7.20684 8.56197C7.18458 8.6378 7.14561 8.73585 7.08545 8.86151C6.95672 9.13039 6.79786 9.39557 6.60296 9.75656C6.42483 10.0865 6.22872 10.477 6.11427 10.8794C5.99928 11.2836 5.944 11.7779 6.14277 12.2695L7.53341 11.7073C7.50778 11.6439 7.49065 11.5232 7.55704 11.2898C7.62396 11.0545 7.75246 10.7848 7.92286 10.4692C8.07648 10.1847 8.29007 9.81905 8.4384 9.50922C8.58063 9.21213 8.75536 8.79074 8.72262 8.35758L7.22689 8.47064ZM6.14278 12.2696C6.2986 12.6549 6.53276 12.9946 6.86514 13.2447C7.19973 13.4966 7.59003 13.6246 8.00277 13.6537L8.1084 12.1574C7.94204 12.1457 7.83888 12.1002 7.76714 12.0462C7.69318 11.9906 7.60814 11.8921 7.5334 11.7073L6.14278 12.2696ZM8.00287 13.6537C8.37582 13.68 8.81474 13.5475 9.15377 13.3845C9.4872 13.2241 9.9389 12.932 10.1602 12.4687L8.80673 11.8221C8.81312 11.8087 8.8038 11.834 8.74206 11.8851C8.68378 11.9334 8.60199 11.9854 8.50366 12.0327C8.40617 12.0796 8.30742 12.1146 8.22353 12.1358C8.13068 12.1593 8.09357 12.1564 8.1083 12.1574L8.00287 13.6537ZM11.0773 12.946L8.82275 13.8539L9.38308 15.2453L11.6376 14.3374L11.0773 12.946Z" fill="#E3E3E5"/>
</svg>
