<svg width="24" height="24" viewBox="0 0 24 24" fill="none" xmlns="http://www.w3.org/2000/svg">
<path d="M12.21 21.42C17.2965 21.42 21.42 17.2965 21.42 12.21C21.42 7.12346 17.2965 3 12.21 3C7.12346 3 3 7.12346 3 12.21C3 17.2965 7.12346 21.42 12.21 21.42Z" stroke="#DB2D59" stroke-width="1.5" stroke-miterlimit="10"/>
<path d="M12.2101 18.3099C15.579 18.3099 18.3101 15.5788 18.3101 12.2099C18.3101 8.84093 15.579 6.10986 12.2101 6.10986C8.84117 6.10986 6.11011 8.84093 6.11011 12.2099C6.11011 15.5788 8.84117 18.3099 12.2101 18.3099Z" stroke="#DB2D59" stroke-width="1.5" stroke-miterlimit="10"/>
<path d="M12.21 3V6.75" stroke="#DB2D59" stroke-width="1.5" stroke-miterlimit="10"/>
<path d="M12.21 17.6699V21.4299" stroke="#DB2D59" stroke-width="1.5" stroke-miterlimit="10"/>
<path d="M4.22998 7.61011L7.47998 9.48011" stroke="#DB2D59" stroke-width="1.5" stroke-miterlimit="10"/>
<path d="M16.9399 14.9402L20.1899 16.8202" stroke="#DB2D59" stroke-width="1.5" stroke-miterlimit="10"/>
<path d="M4.22998 16.8202L7.47998 14.9402" stroke="#DB2D59" stroke-width="1.5" stroke-miterlimit="10"/>
<path d="M16.9399 9.48011L20.1899 7.61011" stroke="#DB2D59" stroke-width="1.5" stroke-miterlimit="10"/>
<path d="M11.4502 14.96H12.9802" stroke="#DB2D59" stroke-width="1.5" stroke-linecap="round" stroke-linejoin="round"/>
<path d="M12.21 9.85986C11.81 10.6599 9.43 11.2399 10.01 13.0199C10.36 14.0799 11.85 14.0999 12.21 13.3299C12.56 14.1099 14.06 14.0799 14.41 13.0199C14.99 11.2399 12.61 10.6599 12.21 9.85986Z" stroke="#DB2D59" stroke-width="1.5" stroke-linecap="round" stroke-linejoin="round"/>
</svg>
