<svg width="24" height="24" viewBox="0 0 24 24" fill="none" xmlns="http://www.w3.org/2000/svg">
<path d="M10.7467 9.58978L11.1627 8.96574C10.9326 8.81231 10.6367 8.79801 10.3928 8.92852C10.149 9.05904 9.99672 9.31318 9.99672 9.58978H10.7467ZM14.3661 12.0027L14.7821 12.6267C14.9907 12.4876 15.1161 12.2534 15.1161 12.0027C15.1161 11.7519 14.9907 11.5177 14.7821 11.3786L14.3661 12.0027ZM10.7467 14.4156H9.99672C9.99672 14.6922 10.149 14.9463 10.3928 15.0768C10.6367 15.2073 10.9326 15.193 11.1627 15.0396L10.7467 14.4156ZM5.4638 5.86465C5.77009 5.5858 5.79234 5.11145 5.51349 4.80516C5.23464 4.49886 4.76029 4.47662 4.45399 4.75547L5.4638 5.86465ZM4.45399 19.25C4.76029 19.5288 5.23464 19.5066 5.51349 19.2003C5.79234 18.894 5.77009 18.4197 5.4638 18.1408L4.45399 19.25ZM7.03553 16.7016C7.35041 16.9707 7.82383 16.9336 8.09295 16.6188C8.36208 16.3039 8.32499 15.8305 8.01012 15.5613L7.03553 16.7016ZM8.01012 8.44412C8.32499 8.175 8.36208 7.70157 8.09295 7.3867C7.82383 7.07183 7.35041 7.03474 7.03553 7.30386L8.01012 8.44412ZM19.546 4.75548C19.2397 4.47663 18.7654 4.49888 18.4865 4.80517C18.2077 5.11147 18.2299 5.58582 18.5362 5.86467L19.546 4.75548ZM18.5362 18.1408C18.2299 18.4197 18.2077 18.894 18.4865 19.2003C18.7654 19.5066 19.2397 19.5289 19.546 19.25L18.5362 18.1408ZM15.9899 15.5614C15.675 15.8305 15.6379 16.3039 15.907 16.6188C16.1762 16.9337 16.6496 16.9707 16.9645 16.7016L15.9899 15.5614ZM16.9645 7.30388C16.6496 7.03476 16.1762 7.07184 15.907 7.38672C15.6379 7.70159 15.675 8.17501 15.9899 8.44414L16.9645 7.30388ZM10.3307 10.2138L13.95 12.6267L14.7821 11.3786L11.1627 8.96574L10.3307 10.2138ZM13.95 11.3786L10.3307 13.7915L11.1627 15.0396L14.7821 12.6267L13.95 11.3786ZM11.4967 14.4156V9.58978H9.99672V14.4156H11.4967ZM4.45399 4.75547C2.48657 6.54661 1.25 9.13081 1.25 12.0027H2.75C2.75 9.57053 3.79545 7.38352 5.4638 5.86465L4.45399 4.75547ZM1.25 12.0027C1.25 14.8747 2.48657 17.4588 4.45399 19.25L5.4638 18.1408C3.79545 16.6219 2.75 14.4349 2.75 12.0027H1.25ZM4.86933 12.0027C4.86933 13.884 5.71091 15.5694 7.03553 16.7016L8.01012 15.5613C7.00472 14.702 6.36933 13.427 6.36933 12.0027H4.86933ZM7.03553 7.30386C5.71091 8.43602 4.86933 10.1215 4.86933 12.0027H6.36933C6.36933 10.5785 7.00472 9.30344 8.01012 8.44412L7.03553 7.30386ZM18.5362 5.86467C20.2046 7.38354 21.25 9.57054 21.25 12.0027H22.75C22.75 9.13082 21.5134 6.54663 19.546 4.75548L18.5362 5.86467ZM21.25 12.0027C21.25 14.4349 20.2046 16.622 18.5362 18.1408L19.546 19.25C21.5134 17.4589 22.75 14.8747 22.75 12.0027H21.25ZM17.6307 12.0027C17.6307 13.427 16.9953 14.702 15.9899 15.5614L16.9645 16.7016C18.2891 15.5695 19.1307 13.884 19.1307 12.0027H17.6307ZM15.9899 8.44414C16.9953 9.30346 17.6307 10.5785 17.6307 12.0027H19.1307C19.1307 10.1215 18.2891 8.43604 16.9645 7.30388L15.9899 8.44414Z" fill="#DB2D59"/>
</svg>
