<?xml version="1.0" encoding="UTF-8"?>
<svg id="Layer_1" xmlns="http://www.w3.org/2000/svg" version="1.1" viewBox="0 0 24 24">
  <!-- Generator: Adobe Illustrator 29.1.0, SVG Export Plug-In . SVG Version: 2.1.0 Build 142)  -->
  <defs>
    <style>
      .st0 {
        stroke: #db2d59;
        stroke-linecap: round;
        stroke-linejoin: round;
      }

      .st0, .st1 {
        fill: none;
        stroke-width: 1.5px;
      }

      .st1 {
        stroke: #fff;
        stroke-miterlimit: 10;
      }
    </style>
  </defs>
  <circle class="st1" cx="12" cy="12" r="9.2"/>
  <circle class="st1" cx="12" cy="12" r="6.1"/>
  <g>
    <line class="st1" x1="12" y1="2.8" x2="12" y2="6.5"/>
    <line class="st1" x1="12" y1="17.5" x2="12" y2="21.2"/>
  </g>
  <g>
    <line class="st1" x1="4" y1="7.4" x2="7.3" y2="9.3"/>
    <line class="st1" x1="16.7" y1="14.7" x2="20" y2="16.6"/>
  </g>
  <g>
    <line class="st1" x1="4" y1="16.6" x2="7.3" y2="14.7"/>
    <line class="st1" x1="16.7" y1="9.3" x2="20" y2="7.4"/>
  </g>
  <line class="st0" x1="11.2" y1="14.7" x2="12.8" y2="14.7"/>
  <path class="st0" d="M12,9.6c-.4.8-2.8,1.4-2.2,3.2.3,1.1,1.8,1.1,2.2.3.4.8,1.8.8,2.2-.3.6-1.8-1.8-2.4-2.2-3.2Z"/>
</svg>