<svg width="24" height="24" viewBox="0 0 24 24" fill="none" xmlns="http://www.w3.org/2000/svg">
<path d="M7.87167 8.30182C6.9785 7.97608 4.80609 7.90753 3 10.5012L5.75955 11.8204M15.6421 16.0722C15.9678 16.9654 16.0364 19.1378 13.4427 20.9439L12.1235 18.1843M15.2924 4.40884L19.535 8.65148M8.53915 17.9252C7.5068 18.5446 6.41165 18.6993 5.66628 18.6918C5.2626 18.6878 4.94813 18.3733 4.94409 17.9696C4.93662 17.2243 5.09131 16.1291 5.71072 15.0968M6.33721 12.4242C7.28589 9.32272 11.3212 3.26852 19.9838 3.00046C20.5216 2.98382 20.9601 3.4223 20.9434 3.96005C20.6754 12.6227 14.6212 16.658 11.5197 17.6067L6.33721 12.4242ZM15.2924 11.4799C14.5114 12.261 13.245 12.261 12.464 11.4799C11.6829 10.6989 11.6829 9.43253 12.464 8.65148C13.245 7.87043 14.5114 7.87043 15.2924 8.65148C16.0734 9.43253 16.0734 10.6989 15.2924 11.4799Z" stroke="#A2AAB5" stroke-width="1.5" stroke-linecap="round" stroke-linejoin="round"/>
</svg>
