<svg width="24" height="24" viewBox="0 0 24 24" fill="none" xmlns="http://www.w3.org/2000/svg">
<path d="M17.9237 9.40294C18.2422 9.40294 18.5003 9.14708 18.5003 8.83147C18.5003 8.51586 18.2422 8.26001 17.9237 8.26001C17.6052 8.26001 17.347 8.51586 17.347 8.83147C17.347 9.14708 17.6052 9.40294 17.9237 9.40294Z" fill="white"/>
<path d="M17.9237 11.9382C18.2422 11.9382 18.5003 11.6823 18.5003 11.3667C18.5003 11.0511 18.2422 10.7952 17.9237 10.7952C17.6052 10.7952 17.347 11.0511 17.347 11.3667C17.347 11.6823 17.6052 11.9382 17.9237 11.9382Z" fill="white"/>
<path d="M19.2028 10.6705C19.5213 10.6705 19.7795 10.4147 19.7795 10.0991C19.7795 9.78347 19.5213 9.52762 19.2028 9.52762C18.8843 9.52762 18.6262 9.78347 18.6262 10.0991C18.6262 10.4147 18.8843 10.6705 19.2028 10.6705Z" fill="white"/>
<path d="M16.6445 10.6705C16.963 10.6705 17.2212 10.4147 17.2212 10.0991C17.2212 9.78347 16.963 9.52762 16.6445 9.52762C16.3261 9.52762 16.0679 9.78347 16.0679 10.0991C16.0679 10.4147 16.3261 10.6705 16.6445 10.6705Z" fill="white"/>
<path d="M7.5124 9.53787H6.80992V8.84173C6.80992 8.53002 6.55828 8.27026 6.23325 8.27026C5.90822 8.27026 5.65659 8.51963 5.65659 8.84173V9.53787H4.95411C4.63956 9.53787 4.37744 9.78724 4.37744 10.1093C4.37744 10.4314 4.62908 10.6808 4.95411 10.6808H5.65659V11.3769C5.65659 11.6887 5.90822 11.9484 6.23325 11.9484C6.55828 11.9484 6.80992 11.699 6.80992 11.3769V10.6808H7.5124C7.82694 10.6808 8.08906 10.4314 8.08906 10.1093C8.08906 9.78724 7.83743 9.53787 7.5124 9.53787Z" fill="white"/>
<path d="M9.1691 7.66776L8.8596 8.35096L8.8668 8.35413L9.1691 7.66776ZM7.90044 6.70146L8.53565 6.30263L8.53152 6.29621L7.90044 6.70146ZM14.8309 7.66776L15.1332 8.35417L15.1404 8.35093L14.8309 7.66776ZM16.0996 6.70146L15.4684 6.29619L15.4644 6.30265L16.0996 6.70146ZM12.6242 4C12.6242 3.58579 12.2884 3.25 11.8742 3.25C11.46 3.25 11.1242 3.58579 11.1242 4H12.6242ZM11.1242 5.20527C11.1242 5.61948 11.46 5.95527 11.8742 5.95527C12.2884 5.95527 12.6242 5.61948 12.6242 5.20527H11.1242ZM9.77722 7.04244C9.66446 7.04244 9.55853 7.01976 9.47141 6.98138L8.8668 8.35413C9.15712 8.482 9.47059 8.54244 9.77722 8.54244V7.04244ZM9.47859 6.98459C9.32096 6.91318 9.12006 6.80961 8.93404 6.68088C8.74155 6.54767 8.60688 6.41615 8.53561 6.30265L7.26526 7.10028C7.48757 7.45434 7.80375 7.72284 8.08046 7.91433C8.36363 8.11029 8.65027 8.25609 8.85961 8.35093L9.47859 6.98459ZM8.53152 6.29621C8.37671 6.05513 8.15648 5.90704 7.96884 5.81475C7.77728 5.72053 7.56912 5.65956 7.3724 5.61789C6.9795 5.53465 6.53191 5.50805 6.12443 5.50599C5.71059 5.5039 5.3059 5.52717 4.98575 5.5555C4.68699 5.58193 4.40775 5.61739 4.27058 5.65138L4.63129 7.10736C4.62282 7.10946 4.65977 7.1014 4.7632 7.08779C4.85454 7.07578 4.97575 7.06224 5.11795 7.04966C5.40329 7.02441 5.76006 7.00417 6.11685 7.00597C6.48001 7.00781 6.81223 7.03251 7.06152 7.08532C7.1859 7.11167 7.26443 7.13991 7.30681 7.16076C7.35312 7.18353 7.31408 7.17636 7.26935 7.10672L8.53152 6.29621ZM4.27058 5.65138C3.60811 5.8155 2.37409 6.77645 1.96137 9.11683L3.43858 9.37733C3.78076 7.43692 4.70662 7.0887 4.63129 7.10736L4.27058 5.65138ZM1.96137 9.11683C1.58229 11.2665 1.12672 15.1997 1.28112 17.2216L2.77677 17.1073C2.6376 15.2848 3.06275 11.5085 3.43858 9.37733L1.96137 9.11683ZM1.28112 17.2216C1.38146 18.5355 2.2681 19.3767 3.2806 19.6497C4.26359 19.9148 5.43937 19.6626 6.16781 18.7565L4.99879 17.8166C4.69971 18.1886 4.1717 18.3364 3.6711 18.2015C3.2 18.0744 2.82322 17.7156 2.77677 17.1073L1.28112 17.2216ZM6.16781 18.7565C6.69746 18.0978 7.20434 17.3904 7.5765 16.8517C7.76319 16.5815 7.91732 16.3517 8.02504 16.1891C8.07892 16.1078 8.12126 16.0431 8.15032 15.9985C8.16485 15.9762 8.17606 15.9589 8.18375 15.947C8.18759 15.9411 8.19055 15.9365 8.19261 15.9333C8.19363 15.9317 8.19443 15.9305 8.195 15.9296C8.19528 15.9292 8.19551 15.9288 8.19568 15.9286C8.19576 15.9284 8.19583 15.9283 8.19589 15.9282C8.19592 15.9282 8.19595 15.9281 8.19596 15.9281C8.19599 15.9281 8.19601 15.928 7.56493 15.5228C6.93384 15.1175 6.93386 15.1175 6.93387 15.1175C6.93387 15.1175 6.93388 15.1175 6.93387 15.1175C6.93387 15.1175 6.93385 15.1175 6.93382 15.1176C6.93376 15.1177 6.93364 15.1178 6.93346 15.1181C6.9331 15.1187 6.93252 15.1196 6.93171 15.1208C6.93009 15.1234 6.92756 15.1273 6.92417 15.1325C6.91738 15.143 6.90709 15.1589 6.89353 15.1797C6.86639 15.2214 6.82616 15.2828 6.77454 15.3607C6.67125 15.5166 6.52263 15.7382 6.34236 15.9992C5.98058 16.5228 5.49664 17.1974 4.99879 17.8166L6.16781 18.7565ZM8.7651 14.4006C8.7651 14.6399 8.56747 14.8455 8.30935 14.8455V16.3455C9.38306 16.3455 10.2651 15.4812 10.2651 14.4006H8.7651ZM8.30935 14.8455C8.05122 14.8455 7.85359 14.6399 7.85359 14.4006H6.35359C6.35359 15.4812 7.23563 16.3455 8.30935 16.3455V14.8455ZM7.85359 14.4006C7.85359 14.1613 8.05122 13.9558 8.30935 13.9558V12.4558C7.23563 12.4558 6.35359 13.3201 6.35359 14.4006H7.85359ZM8.30935 13.9558C8.56747 13.9558 8.7651 14.1613 8.7651 14.4006H10.2651C10.2651 13.3201 9.38306 12.4558 8.30935 12.4558V13.9558ZM14.2228 8.54244C14.5294 8.54244 14.8429 8.482 15.1332 8.35413L14.5286 6.98138C14.4415 7.01976 14.3355 7.04244 14.2228 7.04244V8.54244ZM15.1404 8.35093C15.3497 8.25609 15.6364 8.11029 15.9195 7.91433C16.1962 7.72284 16.5124 7.45434 16.7347 7.10028L15.4644 6.30265C15.3931 6.41615 15.2584 6.54767 15.066 6.68088C14.8799 6.80961 14.679 6.91318 14.5214 6.98459L15.1404 8.35093ZM16.7306 7.10672C16.6859 7.17636 16.6469 7.18353 16.6932 7.16076C16.7356 7.13991 16.8141 7.11167 16.9385 7.08532C17.1878 7.03251 17.52 7.00781 17.8831 7.00597C18.2399 7.00417 18.5967 7.02441 18.882 7.04966C19.0242 7.06224 19.1455 7.07578 19.2368 7.08779C19.3402 7.1014 19.3772 7.10946 19.3687 7.10736L19.7294 5.65138C19.5922 5.61739 19.313 5.58193 19.0143 5.5555C18.6941 5.52717 18.2894 5.5039 17.8756 5.50599C17.4681 5.50805 17.0205 5.53465 16.6276 5.61789C16.4309 5.65956 16.2227 5.72053 16.0312 5.81475C15.8435 5.90704 15.6233 6.05513 15.4685 6.29621L16.7306 7.10672ZM19.3687 7.10736C19.2934 7.0887 20.2192 7.43692 20.5614 9.37733L22.0386 9.11683C21.6259 6.77645 20.3919 5.8155 19.7294 5.65138L19.3687 7.10736ZM20.5614 9.37733C20.9372 11.5085 21.3624 15.2848 21.2232 17.1073L22.7189 17.2216C22.8733 15.1997 22.4177 11.2665 22.0386 9.11683L20.5614 9.37733ZM21.2232 17.1073C21.1768 17.7156 20.8 18.0744 20.3289 18.2015C19.8283 18.3364 19.3003 18.1886 19.0012 17.8166L17.8322 18.7565C18.5606 19.6626 19.7364 19.9148 20.7194 19.6497C21.7319 19.3767 22.6185 18.5355 22.7189 17.2216L21.2232 17.1073ZM19.0012 17.8166C18.5034 17.1974 18.0194 16.5228 17.6576 15.9992C17.4774 15.7382 17.3287 15.5166 17.2255 15.3607C17.1738 15.2828 17.1336 15.2214 17.1065 15.1797C17.0929 15.1589 17.0826 15.143 17.0758 15.1325C17.0724 15.1273 17.0699 15.1234 17.0683 15.1208C17.0675 15.1196 17.0669 15.1187 17.0665 15.1181C17.0664 15.1178 17.0662 15.1177 17.0662 15.1176C17.0661 15.1175 17.0661 15.1175 17.0661 15.1175C17.0661 15.1175 17.0661 15.1175 17.0661 15.1175C17.0661 15.1175 17.0662 15.1175 16.4351 15.5228C15.804 15.928 15.804 15.9281 15.804 15.9281C15.8041 15.9281 15.8041 15.9282 15.8041 15.9282C15.8042 15.9283 15.8042 15.9284 15.8043 15.9286C15.8045 15.9288 15.8047 15.9292 15.805 15.9296C15.8056 15.9305 15.8064 15.9317 15.8074 15.9333C15.8094 15.9365 15.8124 15.9411 15.8162 15.947C15.8239 15.9589 15.8352 15.9762 15.8497 15.9985C15.8787 16.0431 15.9211 16.1078 15.975 16.1891C16.0827 16.3517 16.2368 16.5815 16.4235 16.8517C16.7957 17.3904 17.3025 18.0978 17.8322 18.7565L19.0012 17.8166ZM16.1464 14.4006C16.1464 14.6399 15.9488 14.8455 15.6907 14.8455V16.3455C16.7644 16.3455 17.6464 15.4812 17.6464 14.4006H16.1464ZM15.6907 14.8455C15.4325 14.8455 15.2349 14.6399 15.2349 14.4006H13.7349C13.7349 15.4812 14.6169 16.3455 15.6907 16.3455V14.8455ZM15.2349 14.4006C15.2349 14.1613 15.4325 13.9558 15.6907 13.9558V12.4558C14.6169 12.4558 13.7349 13.3201 13.7349 14.4006H15.2349ZM15.6907 13.9558C15.9488 13.9558 16.1464 14.1613 16.1464 14.4006H17.6464C17.6464 13.3201 16.7644 12.4558 15.6907 12.4558V13.9558ZM11.0878 6.40205H12.6605V4.90205H11.0878V6.40205ZM12.6605 6.40205C12.6679 6.40205 12.6729 6.40339 12.6767 6.40498C12.681 6.40678 12.6851 6.40952 12.6887 6.41302C12.6922 6.41652 12.6942 6.41991 12.6953 6.42241C12.6962 6.42438 12.6969 6.42688 12.6969 6.43132H14.1969C14.1969 5.58034 13.5026 4.90205 12.6605 4.90205V6.40205ZM12.6969 6.43132V7.02356H14.1969V6.43132H12.6969ZM12.6969 7.02356C12.6969 7.028 12.6962 7.0305 12.6953 7.03247C12.6942 7.03497 12.6922 7.03836 12.6887 7.04186C12.6851 7.04537 12.681 7.0481 12.6767 7.0499C12.6729 7.05149 12.6679 7.05283 12.6605 7.05283V8.55283C13.5026 8.55283 14.1969 7.87455 14.1969 7.02356H12.6969ZM12.6605 7.05283H11.0878V8.55283H12.6605V7.05283ZM11.0878 7.05283C11.0804 7.05283 11.0755 7.05149 11.0717 7.0499C11.0674 7.0481 11.0632 7.04537 11.0597 7.04186C11.0562 7.03836 11.0541 7.03497 11.0531 7.03247C11.0522 7.0305 11.0515 7.028 11.0515 7.02356H9.55146C9.55146 7.87455 10.2457 8.55283 11.0878 8.55283V7.05283ZM11.0515 7.02356V6.43132H9.55146V7.02356H11.0515ZM11.0515 6.43132C11.0515 6.42688 11.0522 6.42438 11.0531 6.42241C11.0541 6.41991 11.0562 6.41652 11.0597 6.41302C11.0632 6.40952 11.0674 6.40678 11.0717 6.40498C11.0755 6.40339 11.0804 6.40205 11.0878 6.40205V4.90205C10.2457 4.90205 9.55146 5.58034 9.55146 6.43132H11.0515ZM11.1242 4V5.20527H12.6242V4H11.1242ZM14.2228 7.04244H9.77722V8.54244H14.2228V7.04244ZM14.4849 13.6506H9.5151V15.1506H14.4849V13.6506Z" fill="white"/>
</svg>
