<svg width="24" height="24" viewBox="0 0 24 24" fill="none" xmlns="http://www.w3.org/2000/svg">
<path d="M2.33496 10.3369C2.02171 10.0472 2.19187 9.52353 2.61557 9.47329L8.61914 8.76149C8.79182 8.74101 8.94181 8.63222 9.01465 8.47431L11.5469 2.98445C11.7256 2.59701 12.2764 2.59696 12.4551 2.9844L14.9873 8.47439C15.0601 8.63229 15.2092 8.74102 15.3818 8.7615L21.3857 9.47329C21.8094 9.52353 21.9795 10.0473 21.6662 10.3369L17.2279 14.4417C17.1002 14.5597 17.0433 14.7357 17.0771 14.9063L18.2551 20.8361C18.3383 21.2546 17.8929 21.5782 17.5206 21.3698L12.2453 18.4169C12.0935 18.3319 11.9087 18.3318 11.757 18.4168L6.48109 21.3698C6.10878 21.5782 5.66294 21.2546 5.74609 20.8361L6.92437 14.9062C6.95826 14.7357 6.90134 14.5598 6.77367 14.4417L2.33496 10.3369Z" stroke="#E3E3E5" stroke-width="1.5" stroke-linecap="round" stroke-linejoin="round"/>
</svg>
