<svg width="24" height="24" viewBox="0 0 24 24" fill="none" xmlns="http://www.w3.org/2000/svg">
<path d="M15.86 9.40658C15.8361 9.82011 16.1519 10.1747 16.5654 10.1987C16.9789 10.2226 17.3336 9.9068 17.3575 9.49328L15.86 9.40658ZM19.2357 7.35693C19.6206 7.20399 19.8087 6.76794 19.6558 6.383C19.5028 5.99806 19.0668 5.80999 18.6818 5.96293L19.2357 7.35693ZM16.8312 8.72368C16.4356 8.60083 16.0154 8.82192 15.8925 9.21749C15.7697 9.61307 15.9908 10.0333 16.3863 10.1562L16.8312 8.72368ZM17.8567 12.6484C17.9166 13.0583 18.2974 13.342 18.7072 13.282C19.1171 13.2221 19.4008 12.8413 19.3409 12.4315L17.8567 12.6484ZM17.1075 9.97881C17.4217 9.70888 17.4576 9.23536 17.1876 8.92118C16.9177 8.607 16.4442 8.57112 16.13 8.84106L17.1075 9.97881ZM13.0099 9.01686C12.6216 8.87264 12.1899 9.0705 12.0457 9.45879C11.9015 9.84709 12.0993 10.2788 12.4876 10.423L13.0099 9.01686ZM8.14423 9.03349C7.97499 9.41155 8.14427 9.85523 8.52233 10.0245C8.90039 10.1937 9.34407 10.0244 9.51331 9.64637L8.14423 9.03349ZM10.8388 4.84993L11.5233 5.15638L11.5241 5.15454L10.8388 4.84993ZM10.2888 3.77993L10.4417 3.04566L10.434 3.04413L10.2888 3.77993ZM8.32877 4.60993L7.69882 4.20289L7.69685 4.20598L8.32877 4.60993ZM5.38877 9.55993L6.03189 9.9458C6.03504 9.94055 6.03813 9.93526 6.04115 9.92994L5.38877 9.55993ZM5.31877 9.89993L4.57136 9.96222C4.57214 9.97163 4.57311 9.98103 4.57425 9.99041L5.31877 9.89993ZM5.79877 13.8499L5.05425 13.9404C5.0552 13.9483 5.05628 13.9561 5.05749 13.964L5.79877 13.8499ZM5.69877 14.2299L5.09222 13.7888C5.08928 13.7928 5.08638 13.7969 5.08353 13.801L5.69877 14.2299ZM2.87353 16.971C2.63664 17.3108 2.72006 17.7783 3.05985 18.0152C3.39964 18.2521 3.86712 18.1686 4.10401 17.8289L2.87353 16.971ZM7.70343 14.0775C7.78493 14.4836 8.18022 14.7468 8.58634 14.6653C8.99245 14.5838 9.25561 14.1885 9.17411 13.7824L7.70343 14.0775ZM7.84877 10.9899L8.58411 10.8424C8.58002 10.822 8.57508 10.8018 8.56931 10.7818L7.84877 10.9899ZM8.38877 9.65993L8.61157 10.3761C8.62646 10.3714 8.6412 10.3663 8.65577 10.3608L8.38877 9.65993ZM8.59877 9.57993L8.3616 8.86842C8.35158 8.87176 8.34164 8.87531 8.33177 8.87907L8.59877 9.57993ZM9.87877 10.2899L9.16886 10.5319L9.17106 10.5382L9.87877 10.2899ZM11.1488 13.9099L11.857 13.6631L11.8565 13.6616L11.1488 13.9099ZM10.5288 17.7999L9.93331 17.3439L9.93256 17.3449L10.5288 17.7999ZM7.61256 20.3849C7.36126 20.7142 7.42449 21.1849 7.75376 21.4361C8.08304 21.6874 8.55369 21.6242 8.80498 21.2949L7.61256 20.3849ZM19.5588 9.48993C19.5588 11.2131 18.1619 12.6099 16.4388 12.6099V14.1099C18.9903 14.1099 21.0588 12.0415 21.0588 9.48993H19.5588ZM16.4388 12.6099C14.7156 12.6099 13.3188 11.2131 13.3188 9.48993H11.8188C11.8188 12.0415 13.8872 14.1099 16.4388 14.1099V12.6099ZM13.3188 9.48993C13.3188 7.7668 14.7156 6.36993 16.4388 6.36993V4.86993C13.8872 4.86993 11.8188 6.93838 11.8188 9.48993H13.3188ZM16.4388 6.36993C18.1619 6.36993 19.5588 7.7668 19.5588 9.48993H21.0588C21.0588 6.93838 18.9903 4.86993 16.4388 4.86993V6.36993ZM16.6088 9.44993C17.3575 9.49328 17.3575 9.49369 17.3575 9.4941C17.3575 9.49423 17.3574 9.49463 17.3574 9.49488C17.3574 9.49538 17.3574 9.49586 17.3573 9.49631C17.3573 9.49721 17.3572 9.49801 17.3572 9.49869C17.3571 9.50006 17.357 9.50101 17.357 9.50154C17.3569 9.5026 17.3569 9.502 17.3571 9.49982C17.3576 9.49547 17.3587 9.48488 17.3609 9.46872C17.3653 9.43631 17.3742 9.38214 17.3909 9.31139C17.4244 9.16926 17.4884 8.96501 17.6079 8.73706C17.841 8.29274 18.2991 7.72905 19.2357 7.35693L18.6818 5.96293C17.3784 6.48082 16.6615 7.31212 16.2796 8.04031C16.0917 8.3986 15.9881 8.72498 15.931 8.96691C15.9024 9.08819 15.8852 9.18942 15.8749 9.26439C15.8697 9.30192 15.8663 9.33302 15.864 9.35693C15.8628 9.36889 15.862 9.37907 15.8613 9.38737C15.861 9.39152 15.8608 9.39521 15.8605 9.39841C15.8604 9.40002 15.8603 9.4015 15.8602 9.40286C15.8602 9.40354 15.8602 9.40419 15.8601 9.40481C15.8601 9.40512 15.8601 9.40557 15.8601 9.40572C15.86 9.40616 15.86 9.40658 16.6088 9.44993ZM16.6088 9.43993C16.3863 10.1562 16.3858 10.156 16.3854 10.1559C16.3852 10.1558 16.3847 10.1557 16.3844 10.1556C16.3838 10.1554 16.3832 10.1552 16.3827 10.155C16.3815 10.1547 16.3805 10.1544 16.3796 10.154C16.3777 10.1534 16.3761 10.1529 16.375 10.1525C16.3726 10.1517 16.3716 10.1514 16.3719 10.1515C16.3726 10.1517 16.3785 10.1539 16.3889 10.1583C16.4099 10.167 16.4489 10.1846 16.5009 10.2137C16.605 10.2717 16.7608 10.3751 16.9309 10.5453C17.2629 10.8772 17.6892 11.5026 17.8567 12.6484L19.3409 12.4315C19.1283 10.9772 18.5596 10.0526 17.9916 9.4846C17.7118 9.20479 17.4413 9.02065 17.2316 8.90368C17.1268 8.84523 17.037 8.80345 16.9684 8.77472C16.9341 8.76035 16.905 8.74921 16.8819 8.74086C16.8704 8.73669 16.8603 8.73321 16.8518 8.73036C16.8476 8.72894 16.8438 8.72767 16.8403 8.72656C16.8386 8.72601 16.837 8.72549 16.8355 8.72501C16.8347 8.72477 16.834 8.72454 16.8333 8.72432C16.8329 8.72421 16.8324 8.72405 16.8322 8.72399C16.8317 8.72383 16.8312 8.72368 16.6088 9.43993ZM16.6188 9.40993C16.13 8.84106 16.1304 8.84077 16.1307 8.84049C16.1308 8.8404 16.1311 8.84012 16.1313 8.83994C16.1317 8.83959 16.1321 8.83926 16.1325 8.83894C16.1332 8.83831 16.1339 8.83774 16.1345 8.83725C16.1357 8.83626 16.1365 8.83555 16.137 8.83511C16.1381 8.83423 16.1379 8.8344 16.1365 8.83554C16.1336 8.83782 16.1258 8.84393 16.1131 8.85312C16.0877 8.87154 16.0431 8.90205 15.9802 8.93878C15.8543 9.01238 15.657 9.10968 15.3941 9.18571C14.8784 9.33487 14.0759 9.41281 13.0099 9.01686L12.4876 10.423C13.8716 10.937 15.0041 10.86 15.8109 10.6267C16.2093 10.5114 16.5201 10.3606 16.737 10.2339C16.8455 10.1705 16.9311 10.1128 16.9929 10.068C17.0238 10.0456 17.0488 10.0264 17.068 10.0113C17.0775 10.0037 17.0856 9.99714 17.0922 9.9917C17.0955 9.98897 17.0984 9.98653 17.101 9.98438C17.1023 9.9833 17.1034 9.9823 17.1045 9.98137C17.1051 9.9809 17.1056 9.98046 17.1061 9.98003C17.1063 9.97982 17.1067 9.97951 17.1068 9.97941C17.1072 9.97911 17.1075 9.97881 16.6188 9.40993ZM9.51331 9.64637L11.5233 5.15637L10.1542 4.54349L8.14423 9.03349L9.51331 9.64637ZM11.5241 5.15454C11.9199 4.264 11.3857 3.24236 10.4417 3.0457L10.1358 4.51417C10.1411 4.51526 10.1431 4.51666 10.1445 4.51776C10.1467 4.51949 10.1497 4.5227 10.1522 4.52745C10.1546 4.53217 10.1553 4.53598 10.1553 4.53789C10.1554 4.53871 10.1555 4.54052 10.1534 4.54533L11.5241 5.15454ZM10.434 3.04413C9.37344 2.83481 8.28595 3.29426 7.69883 4.2029L8.95871 5.01697C9.21159 4.62561 9.6841 4.42506 10.1435 4.51574L10.434 3.04413ZM7.69685 4.20598C6.67485 5.80475 5.11593 8.52074 4.73639 9.18993L6.04115 9.92994C6.42161 9.25913 7.96269 6.57512 8.96069 5.01388L7.69685 4.20598ZM4.74565 9.17406C4.5867 9.43899 4.55157 9.72472 4.57136 9.96222L6.06618 9.83765C6.06626 9.83864 6.06705 9.84861 6.06356 9.86644C6.05997 9.88483 6.05139 9.9133 6.03189 9.9458L4.74565 9.17406ZM4.57425 9.99041L5.05425 13.9404L6.54329 13.7595L6.06329 9.80946L4.57425 9.99041ZM5.05749 13.964C5.05 13.9153 5.05538 13.8773 5.06206 13.8525C5.06874 13.8276 5.07905 13.8069 5.09222 13.7888L6.30532 14.6711C6.48538 14.4235 6.59411 14.0873 6.54005 13.7359L5.05749 13.964ZM5.08353 13.801L2.87353 16.971L4.10401 17.8289L6.31401 14.6589L5.08353 13.801ZM9.17411 13.7824L8.58411 10.8424L7.11343 11.1375L7.70343 14.0775L9.17411 13.7824ZM8.56931 10.7818C8.56623 10.7711 8.55853 10.7313 8.56321 10.664C8.56772 10.5991 8.5824 10.5296 8.60532 10.4672C8.62878 10.4033 8.65392 10.3655 8.66715 10.3499C8.67978 10.3351 8.66444 10.3596 8.61157 10.3761L8.16597 8.94379C7.61847 9.11412 7.32817 9.59353 7.19722 9.95019C7.06022 10.3233 7.0095 10.7871 7.12823 11.1981L8.56931 10.7818ZM8.65577 10.3608L8.86577 10.2808L8.33177 8.87907L8.12177 8.95907L8.65577 10.3608ZM8.83594 10.2914C8.7961 10.3047 8.78688 10.2946 8.82437 10.3019C8.86013 10.3089 8.91437 10.3275 8.97667 10.3634C9.03833 10.399 9.09153 10.4421 9.12927 10.4827C9.16936 10.5259 9.17373 10.5461 9.16889 10.5319L10.5887 10.0479C10.4359 9.59976 10.068 9.26119 9.72587 9.06393C9.39069 8.87069 8.87527 8.69719 8.3616 8.86842L8.83594 10.2914ZM9.17106 10.5382L10.4411 14.1582L11.8565 13.6616L10.5865 10.0416L9.17106 10.5382ZM10.4405 14.1567C10.8181 15.2401 10.6288 16.4357 9.93331 17.3439L11.1242 18.2559C12.1287 16.9442 12.3995 15.2198 11.857 13.6631L10.4405 14.1567ZM9.93256 17.3449L7.61256 20.3849L8.80498 21.2949L11.125 18.2549L9.93256 17.3449ZM4.15243 16.5103L9.13243 19.7203L9.94511 18.4595L4.96511 15.2495L4.15243 16.5103Z" fill="white"/>
</svg>
