<svg width="16" height="16" viewBox="0 0 16 16" fill="none" xmlns="http://www.w3.org/2000/svg">
<path d="M6.44279 4.88905C7.57563 3.11127 7.22948 1.77794 6.91481 1.3335C7.85884 1.3335 9.7469 2.66683 10.2189 4.44461C10.6909 6.22239 10.2189 8.00016 9.7469 8.88905C11.2574 9.24461 11.9496 7.70387 12.107 7.11127C13.523 8.88905 13.523 10.6668 13.051 12.0002C12.2067 14.3853 10.2189 14.6668 9.27489 14.6668C9.7469 14.2224 9.7469 12.4446 8.33085 11.5557C7.33729 10.932 7.38682 9.62979 7.38682 8.88905C4.36591 11.0224 5.49875 13.6298 6.44279 14.6668C4.97931 14.3335 2.66665 13.3335 2.66665 10.6668C2.66665 8.00016 5.02674 7.11127 6.44279 4.88905Z" stroke="#DB2D59" stroke-linecap="round" stroke-linejoin="round"/>
</svg>
