<svg width="24" height="24" viewBox="0 0 24 24" fill="none" xmlns="http://www.w3.org/2000/svg">
<path d="M9.6642 7.33333C11.3635 4.66667 10.8442 2.66667 10.3722 2C11.7883 2 14.6204 4 15.3284 6.66667C16.0364 9.33333 15.3284 12 14.6204 13.3333C16.8861 13.8667 17.9245 11.5556 18.1605 10.6667C20.2846 13.3333 20.2846 16 19.5765 18C18.31 21.5777 15.3284 22 13.9123 22C14.6204 21.3333 14.6204 18.6667 12.4963 17.3333C11.0059 16.3978 11.0802 14.4444 11.0802 13.3333C6.54889 16.5333 8.24815 20.4444 9.6642 22C7.46898 21.5 4 20 4 16C4 12 7.54012 10.6667 9.6642 7.33333Z" stroke="#E3E3E5" stroke-width="1.5" stroke-linecap="round" stroke-linejoin="round"/>
</svg>
