<svg width="24" height="24" viewBox="0 0 24 24" fill="none" xmlns="http://www.w3.org/2000/svg">
<path d="M12.06 10.02C11.48 9.44 10.28 9.63 9.78 10.39C9.23 11.23 9.62 12.24 10.43 12.69C10.43 12.69 9.26 14.17 10.54 15.31C11.6 16.25 12.83 15.43 13.13 14.67M14.84 13.34C14.84 13.34 16.18 12.85 15.8 11.66C15.46 10.59 14.59 10.61 14 10.86M5.34 11.03C5.34 11.03 4.44 9.12 5.9 7.38C7.19 5.84 9.42 5.88 10.41 6.26C10.41 6.26 11.4 3.94 13.99 4.74M16.15 5.64C16.15 5.64 17.84 6.26 17.85 8.67C17.85 8.67 19.14 8.71 19.93 10.19C20.56 11.37 20.65 12.98 19.75 14.18C18.61 15.69 17.47 15.54 17.47 15.54C17.47 15.54 17.98 16.12 18.02 16.96C18.08 18.35 17.19 19.3 16.37 19.48M5.85 13.45C5.85 13.45 5.33 14.28 5.33 15.61C5.33 17.81 7.07 19.68 9.2 19.68C10.66 19.68 11.77 18.93 11.77 18.93C11.77 18.93 12.31 19.73 13.33 19.96M2.4 10.83L6.44 11.22M1 13.59L3.23 13.3M15.34 18.77L16.96 21.5M18.94 10.65L22.75 8.98M14.76 2.75L13.45 6.43" stroke="#E3E3E5" stroke-width="1.5" stroke-linecap="round" stroke-linejoin="round"/>
</svg>
