<svg width="16" height="16" viewBox="0 0 16 16" fill="none" xmlns="http://www.w3.org/2000/svg">
<path d="M1.33325 13.3324H14.6666M13.3333 7.63384V13.3325L9.33325 13.3324V10.6657C9.33325 9.92936 8.7363 9.33241 7.99992 9.33241C7.26354 9.33241 6.66659 9.92936 6.66659 10.6657V13.3324H2.66659V7.63384C2.66659 7.27761 2.66659 7.09949 2.7099 6.93373C2.74828 6.78683 2.81145 6.64753 2.89673 6.52191C2.99295 6.38016 3.12701 6.2629 3.3951 6.02832L6.5951 3.22832C7.09284 2.7928 7.34158 2.57507 7.62166 2.49224C7.86846 2.41925 8.13138 2.41925 8.37817 2.49224C8.65826 2.57507 8.90713 2.7928 9.40487 3.22832L12.6049 6.02832C12.873 6.2629 13.0069 6.38016 13.1031 6.52191C13.1884 6.64753 13.2516 6.78683 13.29 6.93373C13.3333 7.09949 13.3333 7.27762 13.3333 7.63384Z" stroke="white" stroke-linecap="round" stroke-linejoin="round"/>
</svg>
