<svg width="24" height="24" viewBox="0 0 24 24" fill="none" xmlns="http://www.w3.org/2000/svg">
<path d="M12.5 6C12.5 6.27614 12.2761 6.5 12 6.5C11.7239 6.5 11.5 6.27614 11.5 6C11.5 5.72386 11.7239 5.5 12 5.5C12.2761 5.5 12.5 5.72386 12.5 6Z" fill="#E3E3E5" stroke="#DB2D59"/>
<path d="M7.5 13C8.05228 13 8.5 12.5523 8.5 12C8.5 11.4477 8.05228 11 7.5 11C6.94772 11 6.5 11.4477 6.5 12C6.5 12.5523 6.94772 13 7.5 13Z" fill="#DB2D59"/>
<path d="M16.5 13C17.0523 13 17.5 12.5523 17.5 12C17.5 11.4477 17.0523 11 16.5 11C15.9477 11 15.5 11.4477 15.5 12C15.5 12.5523 15.9477 13 16.5 13Z" fill="#DB2D59"/>
<path d="M15.7998 9C16.3521 9 16.7998 8.55228 16.7998 8C16.7998 7.44771 16.3521 7 15.7998 7C15.2475 7 14.7998 7.44771 14.7998 8C14.7998 8.55228 15.2475 9 15.7998 9Z" fill="#DB2D59"/>
<path d="M3 21H21M6.39548 21L11.449 11.8405M17.6145 21L12.5609 11.8405M19.8086 10.8339C19.8086 15.1604 16.3148 18.6678 12.005 18.6678C7.69513 18.6678 4.20132 15.1604 4.20132 10.8339C4.20132 6.50735 7.69513 3 12.005 3C16.3148 3 19.8086 6.50735 19.8086 10.8339ZM13.1467 10.8339C13.1467 11.4669 12.6355 11.9801 12.005 11.9801C11.3744 11.9801 10.8632 11.4669 10.8632 10.8339C10.8632 10.2009 11.3744 9.68771 12.005 9.68771C12.6355 9.68771 13.1467 10.2009 13.1467 10.8339Z" stroke="#DB2D59" stroke-width="1.5" stroke-miterlimit="10" stroke-linecap="round"/>
</svg>
