<svg width="24" height="24" viewBox="0 0 24 24" fill="none" xmlns="http://www.w3.org/2000/svg">
<path d="M11.2 13.96C10.7858 13.96 10.45 14.2958 10.45 14.71C10.45 15.1242 10.7858 15.46 11.2 15.46V13.96ZM12.73 15.46C13.1442 15.46 13.48 15.1242 13.48 14.71C13.48 14.2958 13.1442 13.96 12.73 13.96V15.46ZM11.96 9.61L12.6308 9.27459C12.5038 9.0205 12.2441 8.86 11.96 8.86C11.6759 8.86 11.4162 9.0205 11.2892 9.27459L11.96 9.61ZM9.76 12.77L9.0469 13.0024L9.04782 13.0052L9.76 12.77ZM11.96 13.08L12.6443 12.773C12.5242 12.5054 12.2591 12.3323 11.9658 12.33C11.6725 12.3277 11.4048 12.4966 11.2806 12.7624L11.96 13.08ZM14.16 12.77L14.8722 13.0052L14.8731 13.0024L14.16 12.77ZM20.42 11.96C20.42 16.6323 16.6323 20.42 11.96 20.42V21.92C17.4608 21.92 21.92 17.4608 21.92 11.96H20.42ZM11.96 20.42C7.28767 20.42 3.5 16.6323 3.5 11.96H2C2 17.4608 6.45924 21.92 11.96 21.92V20.42ZM3.5 11.96C3.5 7.28767 7.28767 3.5 11.96 3.5V2C6.45924 2 2 6.45924 2 11.96H3.5ZM11.96 3.5C16.6323 3.5 20.42 7.28767 20.42 11.96H21.92C21.92 6.45924 17.4608 2 11.96 2V3.5ZM17.31 11.96C17.31 14.9147 14.9147 17.31 11.96 17.31V18.81C15.7432 18.81 18.81 15.7432 18.81 11.96H17.31ZM11.96 17.31C9.00528 17.31 6.61 14.9147 6.61 11.96H5.11C5.11 15.7432 8.17685 18.81 11.96 18.81V17.31ZM6.61 11.96C6.61 9.00528 9.00528 6.61 11.96 6.61V5.11C8.17685 5.11 5.11 8.17685 5.11 11.96H6.61ZM11.96 6.61C14.9147 6.61 17.31 9.00528 17.31 11.96H18.81C18.81 8.17685 15.7432 5.11 11.96 5.11V6.61ZM11.21 2.75V6.5H12.71V2.75H11.21ZM11.21 17.42V21.18H12.71V17.42H11.21ZM3.60596 8.01007L6.85596 9.88007L7.60404 8.57993L4.35404 6.70993L3.60596 8.01007ZM16.3145 15.3392L19.5645 17.2192L20.3155 15.9208L17.0655 14.0408L16.3145 15.3392ZM4.35554 17.2192L7.60554 15.3392L6.85446 14.0408L3.60446 15.9208L4.35554 17.2192ZM17.064 9.88007L20.314 8.01007L19.566 6.70993L16.316 8.57993L17.064 9.88007ZM11.2 15.46H12.73V13.96H11.2V15.46ZM11.2892 9.27459C11.2945 9.26391 11.2831 9.29038 11.2137 9.35547C11.1469 9.41818 11.0542 9.49122 10.9276 9.58235C10.7045 9.74304 10.3258 9.99032 10.0181 10.2416C9.69636 10.5043 9.34049 10.8543 9.123 11.321C8.89246 11.8157 8.84487 12.3823 9.0469 13.0024L10.4731 12.5376C10.3851 12.2677 10.4175 12.0943 10.4826 11.9546C10.5608 11.7869 10.7161 11.6082 10.9669 11.4034C11.2317 11.1872 11.4867 11.0282 11.8043 10.7995C12.0581 10.6167 12.4368 10.3336 12.6308 9.94541L11.2892 9.27459ZM9.04782 13.0052C9.3348 13.8743 10.0926 14.296 10.7894 14.3583C11.446 14.417 12.2814 14.1634 12.6394 13.3976L11.2806 12.7624C11.2786 12.7666 11.189 12.888 10.9231 12.8642C10.6974 12.844 10.5352 12.7257 10.4722 12.5348L9.04782 13.0052ZM11.2757 13.387C11.6267 14.1693 12.4716 14.4222 13.1286 14.3619C13.8254 14.2978 14.5853 13.8741 14.8722 13.0052L13.4478 12.5348C13.3847 12.7259 13.2196 12.8472 12.9914 12.8681C12.878 12.8786 12.7807 12.8584 12.717 12.8289C12.6566 12.801 12.6455 12.7757 12.6443 12.773L11.2757 13.387ZM14.8731 13.0024C15.0751 12.3823 15.0275 11.8157 14.797 11.321C14.5795 10.8543 14.2236 10.5043 13.9019 10.2416C13.5942 9.99032 13.2155 9.74304 12.9924 9.58235C12.8658 9.49122 12.7731 9.41818 12.7063 9.35547C12.6369 9.29038 12.6255 9.26391 12.6308 9.27459L11.2892 9.94541C11.4832 10.3336 11.8619 10.6167 12.1157 10.7995C12.4333 11.0282 12.6883 11.1872 12.9531 11.4034C13.2039 11.6082 13.3592 11.7869 13.4374 11.9546C13.5025 12.0943 13.5349 12.2677 13.4469 12.5376L14.8731 13.0024Z" fill="#DB2D59"/>
</svg>
