<svg width="24" height="24" viewBox="0 0 24 24" fill="none" xmlns="http://www.w3.org/2000/svg">
<path d="M18.0313 6.75776L16.2635 8.52552M14.8493 4.28288L15.5564 4.98999M19.799 9.23263L20.5061 9.93974M20.6777 7.11131H21.6777M19.7991 4.99003L20.5062 4.28293M17.6778 4.11133V3.11133M10.5294 10.5696C9.14324 10.3372 7.66921 10.7558 6.59965 11.8254C5.66519 12.7599 5.22762 14.003 5.28694 15.2266M12.2516 8.29475L13.4351 7.11131C13.8256 6.72079 14.4588 6.72079 14.8493 7.11131L17.6777 9.93974C18.0682 10.3303 18.0682 10.9634 17.6777 11.354L16.4943 12.5374C17.3721 15.0041 16.8238 17.8647 14.8493 19.8392C12.1156 22.5729 7.68346 22.5729 4.94979 19.8392C2.21612 17.1056 2.21612 12.6734 4.94979 9.93974C6.92431 7.96521 9.78496 7.41688 12.2516 8.29475Z" stroke="#DB2D59" stroke-width="1.5" stroke-linecap="round"/>
</svg>
