<svg width="24" height="24" viewBox="0 0 24 24" fill="none" xmlns="http://www.w3.org/2000/svg">
<path d="M18.0312 6.75788L16.2634 8.52565M14.8492 4.283L15.5563 4.99011M19.799 9.23275L20.5061 9.93986M20.6777 7.11143H21.6777M19.799 4.99015L20.5061 4.28305M17.6777 4.11145V3.11145M10.5293 10.5697C9.14318 10.3374 7.66915 10.756 6.59959 11.8255C5.66513 12.76 5.22756 14.0032 5.28688 15.2268M12.2516 8.29487L13.435 7.11143C13.8255 6.72091 14.4587 6.72091 14.8492 7.11143L17.6776 9.93986C18.0682 10.3304 18.0682 10.9635 17.6776 11.3541L16.4942 12.5375C17.3721 15.0042 16.8237 17.8648 14.8492 19.8394C12.1156 22.573 7.6834 22.573 4.94973 19.8394C2.21606 17.1057 2.21606 12.6735 4.94973 9.93986C6.92425 7.96534 9.78489 7.41701 12.2516 8.29487Z" stroke="#E3E3E5" stroke-width="1.5" stroke-linecap="round"/>
</svg>
