<svg width="24" height="24" viewBox="0 0 24 24" fill="none" xmlns="http://www.w3.org/2000/svg">
<path d="M14.5903 2.66406C13.8029 2.66406 13.0246 2.85733 12.3396 3.22297C12.2236 3.2849 12.1101 3.35185 12 3.42325C11.8899 3.35189 11.7765 3.28496 11.6605 3.22305C10.9754 2.85739 10.1972 2.6641 9.4099 2.66406C8.56681 2.66406 7.7377 2.88488 7.01187 3.30261L6.93876 3.34471L6.93335 3.34884C5.9084 3.96487 5.15121 4.93826 4.79959 6.09277C4.63657 6.62803 4.56815 7.17082 4.59526 7.71091C4.11566 7.95743 3.68153 8.28831 3.30127 8.69764C2.46215 9.60076 2 10.7743 2 12.0019C2 13.2296 2.46211 14.4031 3.30121 15.3062C3.68153 15.7156 4.11566 16.0465 4.59525 16.293C4.56815 16.833 4.63656 17.3758 4.79959 17.9112C5.15933 19.0922 5.94078 20.0806 7.00001 20.6945C7.7288 21.1167 8.56206 21.3399 9.40976 21.3399C10.1971 21.3399 10.9754 21.1466 11.6605 20.7809C11.7764 20.719 11.8899 20.6521 12 20.5807C12.1101 20.6521 12.2236 20.719 12.3396 20.7809C13.0247 21.1466 13.803 21.3399 14.5903 21.3399C15.4381 21.3399 16.2711 21.1168 16.9993 20.6949L17.1896 20.5843L17.2056 20.5684C18.1588 19.9502 18.8661 19.0086 19.2004 17.9112C19.3634 17.376 19.4318 16.8331 19.4048 16.293C19.8843 16.0465 20.3185 15.7156 20.6988 15.3063C21.5379 14.4031 22 13.2296 22 12.002C22 10.7743 21.5379 9.60086 20.6988 8.69766C20.3184 8.28829 19.8843 7.95741 19.4048 7.71093C19.4318 7.17082 19.3634 6.62803 19.2004 6.09279C18.8409 4.9122 18.0606 3.92444 17.0033 3.3114L16.9955 3.30688C16.267 2.88612 15.4357 2.6641 14.5903 2.66406Z" stroke="#DB2D59" stroke-width="1.5"/>
<path d="M12 16.4964C12.6147 17.5178 13.9779 17.8099 14.9999 17.2176C16.0217 16.6255 16.452 15.2949 15.8789 14.2499C17.067 14.2257 18 13.1864 18 12.0021C18 10.8179 17.067 9.77858 15.8789 9.75429C16.452 8.70936 16.0218 7.37875 15 6.78664C13.9779 6.19435 12.6148 6.48648 12 7.50783C11.3852 6.48647 10.0221 6.19433 9 6.78661C7.9782 7.37874 7.54795 8.70935 8.12106 9.75429C6.93291 9.77855 5.99997 10.8179 5.99997 12.0021C5.99997 13.1864 6.93291 14.2257 8.12106 14.2499C7.54792 15.2949 7.97817 16.6255 8.99994 17.2176C10.022 17.8099 11.3852 17.5177 12 16.4964Z" stroke="#DB2D59" stroke-width="1.5"/>
</svg>
