<svg width="24" height="24" viewBox="0 0 24 24" fill="none" xmlns="http://www.w3.org/2000/svg">
<path d="M14.8093 15.3192L11.5368 18.7051C9.89076 20.4081 7.12428 20.0679 5.17735 17.8755C3.36883 15.8389 3.1819 13.4214 5.17735 11.3569C6.40182 10.09 8.16175 9.71476 9.70341 10.2312M16.6316 20L18.685 17.8755C20.4248 16.0754 21.0921 13.2037 18.685 11.0672C16.6316 9.24472 14.2467 9.94584 12.5069 11.7459L9.41287 14.9471M9.5 6C9.5 7.10457 8.60457 8 7.5 8C6.39543 8 5.5 7.10457 5.5 6C5.5 4.89543 6.39543 4 7.5 4C8.60457 4 9.5 4.89543 9.5 6ZM18.5 6C18.5 7.10457 17.6046 8 16.5 8C15.3954 8 14.5 7.10457 14.5 6C14.5 4.89543 15.3954 4 16.5 4C17.6046 4 18.5 4.89543 18.5 6Z" stroke="white" stroke-width="1.5" stroke-linecap="round"/>
</svg>
