<svg width="24" height="24" viewBox="0 0 24 24" fill="none" xmlns="http://www.w3.org/2000/svg">
<path d="M5.02401 10.5603H7.74802M16.098 22.5H18.822M6.54003 15.7285C6.13655 13.8462 2.91822 13.0491 2.18229 15.2951C1.02258 18.8343 5.7447 20.0787 6.54003 21.6734C7.33535 20.0787 12.0575 18.8343 10.8978 15.2951C10.1618 13.0491 6.9435 13.8462 6.54003 15.7285ZM17.6989 1.5C17.1179 3.23319 14.9256 5.70878 13.3978 6.3639C14.9292 7.02053 17.1191 9.49845 17.6989 11.2279C18.2793 9.49693 20.47 7.01994 22 6.36395C20.4684 5.70721 18.2787 3.22897 17.6989 1.5ZM6.38606 1.5C5.67423 2.92728 1.44778 3.94377 2.48572 7.11162C3.10112 8.99002 5.75858 9.03321 6.38601 7.65659C7.01344 9.03321 9.67085 8.99002 10.2863 7.11162C11.3243 3.94377 7.09784 2.92728 6.38606 1.5ZM19.4657 16.6837C19.2417 16.6837 19.0278 16.7203 18.8261 16.7815C19.1155 16.4784 19.2967 16.0838 19.2967 15.6465C19.2967 14.6986 18.4707 13.9301 17.4517 13.9301C16.4327 13.9301 15.6067 14.6986 15.6067 15.6465C15.6067 16.0838 15.7879 16.4784 16.0773 16.7815C15.8756 16.7203 15.6618 16.6837 15.4378 16.6837C14.2888 16.6837 13.3574 17.5502 13.3574 18.6191C13.3574 19.6879 14.2888 20.5545 15.4378 20.5545C16.2792 20.5545 17.1254 20.0866 17.4517 19.4174C17.7781 20.0866 18.6242 20.5545 19.4657 20.5545C20.6146 20.5545 21.546 19.6879 21.546 18.6191C21.546 17.5502 20.6146 16.6837 19.4657 16.6837Z" stroke="#DB2D59" stroke-width="1.5" stroke-linecap="round" stroke-linejoin="round"/>
</svg>
