<svg width="24" height="24" viewBox="0 0 24 24" fill="none" xmlns="http://www.w3.org/2000/svg">
<path d="M13.5789 12.1974C13.1647 12.1974 12.8289 12.5332 12.8289 12.9474C12.8289 13.3616 13.1647 13.6974 13.5789 13.6974V12.1974ZM17.2632 13.6974C17.6774 13.6974 18.0132 13.3616 18.0132 12.9474C18.0132 12.5332 17.6774 12.1974 17.2632 12.1974V13.6974ZM14.6711 14.7895C14.6711 15.2037 15.0068 15.5395 15.4211 15.5395C15.8353 15.5395 16.1711 15.2037 16.1711 14.7895H14.6711ZM16.1711 11.1053C16.1711 10.6911 15.8353 10.3553 15.4211 10.3553C15.0068 10.3553 14.6711 10.6911 14.6711 11.1053H16.1711ZM20.1974 12.9474C20.1974 13.3616 20.5332 13.6974 20.9474 13.6974C21.3616 13.6974 21.6974 13.3616 21.6974 12.9474H20.1974ZM14.1053 20.5395C14.5195 20.5395 14.8553 20.2037 14.8553 19.7895C14.8553 19.3753 14.5195 19.0395 14.1053 19.0395V20.5395ZM20.9274 12.4211L21.6753 12.3642L20.9274 12.4211ZM10.7237 6.10526C10.7237 6.51948 11.0595 6.85526 11.4737 6.85526C11.8879 6.85526 12.2237 6.51948 12.2237 6.10526H10.7237ZM12.2237 4C12.2237 3.58579 11.8879 3.25 11.4737 3.25C11.0595 3.25 10.7237 3.58579 10.7237 4H12.2237ZM22.5303 16.1093C22.8232 15.8164 22.8232 15.3415 22.5303 15.0486C22.2374 14.7557 21.7626 14.7557 21.4697 15.0486L22.5303 16.1093ZM17.7895 19.7895L17.2591 20.3198C17.552 20.6127 18.0269 20.6127 18.3198 20.3198L17.7895 19.7895ZM16.2145 17.1539C15.9216 16.861 15.4468 16.861 15.1539 17.1539C14.861 17.4468 14.861 17.9216 15.1539 18.2145L16.2145 17.1539ZM13.5789 13.6974H17.2632V12.1974H13.5789V13.6974ZM16.1711 14.7895V11.1053H14.6711V14.7895H16.1711ZM8.84211 6.85526H14.1053V5.35526H8.84211V6.85526ZM14.1053 19.0395H8.84211V20.5395H14.1053V19.0395ZM8.84211 19.0395C5.47753 19.0395 2.75 16.3119 2.75 12.9474H1.25C1.25 17.1404 4.6491 20.5395 8.84211 20.5395V19.0395ZM8.84211 5.35526C4.6491 5.35526 1.25 8.75436 1.25 12.9474H2.75C2.75 9.58279 5.47753 6.85526 8.84211 6.85526V5.35526ZM9.14474 12.9474C9.14474 13.6959 8.53797 14.3026 7.78947 14.3026V15.8026C9.36639 15.8026 10.6447 14.5243 10.6447 12.9474H9.14474ZM7.78947 14.3026C7.04098 14.3026 6.43421 13.6959 6.43421 12.9474H4.93421C4.93421 14.5243 6.21256 15.8026 7.78947 15.8026V14.3026ZM6.43421 12.9474C6.43421 12.1989 7.04098 11.5921 7.78947 11.5921V10.0921C6.21256 10.0921 4.93421 11.3705 4.93421 12.9474H6.43421ZM7.78947 11.5921C8.53797 11.5921 9.14474 12.1989 9.14474 12.9474H10.6447C10.6447 11.3705 9.36639 10.0921 7.78947 10.0921V11.5921ZM14.1053 6.85526C17.3118 6.85526 19.9404 9.33309 20.1796 12.4779L21.6753 12.3642C21.377 8.44328 18.1021 5.35526 14.1053 5.35526V6.85526ZM20.1796 12.4779C20.1914 12.6327 20.1974 12.7893 20.1974 12.9474H21.6974C21.6974 12.7513 21.6899 12.5568 21.6753 12.3642L20.1796 12.4779ZM12.2237 6.10526V4H10.7237V6.10526H12.2237ZM21.4697 15.0486L17.2591 19.2591L18.3198 20.3198L22.5303 16.1093L21.4697 15.0486ZM18.3198 19.2591L16.2145 17.1539L15.1539 18.2145L17.2591 20.3198L18.3198 19.2591Z" fill="#DB2D59"/>
</svg>
