<svg width="24" height="24" viewBox="0 0 24 24" fill="none" xmlns="http://www.w3.org/2000/svg">
<path d="M21.5 13.065C21.5 15.7104 17.2467 17.8549 12 17.8549C6.75329 17.8549 2.5 15.7104 2.5 13.065M21.5 13.065C21.5 10.6731 17.6004 8.69064 13.0556 8.33274H10.9444C5.66667 8.33274 2.5 10.7477 2.5 13.065M21.5 13.065V16.2679C21.5 18.6052 17.2467 20.5 12 20.5C6.75329 20.5 2.5 18.6052 2.5 16.2679V13.065M12 7.73209C13.1659 7.73209 14.1111 6.78471 14.1111 5.61605C14.1111 4.44739 13.1659 3.5 12 3.5C10.8341 3.5 9.88889 4.44739 9.88889 5.61605C9.88889 6.78471 10.8341 7.73209 12 7.73209ZM12 7.73209V11.9642M18.3333 12.5648C18.3333 13.7335 15.4978 14.6809 12 14.6809C8.5022 14.6809 5.66667 13.7335 5.66667 12.5648C5.66667 11.3962 8.5022 10.4488 12 10.4488C15.4978 10.4488 18.3333 11.3962 18.3333 12.5648Z" stroke="#A2AAB5" stroke-width="1.5" stroke-linecap="round"/>
</svg>
