<svg width="24" height="24" viewBox="0 0 24 24" fill="none" xmlns="http://www.w3.org/2000/svg">
<path d="M10 9V9.5M10 12V12.5M10 15V15.5M5 6H19C20.1046 6 21 6.89543 21 8V9.44444C21 9.99673 20.5525 10.424 20.0003 10.4291C18.9332 10.4389 17.7273 10.6343 17.7273 12.0089C17.7273 13.3835 18.9333 13.5691 20.0003 13.5738C20.5526 13.5763 21 14.0033 21 14.5556V16C21 17.1046 20.1046 18 19 18H5C3.89543 18 3 17.1046 3 16V14.5556C3 14.0033 3.4474 13.5763 3.99968 13.5738C5.06674 13.5691 6.27273 13.3835 6.27273 12.0089C6.27273 10.6343 5.06677 10.4389 3.99972 10.4291C3.44746 10.424 3 9.99673 3 9.44444V8C3 6.89543 3.89543 6 5 6Z" stroke="#DB2D59" stroke-width="1.5" stroke-linecap="round"/>
</svg>
