<svg width="24" height="24" viewBox="0 0 24 24" fill="none" xmlns="http://www.w3.org/2000/svg">
<path d="M19 6H5C3.89543 6 3 6.89543 3 8V9.44444C3 9.99673 3.44746 10.424 3.99972 10.4291C5.06677 10.4389 6.27273 10.6343 6.27273 12.0089C6.27273 13.3835 5.06674 13.5691 3.99968 13.5738C3.4474 13.5763 3 14.0033 3 14.5556V16C3 17.1046 3.89543 18 5 18H19C20.1046 18 21 17.1046 21 16V14.5556C21 14.0033 20.5526 13.5763 20.0003 13.5738C18.9333 13.5691 17.7273 13.3835 17.7273 12.0089C17.7273 10.6343 18.9332 10.4389 20.0003 10.4291C20.5525 10.424 21 9.99673 21 9.44444V8C21 6.89543 20.1046 6 19 6Z" stroke="#E3E3E5" stroke-width="1.5"/>
<path d="M10 9L10 9.5" stroke="#E3E3E5" stroke-width="1.5" stroke-linecap="round"/>
<path d="M10 12L10 12.5" stroke="#E3E3E5" stroke-width="1.5" stroke-linecap="round"/>
<path d="M10 15L10 15.5" stroke="#E3E3E5" stroke-width="1.5" stroke-linecap="round"/>
</svg>
