<svg width="24" height="24" viewBox="0 0 24 24" fill="none" xmlns="http://www.w3.org/2000/svg">
<path d="M21 12.0001C21 16.9706 16.9706 21.0001 12 21.0001M21 12.0001C21 7.0295 16.9706 3.00006 12 3.00006M21 12.0001H18M12 21.0001C7.02944 21.0001 3 16.9706 3 12.0001M12 21.0001L12 19.5001M3 12.0001C3 7.0295 7.02944 3.00006 12 3.00006M3 12.0001H6M12 3.00006L12 4.50007M4.20575 7.5001L5.50479 8.2501M18.4952 15.75L19.7942 16.5M4.20578 16.5001L5.50482 15.7501M18.4952 8.25001L19.7942 7.50001M7.5 4.20583L9 6.80391M15 17.1962L16.5 19.7943M7.49996 19.7943L8.99996 17.1962M15 6.80391L16.5 4.20583M10.5 10.5L12 12M12 12L13.5 13.5M12 12L10.5 13.5M12 12L13.5 10.5M17.5 12C17.5 15.0376 15.0376 17.5 12 17.5C8.96242 17.5 6.49998 15.0376 6.49998 12C6.49998 8.96246 8.96242 6.50002 12 6.50002C15.0376 6.50002 17.5 8.96246 17.5 12Z" stroke="#A2AAB5" stroke-width="1.5" stroke-linecap="round" stroke-linejoin="round"/>
</svg>
