<svg width="24" height="24" viewBox="0 0 24 24" fill="none" xmlns="http://www.w3.org/2000/svg">
<path d="M21 12C21 16.9706 16.9706 21 12 21M21 12C21 7.02944 16.9706 3 12 3M21 12H18M12 21C7.02944 21 3 16.9706 3 12M12 21L12 19.5M3 12C3 7.02944 7.02944 3 12 3M3 12H6M12 3L12 4.50001M4.20575 7.50003L5.50479 8.25003M18.4952 15.75L19.7942 16.5M4.20578 16.5L5.50482 15.75M18.4952 8.24995L19.7942 7.49995M7.5 4.20577L9 6.80385M15 17.1962L16.5 19.7942M7.49996 19.7942L8.99996 17.1962M15 6.80385L16.5 4.20577M10.5 10.5L12 12M12 12L13.5 13.5M12 12L10.5 13.5M12 12L13.5 10.5M17.5 12C17.5 15.0375 15.0376 17.5 12 17.5C8.96242 17.5 6.49998 15.0375 6.49998 12C6.49998 8.9624 8.96242 6.49996 12 6.49996C15.0376 6.49996 17.5 8.9624 17.5 12Z" stroke="#DB2D59" stroke-width="1.5" stroke-linecap="round" stroke-linejoin="round"/>
</svg>
