<svg width="24" height="24" viewBox="0 0 24 24" fill="none" xmlns="http://www.w3.org/2000/svg">
<path d="M8 11.9999C8 14.209 9.79086 15.9999 12 15.9999C14.2091 15.9999 16 14.209 16 11.9999C16 9.79077 14.2091 7.99991 12 7.99991C9.79086 7.99991 8 9.79077 8 11.9999Z" stroke="white" stroke-width="1.5" stroke-linecap="round" stroke-linejoin="round"/>
<path d="M20.3502 8.923L19.984 8.71927C19.9271 8.68763 19.8987 8.67176 19.8712 8.65531C19.5981 8.49172 19.3681 8.26529 19.2002 7.99489C19.1833 7.96768 19.1667 7.93956 19.1341 7.88317C19.1016 7.82684 19.0851 7.7983 19.0699 7.77005C18.9193 7.48873 18.8382 7.17547 18.8333 6.85638C18.8329 6.82759 18.8334 6.79813 18.8343 6.74528L18.8416 6.30924C18.8531 5.6232 18.8588 5.28024 18.7628 4.97269C18.6779 4.7006 18.5359 4.44977 18.3461 4.23709C18.132 3.99711 17.8351 3.82601 17.2426 3.48461L16.7457 3.19827C16.1529 2.85664 15.8564 2.6859 15.5416 2.62076C15.2632 2.56313 14.9756 2.56543 14.6982 2.62772C14.3854 2.69794 14.0929 2.8731 13.5088 3.22282L13.1505 3.43736C13.0946 3.47086 13.0662 3.48757 13.0382 3.50316C12.7599 3.65788 12.4488 3.74397 12.1305 3.75418C12.0985 3.75521 12.0658 3.75521 12.0006 3.75521C11.9358 3.75521 11.9027 3.75521 11.8707 3.75418C11.5518 3.74392 11.2396 3.65745 10.9609 3.50209C10.9339 3.487 10.907 3.47085 10.8549 3.43958L10.4901 3.22059C9.90254 2.86784 9.60848 2.6913 9.29406 2.62076C9.01549 2.55826 8.72654 2.55616 8.44707 2.61453C8.13117 2.68052 7.83377 2.85309 7.23924 3.19815L6.75158 3.48119C6.16014 3.82445 5.86485 3.99601 5.65148 4.23616C5.46272 4.44862 5.32134 4.69888 5.23689 4.97025C5.14143 5.27698 5.14681 5.61891 5.15832 6.30264L5.16546 6.7273C5.16655 6.79161 5.16727 6.82379 5.1668 6.85542C5.16206 7.17516 5.08064 7.48909 4.92953 7.77091C4.91459 7.79878 4.89848 7.82665 4.86633 7.88232C4.83414 7.93803 4.81807 7.96582 4.80139 7.99271C4.63266 8.26456 4.40119 8.49205 4.12638 8.65592C4.0992 8.67212 4.07129 8.68771 4.015 8.7189L3.65344 8.91927C3.05195 9.25259 2.75114 9.41929 2.53234 9.65669C2.33877 9.86672 2.1922 10.1158 2.10293 10.3871C2.00217 10.6934 2.00295 11.0368 2.0045 11.7228L2.0058 12.2937C2.00734 12.9728 2.00812 13.3133 2.10894 13.617C2.19841 13.8865 2.34425 14.1338 2.53674 14.3426C2.75408 14.5783 3.05236 14.7442 3.64807 15.0756L4.01333 15.2788C4.07103 15.3109 4.10078 15.3275 4.12938 15.3447C4.4017 15.5087 4.63068 15.7352 4.79797 16.0055C4.81604 16.0347 4.83341 16.0651 4.86808 16.1256C4.90235 16.1855 4.91968 16.2154 4.93553 16.2454C5.0822 16.5231 5.16146 16.8314 5.16681 17.1454C5.16739 17.1793 5.16685 17.2139 5.16569 17.2829L5.15878 17.6919C5.14722 18.377 5.14143 18.7197 5.23738 19.027C5.32232 19.2991 5.46463 19.5499 5.65441 19.7626C5.86894 20.003 6.16585 20.1744 6.76037 20.517L7.25408 20.8015C7.84693 21.1431 8.14379 21.3139 8.45853 21.379C8.73697 21.4366 9.02443 21.4343 9.30187 21.372C9.61481 21.3017 9.90743 21.1265 10.492 20.7765L10.8495 20.5624C10.9055 20.5289 10.9337 20.5122 10.9617 20.4966C11.24 20.3419 11.551 20.2558 11.8693 20.2456C11.9013 20.2445 11.9339 20.2445 11.9992 20.2445C12.0646 20.2445 12.0977 20.2445 12.1298 20.2456C12.4488 20.2558 12.7605 20.3422 13.0392 20.4976C13.0673 20.5132 13.0954 20.5301 13.1515 20.5638L13.5076 20.7775C14.0965 21.1311 14.3916 21.3083 14.7064 21.3789C14.9849 21.4414 15.2734 21.4436 15.5528 21.3852C15.8688 21.3193 16.1663 21.1467 16.7609 20.8016L17.2485 20.5186C17.84 20.1753 18.1353 20.0037 18.3487 19.7636C18.5374 19.5511 18.6789 19.3009 18.7633 19.0295C18.8588 18.7228 18.8532 18.3809 18.8417 17.6972L18.8342 17.251C18.8334 17.2006 18.8329 17.1723 18.8333 17.1444C18.838 16.8247 18.9193 16.5107 19.0704 16.2289C19.0854 16.2011 19.1016 16.173 19.1336 16.1175C19.1658 16.0618 19.1822 16.0339 19.1989 16.007C19.3676 15.7351 19.5988 15.5078 19.8737 15.3439C19.8999 15.3282 19.9273 15.3131 19.9799 15.2839L20.347 15.0805C20.9486 14.7471 21.2492 14.5805 21.468 14.3431C21.6615 14.133 21.8078 13.884 21.8971 13.6127C21.998 13.306 21.9976 12.9621 21.996 12.2743L21.9947 11.7122C21.9932 11.029 21.9924 10.6873 21.8912 10.3827C21.8018 10.1132 21.6558 9.86592 21.4633 9.65716C21.2457 9.42119 20.9472 9.25512 20.3502 8.923Z" stroke="white" stroke-width="1.5" stroke-linecap="round" stroke-linejoin="round"/>
</svg>
