<svg width="24" height="24" viewBox="0 0 24 24" fill="none" xmlns="http://www.w3.org/2000/svg">
<path d="M8 12C8 14.2092 9.79086 16 12 16C14.2091 16 16 14.2092 16 12C16 9.79089 14.2091 8.00003 12 8.00003C9.79086 8.00003 8 9.79089 8 12Z" stroke="#E3E3E5" stroke-width="1.5" stroke-linecap="round" stroke-linejoin="round"/>
<path d="M20.3502 8.92312L19.984 8.71939C19.9271 8.68776 19.8987 8.67188 19.8712 8.65543C19.5981 8.49184 19.3681 8.26542 19.2002 7.99501C19.1833 7.9678 19.1667 7.93968 19.1341 7.88329C19.1016 7.82697 19.0851 7.79843 19.0699 7.77017C18.9193 7.48885 18.8382 7.1756 18.8333 6.8565C18.8329 6.82771 18.8334 6.79826 18.8343 6.74541L18.8416 6.30936C18.8531 5.62333 18.8588 5.28036 18.7628 4.97281C18.6779 4.70073 18.5359 4.44989 18.3461 4.23721C18.132 3.99723 17.8351 3.82613 17.2426 3.48473L16.7457 3.1984C16.1529 2.85677 15.8564 2.68602 15.5416 2.62088C15.2632 2.56325 14.9756 2.56556 14.6982 2.62784C14.3854 2.69806 14.0929 2.87322 13.5088 3.22294L13.1505 3.43748C13.0946 3.47098 13.0662 3.48769 13.0382 3.50328C12.7599 3.658 12.4488 3.74409 12.1305 3.7543C12.0985 3.75533 12.0658 3.75533 12.0006 3.75533C11.9358 3.75533 11.9027 3.75533 11.8707 3.7543C11.5518 3.74405 11.2396 3.65757 10.9609 3.50221C10.9339 3.48712 10.907 3.47097 10.8549 3.4397L10.4901 3.22071C9.90254 2.86797 9.60848 2.69143 9.29406 2.62088C9.01549 2.55838 8.72654 2.55628 8.44707 2.61466C8.13117 2.68064 7.83377 2.85322 7.23924 3.19827L6.75158 3.48131C6.16014 3.82457 5.86485 3.99613 5.65148 4.23628C5.46272 4.44874 5.32134 4.699 5.23689 4.97037C5.14143 5.2771 5.14681 5.61903 5.15832 6.30277L5.16546 6.72743C5.16655 6.79173 5.16727 6.82391 5.1668 6.85554C5.16206 7.17528 5.08064 7.48921 4.92953 7.77103C4.91459 7.7989 4.89848 7.82677 4.86633 7.88244C4.83414 7.93816 4.81807 7.96595 4.80139 7.99283C4.63266 8.26468 4.40119 8.49218 4.12638 8.65604C4.0992 8.67225 4.07129 8.68783 4.015 8.71903L3.65344 8.91939C3.05195 9.25272 2.75114 9.41942 2.53234 9.65681C2.33877 9.86684 2.1922 10.1159 2.10293 10.3872C2.00217 10.6935 2.00295 11.037 2.0045 11.7229L2.0058 12.2938C2.00734 12.9729 2.00812 13.3134 2.10894 13.6171C2.19841 13.8866 2.34425 14.1339 2.53674 14.3427C2.75408 14.5784 3.05236 14.7443 3.64807 15.0757L4.01333 15.2789C4.07103 15.311 4.10078 15.3276 4.12938 15.3448C4.4017 15.5088 4.63068 15.7354 4.79797 16.0056C4.81604 16.0348 4.83341 16.0652 4.86808 16.1258C4.90235 16.1856 4.91968 16.2156 4.93553 16.2456C5.0822 16.5232 5.16146 16.8315 5.16681 17.1455C5.16739 17.1795 5.16685 17.214 5.16569 17.283L5.15878 17.692C5.14722 18.3771 5.14143 18.7198 5.23738 19.0272C5.32232 19.2993 5.46463 19.55 5.65441 19.7627C5.86894 20.0031 6.16585 20.1745 6.76037 20.5171L7.25408 20.8016C7.84693 21.1433 8.14379 21.314 8.45853 21.3791C8.73697 21.4368 9.02443 21.4344 9.30187 21.3721C9.61481 21.3019 9.90743 21.1266 10.492 20.7766L10.8495 20.5625C10.9055 20.529 10.9337 20.5123 10.9617 20.4967C11.24 20.342 11.551 20.2559 11.8693 20.2457C11.9013 20.2447 11.9339 20.2447 11.9992 20.2447C12.0646 20.2447 12.0977 20.2447 12.1298 20.2457C12.4488 20.256 12.7605 20.3424 13.0392 20.4977C13.0673 20.5134 13.0954 20.5302 13.1515 20.5639L13.5076 20.7776C14.0965 21.1312 14.3916 21.3084 14.7064 21.379C14.9849 21.4415 15.2734 21.4437 15.5528 21.3854C15.8688 21.3194 16.1663 21.1468 16.7609 20.8017L17.2485 20.5187C17.84 20.1754 18.1353 20.0039 18.3487 19.7637C18.5374 19.5512 18.6789 19.301 18.7633 19.0296C18.8588 18.7229 18.8532 18.381 18.8417 17.6973L18.8342 17.2511C18.8334 17.2007 18.8329 17.1724 18.8333 17.1446C18.838 16.8248 18.9193 16.5108 19.0704 16.229C19.0854 16.2012 19.1016 16.1731 19.1336 16.1176C19.1658 16.0619 19.1822 16.034 19.1989 16.0071C19.3676 15.7353 19.5988 15.5079 19.8737 15.344C19.8999 15.3284 19.9273 15.3132 19.9799 15.284L20.347 15.0806C20.9486 14.7472 21.2492 14.5806 21.468 14.3432C21.6615 14.1331 21.8078 13.8841 21.8971 13.6128C21.998 13.3061 21.9976 12.9622 21.996 12.2744L21.9947 11.7123C21.9932 11.0291 21.9924 10.6875 21.8912 10.3828C21.8018 10.1133 21.6558 9.86604 21.4633 9.65728C21.2457 9.42131 20.9472 9.25524 20.3502 8.92312Z" stroke="#E3E3E5" stroke-width="1.5" stroke-linecap="round" stroke-linejoin="round"/>
</svg>
