<svg width="24" height="24" viewBox="0 0 24 24" fill="none" xmlns="http://www.w3.org/2000/svg">
<path d="M17 14.9998C17.7956 14.9998 18.5587 15.3158 19.1213 15.8784C19.6839 16.441 20 17.2041 20 17.9998C20 18.7954 19.6839 19.5585 19.1213 20.1211C18.5587 20.6837 17.7956 20.9998 17 20.9998C16.2044 20.9998 15.4413 20.6837 14.8787 20.1211C14.3161 19.5585 14 18.7954 14 17.9998C14 17.2041 14.3161 16.441 14.8787 15.8784C15.4413 15.3158 16.2044 14.9998 17 14.9998ZM17 14.9998C15.667 12.6668 14.667 9.66676 16 5.99976M9 12.9998C9.366 10.9998 10.866 9.12676 13.5 7.39976M16 5.99976C12.333 3.33276 8.667 3.33276 5 5.99976C8.667 8.66676 12.333 8.66676 16 5.99976ZM4 16.4998C4 17.428 4.36875 18.3183 5.02513 18.9746C5.6815 19.631 6.57174 19.9998 7.5 19.9998C8.42826 19.9998 9.3185 19.631 9.97487 18.9746C10.6313 18.3183 11 17.428 11 16.4998C11 15.5715 10.6313 14.6813 9.97487 14.0249C9.3185 13.3685 8.42826 12.9998 7.5 12.9998C6.57174 12.9998 5.6815 13.3685 5.02513 14.0249C4.36875 14.6813 4 15.5715 4 16.4998Z" stroke="#DB2D59" stroke-width="1.5" stroke-linecap="round" stroke-linejoin="round"/>
</svg>
