<svg width="24" height="24" viewBox="0 0 24 24" fill="none" xmlns="http://www.w3.org/2000/svg">
<path d="M11.8842 9.19544V5.46254M11.8842 5.46254L14.209 3.3127M11.8842 5.46254L9.55949 3.3127M14.7588 11.1792L18.2219 9.91857M18.2219 9.91857L21 11.4137M18.2219 9.91857L19.4373 6.9772M13.3215 14.5114L15.5016 17.5212M15.5016 17.5212L14.8939 20.6482M15.5016 17.5212L18.6367 17.8534M10.4855 14.5114L8.30547 17.5212M8.30547 17.5212L8.91318 20.6482M8.30547 17.5212L5.17042 17.8534M9.2508 11.1792L5.77814 9.91857M5.77814 9.91857L3 11.4137M5.77814 9.91857L4.5627 6.9772M20.7685 12C20.7685 16.9706 16.7909 21 11.8842 21C6.97761 21 3 16.9706 3 12C3 7.02944 6.97761 3 11.8842 3C16.7909 3 20.7685 7.02944 20.7685 12ZM11.8939 8.97068L8.61415 11.0814L9.9164 15.1564H13.8617L15.0868 11.0033L11.8939 8.97068Z" stroke="white" stroke-width="1.5" stroke-miterlimit="10"/>
</svg>
