<svg width="24" height="24" viewBox="0 0 24 24" fill="none" xmlns="http://www.w3.org/2000/svg">
<path d="M11.9951 5V8.69" stroke="#DB2D59" stroke-width="1.5" stroke-miterlimit="10"/>
<path d="M11.9951 14.3101V18.0001" stroke="#DB2D59" stroke-width="1.5" stroke-miterlimit="10"/>
<path d="M3.83046 5H20.1695C20.6298 5 21 5.38 21 5.85V17.14C21 17.61 20.6298 17.99 20.1695 17.99H3.83046C3.37021 17.99 3 17.61 3 17.14V5.85C3 5.38 3.37021 5 3.83046 5Z" stroke="#DB2D59" stroke-width="1.5" stroke-miterlimit="10"/>
<path d="M3.28016 8H5.36131C5.5114 8 5.64147 8.13 5.64147 8.28V14.71C5.64147 14.87 5.5214 14.99 5.36131 14.99H3.28016C3.13007 14.99 3 14.86 3 14.71V8.28C3 8.12 3.12007 8 3.28016 8Z" stroke="#DB2D59" stroke-width="1.5" stroke-miterlimit="10"/>
<path d="M18.6285 8H20.7097C20.8598 8 20.9899 8.13 20.9899 8.28V14.71C20.9899 14.87 20.8698 14.99 20.7097 14.99H18.6285C18.4785 14.99 18.3484 14.86 18.3484 14.71V8.28C18.3484 8.12 18.4685 8 18.6285 8Z" stroke="#DB2D59" stroke-width="1.5" stroke-miterlimit="10"/>
<path d="M12.005 14.3099C13.5191 14.3099 14.7465 13.0519 14.7465 11.4999C14.7465 9.94802 13.5191 8.68994 12.005 8.68994C10.4908 8.68994 9.26343 9.94802 9.26343 11.4999C9.26343 13.0519 10.4908 14.3099 12.005 14.3099Z" stroke="#DB2D59" stroke-width="1.5" stroke-miterlimit="10"/>
</svg>
