<?xml version="1.0" encoding="UTF-8"?>
<svg id="Layer_1" xmlns="http://www.w3.org/2000/svg" version="1.1" viewBox="0 0 25 24">
  <!-- Generator: Adobe Illustrator 29.1.0, SVG Export Plug-In . SVG Version: 2.1.0 Build 142)  -->
  <defs>
    <style>
      .st0 {
        stroke: #db2d59;
      }

      .st0, .st1 {
        fill: none;
        stroke-miterlimit: 10;
        stroke-width: 1.5px;
      }

      .st1 {
        stroke: #fff;
      }
    </style>
  </defs>
  <line class="st1" x1="12.6" y1="5.4" x2="12.6" y2="9.1"/>
  <line class="st1" x1="12.6" y1="14.8" x2="12.6" y2="18.4"/>
  <path class="st1" d="M4.4,5.4h16.3c.5,0,.8.4.8.9v11.3c0,.5-.4.9-.8.9H4.4c-.5,0-.8-.4-.8-.9V6.3c0-.5.4-.9.8-.9Z"/>
  <path class="st1" d="M3.9,8.4h2.1c.2,0,.3.1.3.3v6.4c0,.2,0,.3-.3.3h-2.1c-.2,0-.3-.1-.3-.3v-6.4c0-.2,0-.3.3-.3Z"/>
  <path class="st1" d="M19,8.4h2.1c.2,0,.3.1.3.3v6.4c0,.2,0,.3-.3.3h-2.1c-.2,0-.3-.1-.3-.3v-6.4c0-.2,0-.3.3-.3Z"/>
  <ellipse class="st0" cx="12.6" cy="11.9" rx="2.7" ry="2.8"/>
</svg>