<svg width="24" height="24" viewBox="0 0 24 24" fill="none" xmlns="http://www.w3.org/2000/svg">
<path d="M11.9851 5.5V18.5M3.83306 5.5H20.1669C20.627 5.5 21 5.88255 21 6.35446V17.6455C21 18.1174 20.627 18.5 20.1669 18.5H3.83306C3.37297 18.5 3 18.1174 3 17.6455V6.35446C3 5.88255 3.37297 5.5 3.83306 5.5ZM3.27769 8.50078H5.36033C5.51369 8.50078 5.63802 8.6283 5.63802 8.7856V15.2144C5.63802 15.3717 5.51369 15.4992 5.36033 15.4992H3.27769C3.12432 15.4992 3 15.3717 3 15.2144V8.7856C3 8.6283 3.12432 8.50078 3.27769 8.50078ZM18.6198 8.50078H20.7025C20.8558 8.50078 20.9802 8.6283 20.9802 8.7856V15.2144C20.9802 15.3717 20.8558 15.4992 20.7025 15.4992H18.6198C18.4665 15.4992 18.3421 15.3717 18.3421 15.2144V8.7856C18.3421 8.6283 18.4665 8.50078 18.6198 8.50078ZM14.7421 12C14.7421 13.5505 13.5167 14.8075 12.005 14.8075C10.4933 14.8075 9.26777 13.5505 9.26777 12C9.26777 10.4495 10.4933 9.19249 12.005 9.19249C13.5167 9.19249 14.7421 10.4495 14.7421 12Z" stroke="white" stroke-width="1.5" stroke-miterlimit="10"/>
</svg>
