<svg width="24" height="24" viewBox="0 0 24 24" fill="none" xmlns="http://www.w3.org/2000/svg">
<path d="M9.12851 9.26899L17.1929 16.4186M7.64296 5.47886C7.64296 6.70982 6.65957 7.70771 5.44648 7.70771C4.2334 7.70771 3.25 6.70982 3.25 5.47886C3.25 4.24789 4.2334 3.25 5.44648 3.25C6.65957 3.25 7.64296 4.24789 7.64296 5.47886ZM19.6759 14.6527C21.9466 12.0147 21.7344 8.06304 19.209 5.82342C16.6836 3.58379 12.7893 3.89605 10.5186 6.53407C8.89507 8.41836 8.5449 10.9918 9.40439 13.113C9.55295 13.4898 9.45745 13.9313 9.19217 14.2328L6.70919 17.1184C6.33781 17.5599 6.38025 18.2167 6.80469 18.6044L8.37513 19.9933C8.81018 20.3702 9.45745 20.3271 9.83945 19.8964L12.3224 17.0108C12.5877 16.6985 13.0015 16.5478 13.3941 16.6447C15.5906 17.2261 18.0418 16.537 19.6759 14.6527Z" stroke="white" stroke-width="1.5" stroke-miterlimit="10"/>
</svg>
