<svg width="24" height="24" viewBox="0 0 24 24" fill="none" xmlns="http://www.w3.org/2000/svg">
<path d="M17.8896 5.3449C18.1431 5.01727 18.0829 4.54622 17.7553 4.29278C17.4277 4.03933 16.9566 4.09946 16.7032 4.42709L17.8896 5.3449ZM16.4951 5.92182L17.0876 6.38173L17.0883 6.38073L16.4951 5.92182ZM16.4951 18.0977L17.0883 17.6388L17.0876 17.6378L16.4951 18.0977ZM16.7032 19.5925C16.9566 19.9201 17.4277 19.9802 17.7553 19.7268C18.0829 19.4733 18.1431 19.0023 17.8896 18.6746L16.7032 19.5925ZM7.2968 4.42709C7.04335 4.09946 6.5723 4.03933 6.24468 4.29278C5.91705 4.54622 5.85692 5.01727 6.11037 5.3449L7.2968 4.42709ZM7.50489 5.92182L6.91167 6.38073L6.91244 6.38173L7.50489 5.92182ZM7.50489 18.0977L6.91244 17.6378L6.91167 17.6388L7.50489 18.0977ZM6.11037 18.6746C5.85692 19.0023 5.91705 19.4733 6.24468 19.7268C6.5723 19.9802 7.04335 19.9201 7.2968 19.5925L6.11037 18.6746ZM20.25 12C20.25 16.5564 16.5564 20.25 12 20.25V21.75C17.3848 21.75 21.75 17.3848 21.75 12H20.25ZM12 20.25C7.44365 20.25 3.75 16.5564 3.75 12H2.25C2.25 17.3848 6.61522 21.75 12 21.75V20.25ZM3.75 12C3.75 7.44365 7.44365 3.75 12 3.75V2.25C6.61522 2.25 2.25 6.61522 2.25 12H3.75ZM12 3.75C16.5564 3.75 20.25 7.44365 20.25 12H21.75C21.75 6.61522 17.3848 2.25 12 2.25V3.75ZM16.7032 4.42709L15.9019 5.46292L17.0883 6.38073L17.8896 5.3449L16.7032 4.42709ZM15.9027 5.46192C12.8783 9.35795 12.8783 14.6616 15.9027 18.5576L17.0876 17.6378C14.4833 14.283 14.4833 9.73652 17.0876 6.38173L15.9027 5.46192ZM15.9019 18.5566L16.7032 19.5925L17.8896 18.6746L17.0883 17.6388L15.9019 18.5566ZM6.11037 5.3449L6.91167 6.38073L8.0981 5.46292L7.2968 4.42709L6.11037 5.3449ZM6.91244 6.38173C9.5167 9.73652 9.5167 14.283 6.91244 17.6378L8.09733 18.5576C11.1217 14.6616 11.1217 9.35795 8.09733 5.46192L6.91244 6.38173ZM6.91167 17.6388L6.11037 18.6746L7.2968 19.5925L8.0981 18.5566L6.91167 17.6388Z" fill="#DB2D59"/>
</svg>
