<svg width="24" height="24" viewBox="0 0 24 24" fill="none" xmlns="http://www.w3.org/2000/svg">
<path d="M11.6031 4.2268L11.9752 4.87798V4.87798L11.6031 4.2268ZM5 7.99999L4.6279 7.34881C4.39421 7.48234 4.25 7.73085 4.25 7.99999H5ZM19 7.99999H19.75C19.75 7.73085 19.6058 7.48234 19.3721 7.34881L19 7.99999ZM12.3969 4.2268L12.0248 4.87798V4.87798L12.3969 4.2268ZM12 20L11.6279 20.6512C11.8585 20.7829 12.1415 20.7829 12.3721 20.6512L12 20ZM4.25 10.4C4.25 10.8142 4.58579 11.15 5 11.15C5.41421 11.15 5.75 10.8142 5.75 10.4H4.25ZM18.25 10.4C18.25 10.8142 18.5858 11.15 19 11.15C19.4142 11.15 19.75 10.8142 19.75 10.4H18.25ZM6.3721 15.9202C6.01247 15.7147 5.55433 15.8397 5.34882 16.1993C5.14331 16.559 5.26826 17.0171 5.6279 17.2226L6.3721 15.9202ZM18.3721 17.2226C18.7317 17.0171 18.8567 16.559 18.6512 16.1993C18.4457 15.8397 17.9875 15.7147 17.6279 15.9202L18.3721 17.2226ZM11.8969 4.08661L11.7423 3.35272L11.8969 4.08661ZM12.1031 4.08661L11.9485 4.8205V4.8205L12.1031 4.08661ZM2 13.5L1.46967 12.9697C1.17678 13.2626 1.17678 13.7374 1.46967 14.0303L2 13.5ZM7 14.25C7.41421 14.25 7.75 13.9142 7.75 13.5C7.75 13.0858 7.41421 12.75 7 12.75V14.25ZM22 13.5L22.5303 14.0303C22.8232 13.7374 22.8232 13.2626 22.5303 12.9697L22 13.5ZM17 12.75C16.5858 12.75 16.25 13.0858 16.25 13.5C16.25 13.9142 16.5858 14.25 17 14.25V12.75ZM2.96967 15.5303C3.26256 15.8232 3.73744 15.8232 4.03033 15.5303C4.32322 15.2374 4.32322 14.7626 4.03033 14.4697L2.96967 15.5303ZM4.03033 12.5303C4.32322 12.2374 4.32322 11.7626 4.03033 11.4697C3.73744 11.1768 3.26256 11.1768 2.96967 11.4697L4.03033 12.5303ZM19.9697 14.4697C19.6768 14.7626 19.6768 15.2374 19.9697 15.5303C20.2626 15.8232 20.7374 15.8232 21.0303 15.5303L19.9697 14.4697ZM21.0303 11.4697C20.7374 11.1768 20.2626 11.1768 19.9697 11.4697C19.6768 11.7626 19.6768 12.2374 19.9697 12.5303L21.0303 11.4697ZM11.231 3.57562L4.6279 7.34881L5.3721 8.65117L11.9752 4.87798L11.231 3.57562ZM19.3721 7.34881L12.769 3.57561L12.0248 4.87798L18.6279 8.65117L19.3721 7.34881ZM18.6604 7.33131L11.6604 10.8869L12.3396 12.2242L19.3396 8.66868L18.6604 7.33131ZM12.3396 10.8869L5.33965 7.33131L4.66035 8.66868L11.6604 12.2242L12.3396 10.8869ZM11.25 11.5555V20H12.75V11.5555H11.25ZM4.25 7.99999V10.4H5.75V7.99999H4.25ZM19.75 10.4V7.99999H18.25V10.4H19.75ZM5.6279 17.2226L11.6279 20.6512L12.3721 19.3488L6.3721 15.9202L5.6279 17.2226ZM12.3721 20.6512L18.3721 17.2226L17.6279 15.9202L11.6279 19.3488L12.3721 20.6512ZM11.9752 4.87798C12.0124 4.85669 12.04 4.84096 12.0638 4.82775C12.0874 4.81461 12.1008 4.80758 12.1086 4.80373C12.1223 4.7969 12.0971 4.81089 12.0515 4.8205L11.7423 3.35272C11.5229 3.39895 11.3322 3.51778 11.231 3.57562L11.9752 4.87798ZM12.769 3.57562C12.6678 3.51778 12.4771 3.39895 12.2577 3.35272L11.9485 4.8205C11.9029 4.81089 11.8777 4.7969 11.8914 4.80373C11.8992 4.80758 11.9126 4.81461 11.9362 4.82775C11.96 4.84096 11.9876 4.85669 12.0248 4.87798L12.769 3.57562ZM12.0515 4.8205C12.0176 4.82766 11.9824 4.82766 11.9485 4.8205L12.2577 3.35272C12.0878 3.31692 11.9122 3.31692 11.7423 3.35272L12.0515 4.8205ZM2 14.25H7V12.75H2V14.25ZM22 12.75H17V14.25H22V12.75ZM4.03033 14.4697L2.53033 12.9697L1.46967 14.0303L2.96967 15.5303L4.03033 14.4697ZM2.53033 14.0303L4.03033 12.5303L2.96967 11.4697L1.46967 12.9697L2.53033 14.0303ZM21.0303 15.5303L22.5303 14.0303L21.4697 12.9697L19.9697 14.4697L21.0303 15.5303ZM22.5303 12.9697L21.0303 11.4697L19.9697 12.5303L21.4697 14.0303L22.5303 12.9697Z" fill="#E3E3E5"/>
</svg>
