<svg width="24" height="24" viewBox="0 0 24 24" fill="none" xmlns="http://www.w3.org/2000/svg">
<path d="M11.6031 4.22661L11.9752 4.8778V4.8778L11.6031 4.22661ZM5 7.99981L4.6279 7.34863C4.39421 7.48216 4.25 7.73067 4.25 7.99981H5ZM19 7.99981H19.75C19.75 7.73067 19.6058 7.48216 19.3721 7.34863L19 7.99981ZM12.3969 4.22661L12.0248 4.8778V4.8778L12.3969 4.22661ZM12 19.9998L11.6279 20.651C11.8585 20.7827 12.1415 20.7827 12.3721 20.651L12 19.9998ZM4.25 10.3998C4.25 10.814 4.58579 11.1498 5 11.1498C5.41421 11.1498 5.75 10.814 5.75 10.3998H4.25ZM18.25 10.3998C18.25 10.814 18.5858 11.1498 19 11.1498C19.4142 11.1498 19.75 10.814 19.75 10.3998H18.25ZM6.3721 15.9201C6.01247 15.7145 5.55433 15.8395 5.34882 16.1991C5.14331 16.5588 5.26826 17.0169 5.6279 17.2224L6.3721 15.9201ZM18.3721 17.2224C18.7317 17.0169 18.8567 16.5588 18.6512 16.1991C18.4457 15.8395 17.9875 15.7145 17.6279 15.9201L18.3721 17.2224ZM11.8969 4.08643L11.7423 3.35254L11.8969 4.08643ZM12.1031 4.08643L11.9485 4.82031V4.82031L12.1031 4.08643ZM2 13.4998L1.46967 12.9695C1.17678 13.2624 1.17678 13.7372 1.46967 14.0301L2 13.4998ZM7 14.2498C7.41421 14.2498 7.75 13.914 7.75 13.4998C7.75 13.0856 7.41421 12.7498 7 12.7498V14.2498ZM22 13.4998L22.5303 14.0301C22.8232 13.7372 22.8232 13.2624 22.5303 12.9695L22 13.4998ZM17 12.7498C16.5858 12.7498 16.25 13.0856 16.25 13.4998C16.25 13.914 16.5858 14.2498 17 14.2498V12.7498ZM2.96967 15.5301C3.26256 15.823 3.73744 15.823 4.03033 15.5301C4.32322 15.2372 4.32322 14.7624 4.03033 14.4695L2.96967 15.5301ZM4.03033 12.5301C4.32322 12.2372 4.32322 11.7624 4.03033 11.4695C3.73744 11.1766 3.26256 11.1766 2.96967 11.4695L4.03033 12.5301ZM19.9697 14.4695C19.6768 14.7624 19.6768 15.2372 19.9697 15.5301C20.2626 15.823 20.7374 15.823 21.0303 15.5301L19.9697 14.4695ZM21.0303 11.4695C20.7374 11.1766 20.2626 11.1766 19.9697 11.4695C19.6768 11.7624 19.6768 12.2372 19.9697 12.5301L21.0303 11.4695ZM11.231 3.57543L4.6279 7.34863L5.3721 8.65099L11.9752 4.8778L11.231 3.57543ZM19.3721 7.34863L12.769 3.57543L12.0248 4.8778L18.6279 8.65099L19.3721 7.34863ZM18.6604 7.33112L11.6604 10.8867L12.3396 12.224L19.3396 8.66849L18.6604 7.33112ZM12.3396 10.8867L5.33965 7.33112L4.66035 8.66849L11.6604 12.224L12.3396 10.8867ZM11.25 11.5554V19.9998H12.75V11.5554H11.25ZM4.25 7.99981V10.3998H5.75V7.99981H4.25ZM19.75 10.3998V7.99981H18.25V10.3998H19.75ZM5.6279 17.2224L11.6279 20.651L12.3721 19.3486L6.3721 15.9201L5.6279 17.2224ZM12.3721 20.651L18.3721 17.2224L17.6279 15.9201L11.6279 19.3486L12.3721 20.651ZM11.9752 4.8778C12.0124 4.85651 12.04 4.84077 12.0638 4.82757C12.0874 4.81443 12.1008 4.8074 12.1086 4.80355C12.1223 4.79672 12.0971 4.81071 12.0515 4.82031L11.7423 3.35254C11.5229 3.39876 11.3322 3.51759 11.231 3.57543L11.9752 4.8778ZM12.769 3.57543C12.6678 3.51759 12.4771 3.39876 12.2577 3.35254L11.9485 4.82031C11.9029 4.81071 11.8777 4.79672 11.8914 4.80355C11.8992 4.8074 11.9126 4.81442 11.9362 4.82756C11.96 4.84077 11.9876 4.85651 12.0248 4.8778L12.769 3.57543ZM12.0515 4.82031C12.0176 4.82747 11.9824 4.82747 11.9485 4.82031L12.2577 3.35254C12.0878 3.31673 11.9122 3.31673 11.7423 3.35254L12.0515 4.82031ZM2 14.2498H7V12.7498H2V14.2498ZM22 12.7498H17V14.2498H22V12.7498ZM4.03033 14.4695L2.53033 12.9695L1.46967 14.0301L2.96967 15.5301L4.03033 14.4695ZM2.53033 14.0301L4.03033 12.5301L2.96967 11.4695L1.46967 12.9695L2.53033 14.0301ZM21.0303 15.5301L22.5303 14.0301L21.4697 12.9695L19.9697 14.4695L21.0303 15.5301ZM22.5303 12.9695L21.0303 11.4695L19.9697 12.5301L21.4697 14.0301L22.5303 12.9695Z" fill="#DB2D59"/>
</svg>
