<svg width="24" height="24" viewBox="0 0 24 24" fill="none" xmlns="http://www.w3.org/2000/svg">
<g clip-path="url(#clip0_4432_25)">
<path d="M3.49201 8.06502L4.77801 19H19.222L20.508 8.06502L16.498 10.738L12 4.44102L7.50201 10.738L3.49201 8.06502ZM2.80101 5.20002L7.00001 8.00002L11.186 2.14002C11.2785 2.01039 11.4006 1.90473 11.5422 1.83182C11.6838 1.75892 11.8408 1.72089 12 1.72089C12.1593 1.72089 12.3162 1.75892 12.4578 1.83182C12.5994 1.90473 12.7215 2.01039 12.814 2.14002L17 8.00002L21.2 5.20002C21.359 5.09427 21.5449 5.03623 21.7358 5.03276C21.9266 5.02929 22.1145 5.08053 22.2772 5.18044C22.4399 5.28035 22.5706 5.42474 22.6539 5.59656C22.7371 5.76837 22.7694 5.96042 22.747 6.15002L21.104 20.117C21.0754 20.3603 20.9584 20.5845 20.7754 20.7473C20.5923 20.9101 20.3559 21 20.111 21H3.88901C3.64407 21 3.40767 20.9101 3.22464 20.7473C3.0416 20.5845 2.92466 20.3603 2.89601 20.117L1.25301 6.14902C1.23081 5.9595 1.26329 5.76759 1.34663 5.59594C1.42996 5.42428 1.56067 5.28006 1.72332 5.18028C1.88597 5.08051 2.07377 5.02935 2.26455 5.03285C2.45533 5.03634 2.64113 5.09435 2.80001 5.20002H2.80101ZM12 15C11.4696 15 10.9609 14.7893 10.5858 14.4142C10.2107 14.0392 10 13.5305 10 13C10 12.4696 10.2107 11.9609 10.5858 11.5858C10.9609 11.2107 11.4696 11 12 11C12.5304 11 13.0391 11.2107 13.4142 11.5858C13.7893 11.9609 14 12.4696 14 13C14 13.5305 13.7893 14.0392 13.4142 14.4142C13.0391 14.7893 12.5304 15 12 15Z" fill="#A2AAB5"/>
</g>
<defs>
<clipPath id="clip0_4432_25">
<rect width="24" height="24" fill="white"/>
</clipPath>
</defs>
</svg>
