<svg width="24" height="24" viewBox="0 0 24 24" fill="none" xmlns="http://www.w3.org/2000/svg">
<path d="M6.00977 12.5863C6.00977 12.5863 5.77524 6.60586 12.4007 3.2443M12.3909 11.9023C12.3909 11.9023 12.6547 7.4658 17.8534 5.41368M12.3909 11.8925C12.3909 11.8925 16.1336 13.0554 17.0228 19.1238M12.4007 11.8339C12.4007 11.8339 9.09772 14.6678 3.40065 12.5668M15.3518 7.48534C15.3518 7.48534 19.886 9.60586 20.4039 15.1368M5.23779 17.7264C5.23779 17.7264 10.7296 19.4169 15.8697 16.0945M21 12C21 16.9706 16.9706 21 12 21C7.02944 21 3 16.9706 3 12C3 7.02944 7.02944 3 12 3C16.9706 3 21 7.02944 21 12Z" stroke="#DB2D59" stroke-width="1.5" stroke-linecap="round"/>
</svg>
