<svg width="24" height="24" viewBox="0 0 24 24" fill="none" xmlns="http://www.w3.org/2000/svg">
<path d="M20 11.2907H16.1176C15.0781 11.2907 14.2353 12.1572 14.2353 13.2261C14.2353 14.295 15.0781 15.1615 16.1176 15.1615H20M4 6.45223V15.9357C4 17.0196 4 18.5293 4.20516 18.9433C4.38563 19.3074 4.6736 19.6035 5.02778 19.7891C5.43044 20 5.95755 20 7.01176 20H16.9882C18.0425 20 18.5696 20 18.9722 19.7891C19.3264 19.6035 19.6144 19.3074 19.7948 18.9433C20 18.5293 20 17.0196 20 15.9357V10.5166C20 8.46494 20 7.92298 19.7948 7.50898C19.6144 7.14481 19.3264 6.84873 18.9722 6.66318C18.7487 6.54607 18.4868 6.49398 18.1176 6.4708M4 6.45223H16.9882C17.4572 6.45223 17.8219 6.45223 18.1176 6.4708M4 6.45223L15.2941 4.03299C16.2353 3.88408 18.1176 4.16318 18.1176 6.4708" stroke="white" stroke-width="1.5" stroke-linecap="round" stroke-linejoin="round"/>
</svg>
