<svg width="24" height="24" viewBox="0 0 24 24" fill="none" xmlns="http://www.w3.org/2000/svg">
<path d="M21 13C21 17.9706 16.9706 22 12 22C7.02944 22 3 17.9706 3 13M21 13C21 8.71682 18.008 5.13247 14 4.22302M21 13L15 13M3 13C3 8.71682 5.99202 5.13247 10 4.22302M3 13L9 13M15 13C15 14.6569 13.6569 16 12 16C10.3431 16 9 14.6569 9 13M15 13C15 11.3431 13.6569 10 12 10C10.3431 10 9 11.3431 9 13M7.5 5.20575L10.5 10.4019M13.5 15.5981L16.5 20.7942M16.5 5.20575L13.5 10.4019M10.5 15.5981L7.5 20.7942M12.6594 6.49783C13.299 5.59485 14 4.60515 14 3.3C14 1.86 12.6667 1.5 12 1.5C11.3333 1.5 10 1.86 10 3.3C10 4.60515 10.701 5.59485 11.3406 6.49783C11.6429 6.92474 12.3571 6.92474 12.6594 6.49783Z" stroke="#DB2D59" stroke-width="1.5"/>
</svg>
