<svg width="18" height="18" viewBox="0 0 18 18" fill="none" xmlns="http://www.w3.org/2000/svg">
<path d="M9.46601 6.0791H7.83496V8.79453H9.42258C10.3841 8.79453 11.0656 8.42458 11.0656 7.44206C11.0656 6.45953 10.3482 6.0791 9.46601 6.0791Z" fill="#FFEE61"/>
<path d="M8.99981 1.74219C4.99782 1.74219 1.7417 4.9983 1.7417 9.0003C1.7417 13.0023 4.99782 16.2584 8.99981 16.2584C13.0018 16.2584 16.2579 13.0023 16.2579 9.0003C16.2579 4.9983 13.0018 1.74219 8.99981 1.74219ZM9.68429 10.4501H7.83606V14.0417H5.75418V4.42466H9.73371C11.7766 4.42466 13.1651 5.57494 13.1651 7.4022C13.1651 9.49156 11.5834 10.4501 9.68578 10.4501H9.68429Z" fill="#FFEE61"/>
<path d="M9 0C4.02896 0 0 4.02896 0 9C0 13.971 4.02896 18 9 18C13.971 18 18 13.971 18 9C18 4.02896 13.9695 0 9 0ZM9 17.007C4.58462 17.007 0.993011 13.4154 0.993011 9C0.993011 4.58462 4.58462 0.993011 9 0.993011C13.4154 0.993011 17.007 4.58462 17.007 9C17.007 13.4154 13.4154 17.007 9 17.007Z" fill="#FFEE61"/>
</svg>
