<svg width="17" height="16" viewBox="0 0 17 16" fill="none" xmlns="http://www.w3.org/2000/svg">
<path d="M7.1748 10.6667H3.84147V14M9.84147 5.33333H13.1748V2M3.56348 6.00211C3.93727 5.07694 4.5631 4.2752 5.36984 3.68799C6.17658 3.10078 7.13215 2.75168 8.12742 2.68034C9.12268 2.609 10.1179 2.81827 11.0001 3.28441C11.8824 3.75055 12.6157 4.45485 13.1176 5.31724M13.4532 9.99788C13.0794 10.923 12.4536 11.7248 11.6468 12.312C10.8401 12.8992 9.88491 13.2483 8.88965 13.3197C7.89438 13.391 6.89885 13.1817 6.0166 12.7156C5.13436 12.2494 4.40069 11.5452 3.89876 10.6828" stroke="#E3E3E5" stroke-linecap="round" stroke-linejoin="round"/>
</svg>
