<svg width="40" height="41" viewBox="0 0 40 41" fill="none" xmlns="http://www.w3.org/2000/svg">
<path d="M2 20.4998C6.42183 15.5593 12.8477 12.4501 19.9999 12.4501C27.152 12.4501 33.5779 15.5593 37.9997 20.4998C33.5779 25.4402 27.152 28.5494 19.9999 28.5494C12.8477 28.5494 6.42183 25.4402 2 20.4998Z" stroke="#74C5FF" stroke-width="1.5"/>
<path d="M7.27203 33.2276C6.90531 26.6074 9.2506 19.8651 14.3079 14.8078C19.3652 9.75048 26.1075 7.40519 32.7277 7.77192C33.0944 14.3921 30.7491 21.1344 25.6918 26.1917C20.6345 31.249 13.8922 33.5943 7.27203 33.2276Z" stroke="#74C5FF" stroke-width="1.5"/>
<path d="M19.9998 38.4997C15.0594 34.0779 11.9502 27.652 11.9502 20.4999C11.9502 13.3477 15.0594 6.92183 19.9998 2.5C24.9403 6.92183 28.0495 13.3477 28.0495 20.4999C28.0495 27.652 24.9403 34.0779 19.9998 38.4997Z" stroke="#74C5FF" stroke-width="1.5"/>
<path d="M32.7276 33.2277C26.1075 33.5944 19.3651 31.2491 14.3078 26.1918C9.25053 21.1345 6.90524 14.3922 7.27196 7.77204C13.8921 7.40531 20.6344 9.7506 25.6917 14.8079C30.749 19.8652 33.0943 26.6075 32.7276 33.2277Z" stroke="#74C5FF" stroke-width="1.5"/>
</svg>
