<svg width="40" height="41" viewBox="0 0 40 41" fill="none" xmlns="http://www.w3.org/2000/svg">
<path d="M20 20.4409C20 20.4409 23.2633 16.0162 24.2654 14.4617C26.5349 10.9409 26.6211 7.25329 24.2654 4.50336C21.9097 1.75344 18.0903 1.75344 15.7346 4.50336C13.3789 7.25329 13.4652 10.9409 15.7346 14.4617C16.8159 16.1393 20 20.4409 20 20.4409ZM20 20.4409C20 20.4409 16.7367 24.8656 15.7346 26.4201C13.4651 29.9409 13.3789 33.6285 15.7346 36.3785C18.0903 39.1284 21.9097 39.1284 24.2654 36.3785C26.6211 33.6285 26.5348 29.9409 24.2654 26.4201C23.1841 24.7425 20 20.4409 20 20.4409ZM20 20.4409C20 20.4409 24.4247 23.7043 25.9792 24.7063C29.5 26.9758 33.1876 27.062 35.9376 24.7063C38.6875 22.3506 38.6875 18.5312 35.9376 16.1755C33.1876 13.8198 29.5 13.9061 25.9792 16.1755C24.3016 17.2568 20 20.4409 20 20.4409ZM20 20.4409C20 20.4409 15.5753 17.1776 14.0208 16.1755C10.5 13.906 6.81237 13.8198 4.06245 16.1755C1.31252 18.5313 1.31252 22.3506 4.06245 24.7063C6.81237 27.0621 10.5 26.9758 14.0208 24.7063C15.6984 23.625 20 20.4409 20 20.4409ZM6.56508 6.77214L20.0001 20.2072M20.0001 20.2072L33.4351 33.6422M20.0001 20.2072L6.56497 33.6423M20.0001 20.2072L33.435 6.77225" stroke="#A2AAB5" stroke-width="1.5"/>
</svg>
