<svg width="40" height="40" viewBox="0 0 40 40" fill="none" xmlns="http://www.w3.org/2000/svg">
<path d="M22.7943 9.49592C21.251 11.0391 18.749 11.0391 17.2057 9.49592C15.6625 7.9527 15.6625 5.45064 17.2057 3.90742C18.749 2.36419 21.251 2.36419 22.7943 3.90742C24.3375 5.45064 24.3375 7.9527 22.7943 9.49592ZM17.2057 22.7943C15.6625 21.251 15.6625 18.749 17.2057 17.2057C18.749 15.6625 21.251 15.6625 22.7943 17.2057C24.3375 18.749 24.3375 21.251 22.7943 22.7943C21.251 24.3375 18.749 24.3375 17.2057 22.7943ZM17.2057 30.5041C18.749 28.9609 21.251 28.9609 22.7943 30.5041C24.3375 32.0473 24.3375 34.5494 22.7943 36.0926C21.251 37.6358 18.749 37.6358 17.2057 36.0926C15.6625 34.5494 15.6625 32.0473 17.2057 30.5041ZM16.1451 23.8549C17.6883 25.3981 17.6883 27.9002 16.1451 29.4434C14.6019 30.9866 12.0998 30.9866 10.5566 29.4434C9.01336 27.9002 9.01336 25.3981 10.5566 23.8549C12.0998 22.3117 14.6019 22.3117 16.1451 23.8549ZM30.5041 22.7943C28.9609 21.251 28.9609 18.749 30.5041 17.2057C32.0473 15.6625 34.5494 15.6625 36.0926 17.2057C37.6358 18.749 37.6358 21.251 36.0926 22.7943C34.5494 24.3375 32.0473 24.3375 30.5041 22.7943ZM23.8549 29.4434C22.3117 27.9002 22.3117 25.3981 23.8549 23.8549C25.3981 22.3117 27.9002 22.3117 29.4434 23.8549C30.9866 25.3981 30.9866 27.9002 29.4434 29.4434C27.9002 30.9866 25.3981 30.9866 23.8549 29.4434ZM23.8549 16.1451C22.3117 14.6019 22.3117 12.0998 23.8549 10.5566C25.3981 9.01336 27.9002 9.01336 29.4434 10.5566C30.9866 12.0998 30.9866 14.6019 29.4434 16.1451C27.9002 17.6883 25.3981 17.6883 23.8549 16.1451ZM16.1451 16.1451C14.6019 17.6883 12.0998 17.6883 10.5566 16.1451C9.01336 14.6019 9.01336 12.0998 10.5566 10.5566C12.0998 9.01336 14.6019 9.01336 16.1451 10.5566C17.6883 12.0998 17.6883 14.6019 16.1451 16.1451ZM9.49592 22.7943C7.9527 24.3375 5.45064 24.3375 3.90742 22.7943C2.36419 21.251 2.36419 18.749 3.90742 17.2057C5.45064 15.6625 7.9527 15.6625 9.49592 17.2057C11.0391 18.749 11.0391 21.251 9.49592 22.7943Z" stroke="#BC81FF" stroke-width="1.5"/>
</svg>
