<svg width="38" height="38" viewBox="0 0 38 38" fill="none" xmlns="http://www.w3.org/2000/svg">
<path d="M22.3246 9.02625C20.4885 10.8624 17.5115 10.8624 15.6754 9.02625M22.3246 9.02625C24.1607 7.19014 24.1607 4.2132 22.3246 2.37709C20.4885 0.540971 17.5115 0.540971 15.6754 2.37709C13.8393 4.2132 13.8393 7.19014 15.6754 9.02625M22.3246 9.02625C20.4885 10.8624 20.4885 13.8393 22.3246 15.6754M22.3246 9.02625C24.1607 7.19014 27.1376 7.19014 28.9737 9.02625C30.8099 10.8624 30.8099 13.8393 28.9737 15.6754M15.6754 9.02625C13.8393 7.19014 10.8624 7.19014 9.02625 9.02625C7.19014 10.8624 7.19014 13.8393 9.02625 15.6754M15.6754 9.02625C17.5115 10.8624 17.5115 13.8393 15.6754 15.6754M15.6754 15.6754C13.8393 17.5115 10.8624 17.5115 9.02625 15.6754M15.6754 15.6754C13.8393 17.5115 13.8393 20.4885 15.6754 22.3246M15.6754 15.6754C17.5115 13.8393 20.4885 13.8393 22.3246 15.6754M9.02625 15.6754C7.19014 13.8393 4.2132 13.8393 2.37709 15.6754C0.540971 17.5115 0.540971 20.4885 2.37709 22.3246C4.2132 24.1607 7.19014 24.1607 9.02625 22.3246M9.02625 15.6754C10.8624 17.5115 10.8624 20.4885 9.02625 22.3246M9.02625 22.3246C7.19014 24.1607 7.19014 27.1376 9.02625 28.9737C10.8624 30.8099 13.8393 30.8099 15.6754 28.9737M9.02625 22.3246C10.8624 20.4885 13.8393 20.4885 15.6754 22.3246M28.9737 15.6754C27.1376 17.5115 24.1607 17.5115 22.3246 15.6754M28.9737 15.6754C27.1376 17.5115 27.1376 20.4885 28.9737 22.3246M28.9737 15.6754C30.8099 13.8393 33.7868 13.8393 35.6229 15.6754C37.459 17.5115 37.459 20.4885 35.6229 22.3246C33.7868 24.1607 30.8099 24.1607 28.9737 22.3246M22.3246 15.6754C24.1607 17.5115 24.1607 20.4885 22.3246 22.3246M22.3246 22.3246C20.4885 24.1607 17.5115 24.1607 15.6754 22.3246M22.3246 22.3246C20.4885 24.1607 20.4885 27.1376 22.3246 28.9737M22.3246 22.3246C24.1607 20.4885 27.1376 20.4885 28.9737 22.3246M15.6754 22.3246C17.5115 24.1607 17.5115 27.1376 15.6754 28.9737M15.6754 28.9737C13.8393 30.8099 13.8393 33.7868 15.6754 35.6229C17.5115 37.459 20.4885 37.459 22.3246 35.6229C24.1607 33.7868 24.1607 30.8099 22.3246 28.9737M15.6754 28.9737C17.5115 27.1376 20.4885 27.1376 22.3246 28.9737M28.9737 22.3246C30.8099 24.1607 30.8099 27.1376 28.9737 28.9737C27.1376 30.8099 24.1607 30.8099 22.3246 28.9737" stroke="#A2AAB5" stroke-width="1.5"/>
</svg>
