<svg width="40" height="41" viewBox="0 0 40 41" fill="none" xmlns="http://www.w3.org/2000/svg">
<path d="M2 20.4407C6.42183 15.5002 12.8477 12.3911 19.9999 12.3911C27.152 12.3911 33.5779 15.5002 37.9997 20.4407C33.5779 25.3812 27.152 28.4903 19.9999 28.4903C12.8477 28.4903 6.42183 25.3812 2 20.4407Z" stroke="#A2AAB5" stroke-width="1.5"/>
<path d="M7.27203 33.1685C6.90531 26.5483 9.2506 19.806 14.3079 14.7487C19.3652 9.69139 26.1075 7.34611 32.7277 7.71283C33.0944 14.333 30.7491 21.0753 25.6918 26.1326C20.6345 31.1899 13.8922 33.5352 7.27203 33.1685Z" stroke="#A2AAB5" stroke-width="1.5"/>
<path d="M19.9998 38.4406C15.0594 34.0188 11.9502 27.5929 11.9502 20.4408C11.9502 13.2887 15.0594 6.86275 19.9998 2.44092C24.9403 6.86275 28.0495 13.2887 28.0495 20.4408C28.0495 27.5929 24.9403 34.0188 19.9998 38.4406Z" stroke="#A2AAB5" stroke-width="1.5"/>
<path d="M32.7276 33.1686C26.1075 33.5353 19.3651 31.19 14.3078 26.1327C9.25053 21.0754 6.90524 14.3331 7.27196 7.71295C13.8921 7.34623 20.6344 9.69152 25.6917 14.7488C30.749 19.8061 33.0943 26.5484 32.7276 33.1686Z" stroke="#A2AAB5" stroke-width="1.5"/>
</svg>
