<svg width="40" height="41" viewBox="0 0 40 41" fill="none" xmlns="http://www.w3.org/2000/svg">
<path d="M20 20.5C20 20.5 23.2633 16.0753 24.2654 14.5208C26.5349 11 26.6211 7.31237 24.2654 4.56245C21.9097 1.81252 18.0903 1.81252 15.7346 4.56245C13.3789 7.31237 13.4652 11 15.7346 14.5208C16.8159 16.1984 20 20.5 20 20.5ZM20 20.5C20 20.5 16.7367 24.9247 15.7346 26.4792C13.4651 30 13.3789 33.6876 15.7346 36.4376C18.0903 39.1875 21.9097 39.1875 24.2654 36.4376C26.6211 33.6876 26.5348 30 24.2654 26.4792C23.1841 24.8016 20 20.5 20 20.5ZM20 20.5C20 20.5 24.4247 23.7633 25.9792 24.7654C29.5 27.0349 33.1876 27.1211 35.9376 24.7654C38.6875 22.4097 38.6875 18.5903 35.9376 16.2346C33.1876 13.8789 29.5 13.9652 25.9792 16.2346C24.3016 17.3159 20 20.5 20 20.5ZM20 20.5C20 20.5 15.5753 17.2367 14.0208 16.2346C10.5 13.9651 6.81237 13.8789 4.06245 16.2346C1.31252 18.5903 1.31252 22.4097 4.06245 24.7654C6.81237 27.1211 10.5 27.0348 14.0208 24.7654C15.6984 23.6841 20 20.5 20 20.5ZM6.56508 6.83122L20.0001 20.2662M20.0001 20.2662L33.4351 33.7013M20.0001 20.2662L6.56497 33.7014M20.0001 20.2662L33.435 6.83133" stroke="#FF97B0" stroke-width="1.5"/>
</svg>
