<?xml version="1.0" encoding="UTF-8"?>
<svg id="Layer_1" xmlns="http://www.w3.org/2000/svg" version="1.1" viewBox="0 0 16 16">
  <!-- Generator: Adobe Illustrator 29.0.0, SVG Export Plug-In . SVG Version: 2.1.0 Build 186)  -->
  <defs>
    <style>
      .st0 {
        fill: none;
        stroke: #e3e3e5;
        stroke-linecap: round;
        stroke-linejoin: round;
      }
    </style>
  </defs>
  <path class="st0" d="M3.18,5.09l-.22,2.42h0c-.03.37-.05.55-.02.72.03.15.08.3.16.44.09.15.22.28.47.54h0s3.44,3.45,3.44,3.45h0c.53.53.79.79,1.09.89.27.09.56.09.82,0,.3-.1.57-.36,1.1-.89l2.64-2.64c.53-.53.79-.79.89-1.1.09-.27.09-.56,0-.82-.1-.3-.36-.57-.89-1.1l-3.44-3.44c-.26-.26-.39-.39-.54-.48-.14-.08-.28-.13-.44-.16-.17-.03-.36-.01-.72.02l-2.42.22h0c-.63.06-.94.09-1.19.22-.22.12-.4.3-.52.52-.14.25-.16.56-.22,1.18h0Z"/>
  <circle class="st0" cx="6.03" cy="6.07" r=".65"/>
</svg>