<svg width="21" height="21" viewBox="0 0 21 21" fill="none" xmlns="http://www.w3.org/2000/svg">
<path d="M14.2562 8.69941V5.69347C14.2562 3.75228 12.573 2.16602 10.496 2.16602C8.41899 2.16602 6.74349 3.74504 6.74349 5.69347V8.69941C5.54672 9.05433 4.6665 10.0974 4.6665 11.3432V16.044C4.6665 17.5868 5.99454 18.8327 7.63915 18.8327H13.3605C15.0051 18.8327 16.3332 17.5868 16.3332 16.044V11.3432C16.3332 10.0974 15.4607 9.05433 14.2562 8.69941ZM7.90167 5.69347C7.90167 4.34623 9.06756 3.2525 10.5037 3.2525C11.9398 3.2525 13.1057 4.34623 13.1057 5.69347V8.55454H7.90939V5.69347H7.90167ZM11.0751 14.3636C11.0751 14.6606 10.8125 14.9069 10.496 14.9069C10.1794 14.9069 9.91689 14.6606 9.91689 14.3636V13.0236C9.91689 12.8498 10.0095 12.6977 10.1562 12.5963C10.2566 12.5238 10.3647 12.4804 10.496 12.4804C10.6272 12.4804 10.7431 12.5311 10.8357 12.5963C10.9747 12.6977 11.0751 12.8425 11.0751 13.0236V14.3636Z" fill="#E3E3E5"/>
</svg>
