<svg width="16" height="16" viewBox="0 0 16 16" fill="none" xmlns="http://www.w3.org/2000/svg">
<path d="M10.5 5C10.5 6.38071 9.38071 7.5 8 7.5C6.61929 7.5 5.5 6.38071 5.5 5C5.5 3.61929 6.61929 2.5 8 2.5C9.38071 2.5 10.5 3.61929 10.5 5Z" stroke="#949B9C"/>
<path d="M2.60386 13.1264C3.08934 11.114 5.26876 9.5 8 9.5C10.7312 9.5 12.9107 11.114 13.3961 13.1264C13.418 13.2171 13.3948 13.2963 13.3304 13.3657C13.2601 13.4413 13.1414 13.5 13 13.5H3C2.85864 13.5 2.73987 13.4413 2.66963 13.3657C2.60517 13.2963 2.58198 13.2171 2.60386 13.1264Z" stroke="#949B9C" stroke-linecap="round"/>
</svg>
